regular.ufo
<glyph name="exclam" format="2">
  <advance height="1920" width="540"/>
  <unicode hex="0021"/>
  <outline>
    <contour>
      <point x="365.0" y="0.0" type="curve" smooth="yes"/>
      <point x="175.0" y="0.0" type="line" smooth="yes"/>
      <point x="168.0" y="0.0"/>
      <point x="165.0" y="3.0"/>
      <point x="165.0" y="10.0" type="curve" smooth="yes"/>
      <point x="165.0" y="200.0" type="line" smooth="yes"/>
      <point x="165.0" y="207.0"/>
      <point x="168.0" y="210.0"/>
      <point x="175.0" y="210.0" type="curve" smooth="yes"/>
      <point x="365.0" y="210.0" type="line" smooth="yes"/>
      <point x="372.0" y="210.0"/>
      <point x="375.0" y="207.0"/>
      <point x="375.0" y="200.0" type="curve" smooth="yes"/>
      <point x="375.0" y="10.0" type="line" smooth="yes"/>
      <point x="375.0" y="3.0"/>
      <point x="372.0" y="-8.57252759403e-16"/>
    </contour>
    <contour>
      <point x="175.0" y="950.0" type="curve" smooth="yes"/>
      <point x="175.0" y="1440.0" type="line" smooth="yes"/>
      <point x="175.0" y="1447.0"/>
      <point x="178.0" y="1450.0"/>
      <point x="185.0" y="1450.0" type="curve" smooth="yes"/>
      <point x="355.0" y="1450.0" type="line" smooth="yes"/>
      <point x="362.0" y="1450.0"/>
      <point x="365.0" y="1447.0"/>
      <point x="365.0" y="1440.0" type="curve" smooth="yes"/>
      <point x="365.0" y="950.0" type="line" smooth="yes"/>
      <point x="365.0" y="943.0"/>
      <point x="364.81712286" y="936.903279335"/>
      <point x="364.0" y="930.0" type="curve" smooth="yes"/>
      <point x="306.0" y="440.0" type="line" smooth="yes"/>
      <point x="305.18287714" y="433.096720665"/>
      <point x="302.0" y="430.0"/>
      <point x="295.0" y="430.0" type="curve" smooth="yes"/>
      <point x="245.0" y="430.0" type="line" smooth="yes"/>
      <point x="238.0" y="430.0"/>
      <point x="234.81712286" y="433.096720665"/>
      <point x="234.0" y="440.0" type="curve" smooth="yes"/>
      <point x="176.0" y="930.0" type="line" smooth="yes"/>
      <point x="175.18287714" y="936.903279335"/>
      <point x="175.0" y="943.0"/>
    </contour>
  </outline>
</glyph>
<glyph name="numbersign" format="2">
  <advance height="1920" width="1300"/>
  <unicode hex="0023"/>
  <outline>
    <contour>
      <point x="80.0" y="540.0" type="curve" smooth="yes"/>
      <point x="1140.0" y="540.0" type="line" smooth="yes"/>
      <point x="1147.0" y="540.0"/>
      <point x="1150.0" y="537.0"/>
      <point x="1150.0" y="530.0" type="curve" smooth="yes"/>
      <point x="1150.0" y="440.0" type="line" smooth="yes"/>
      <point x="1150.0" y="433.0"/>
      <point x="1148.0" y="430.0"/>
      <point x="1140.0" y="430.0" type="curve" smooth="yes"/>
      <point x="80.0" y="430.0" type="line" smooth="yes"/>
      <point x="73.0" y="430.0"/>
      <point x="70.0" y="433.0"/>
      <point x="70.0" y="440.0" type="curve" smooth="yes"/>
      <point x="70.0" y="530.0" type="line" smooth="yes"/>
      <point x="70.0" y="537.0"/>
      <point x="73.0" y="540.0"/>
    </contour>
    <contour>
      <point x="160.0" y="1050.0" type="curve" smooth="yes"/>
      <point x="1220.0" y="1050.0" type="line" smooth="yes"/>
      <point x="1227.0" y="1050.0"/>
      <point x="1230.0" y="1047.0"/>
      <point x="1230.0" y="1040.0" type="curve" smooth="yes"/>
      <point x="1230.0" y="950.0" type="line" smooth="yes"/>
      <point x="1230.0" y="943.0"/>
      <point x="1227.0" y="940.0"/>
      <point x="1220.0" y="940.0" type="curve" smooth="yes"/>
      <point x="160.0" y="940.0" type="line" smooth="yes"/>
      <point x="153.0" y="940.0"/>
      <point x="150.0" y="943.0"/>
      <point x="150.0" y="950.0" type="curve" smooth="yes"/>
      <point x="150.0" y="1040.0" type="line" smooth="yes"/>
      <point x="150.0" y="1047.0"/>
      <point x="153.0" y="1050.0"/>
    </contour>
    <contour>
      <point x="950.0" y="1400.0" type="curve" smooth="yes"/>
      <point x="1080.0" y="1400.0" type="line" smooth="yes"/>
      <point x="1090.0" y="1400.0"/>
      <point x="1090.0" y="1397.0"/>
      <point x="1088.0" y="1390.0" type="curve" smooth="yes"/>
      <point x="762.0" y="10.0" type="line" smooth="yes"/>
      <point x="760.0" y="3.0"/>
      <point x="760.0" y="0.0"/>
      <point x="750.0" y="0.0" type="curve" smooth="yes"/>
      <point x="620.0" y="0.0" type="line" smooth="yes"/>
      <point x="610.0" y="0.0"/>
      <point x="610.0" y="3.0"/>
      <point x="612.0" y="10.0" type="curve" smooth="yes"/>
      <point x="938.0" y="1390.0" type="line" smooth="yes"/>
      <point x="940.0" y="1397.0"/>
      <point x="940.0" y="1400.0"/>
    </contour>
    <contour>
      <point x="530.0" y="1400.0" type="curve" smooth="yes"/>
      <point x="660.0" y="1400.0" type="line" smooth="yes"/>
      <point x="667.0" y="1400.0"/>
      <point x="670.0" y="1397.0"/>
      <point x="668.0" y="1390.0" type="curve" smooth="yes"/>
      <point x="342.0" y="10.0" type="line" smooth="yes"/>
      <point x="340.0" y="3.0"/>
      <point x="337.0" y="0.0"/>
      <point x="330.0" y="0.0" type="curve" smooth="yes"/>
      <point x="200.0" y="0.0" type="line" smooth="yes"/>
      <point x="193.0" y="0.0"/>
      <point x="190.0" y="3.0"/>
      <point x="192.0" y="10.0" type="curve" smooth="yes"/>
      <point x="518.0" y="1390.0" type="line" smooth="yes"/>
      <point x="520.0" y="1397.0"/>
      <point x="523.0" y="1400.0"/>
    </contour>
  </outline>
</glyph>
<glyph name="dollar" format="2">
  <advance height="1920" width="1110"/>
  <unicode hex="0024"/>
  <outline>
    <contour>
      <point x="80.0" y="508.0" type="curve" smooth="yes"/>
      <point x="230.0" y="508.0" type="line" smooth="yes"/>
      <point x="232.7734375" y="508.0"/>
      <point x="240.0" y="507.0"/>
      <point x="240.0" y="500.0" type="curve" smooth="yes"/>
      <point x="240.0" y="440.0" type="line" smooth="yes"/>
      <point x="240.0" y="236.4140625"/>
      <point x="349.641601562" y="115.0"/>
      <point x="560.0" y="115.0" type="curve" smooth="yes"/>
      <point x="768.0" y="115.0"/>
      <point x="850.0" y="187.0"/>
      <point x="850.0" y="378.0" type="curve" smooth="yes"/>
      <point x="850.0" y="494.666992188"/>
      <point x="782.067693756" y="554.551492898"/>
      <point x="538.0" y="614.0" type="curve" smooth="yes"/>
      <point x="267.580819769" y="679.867040037"/>
      <point x="110.0" y="815.0"/>
      <point x="110.0" y="1033.0" type="curve" smooth="yes"/>
      <point x="110.0" y="1273.0"/>
      <point x="253.0" y="1435.0"/>
      <point x="540.0" y="1435.0" type="curve" smooth="yes"/>
      <point x="834.0" y="1435.0"/>
      <point x="970.0" y="1256.0"/>
      <point x="970.0" y="1041.0" type="curve" smooth="yes"/>
      <point x="970.0" y="971.0" type="line" smooth="yes"/>
      <point x="970.0" y="964.0"/>
      <point x="965.14453125" y="963.0"/>
      <point x="960.0" y="963.0" type="curve" smooth="yes"/>
      <point x="810.0" y="963.0" type="line" smooth="yes"/>
      <point x="804.85546875" y="963.0"/>
      <point x="800.0" y="964.0"/>
      <point x="800.0" y="971.0" type="curve" smooth="yes"/>
      <point x="800.0" y="1031.0" type="line" smooth="yes"/>
      <point x="800.0" y="1166.0"/>
      <point x="735.0" y="1295.0"/>
      <point x="540.0" y="1295.0" type="curve" smooth="yes"/>
      <point x="363.0" y="1295.0"/>
      <point x="290.0" y="1203.0"/>
      <point x="290.0" y="1053.0" type="curve" smooth="yes"/>
      <point x="290.0" y="902.0"/>
      <point x="390.472849297" y="832.640543517"/>
      <point x="558.0" y="792.0" type="curve" smooth="yes"/>
      <point x="886.71875" y="712.255859375"/>
      <point x="1040.0" y="585.625976562"/>
      <point x="1040.0" y="388.0" type="curve" smooth="yes"/>
      <point x="1040.0" y="131.0"/>
      <point x="909.0" y="-35.0"/>
      <point x="560.0" y="-35.0" type="curve" smooth="yes"/>
      <point x="251.512695312" y="-35.0"/>
      <point x="71.0" y="152.553710938"/>
      <point x="71.0" y="389.0" type="curve" smooth="yes"/>
      <point x="71.0" y="499.0" type="line" smooth="yes"/>
      <point x="71.0" y="506.0"/>
      <point x="77.296875" y="508.0"/>
    </contour>
    <contour>
      <point x="520.0" y="1590.0" type="curve" smooth="yes"/>
      <point x="580.0" y="1590.0" type="line" smooth="yes"/>
      <point x="587.0" y="1590.0"/>
      <point x="590.0" y="1587.0"/>
      <point x="590.0" y="1580.0" type="curve" smooth="yes"/>
      <point x="590.0" y="-180.0" type="line" smooth="yes"/>
      <point x="590.0" y="-187.0"/>
      <point x="587.0" y="-190.0"/>
      <point x="580.0" y="-190.0" type="curve" smooth="yes"/>
      <point x="520.0" y="-190.0" type="line" smooth="yes"/>
      <point x="513.0" y="-190.0"/>
      <point x="510.0" y="-187.0"/>
      <point x="510.0" y="-180.0" type="curve" smooth="yes"/>
      <point x="510.0" y="1580.0" type="line" smooth="yes"/>
      <point x="510.0" y="1587.0"/>
      <point x="513.0" y="1590.0"/>
    </contour>
  </outline>
</glyph>
<glyph name="percent" format="2">
  <advance height="2048" width="1755"/>
  <unicode hex="0025"/>
  <outline>
    <contour>
      <point x="100.0" y="1083.0" type="curve" smooth="yes"/>
      <point x="100.0" y="1118.0" type="line" smooth="yes"/>
      <point x="100.0" y="1308.0"/>
      <point x="258.0" y="1435.0"/>
      <point x="435.0" y="1435.0" type="curve" smooth="yes"/>
      <point x="612.0" y="1435.0"/>
      <point x="780.0" y="1308.0"/>
      <point x="780.0" y="1118.0" type="curve" smooth="yes"/>
      <point x="780.0" y="1083.0" type="line" smooth="yes"/>
      <point x="780.0" y="893.0"/>
      <point x="612.0" y="765.0"/>
      <point x="435.0" y="765.0" type="curve" smooth="yes"/>
      <point x="258.0" y="765.0"/>
      <point x="100.0" y="893.0"/>
    </contour>
    <contour>
      <point x="275.0" y="1063.0" type="line" smooth="yes"/>
      <point x="275.0" y="953.0"/>
      <point x="348.0" y="895.0"/>
      <point x="435.0" y="895.0" type="curve" smooth="yes"/>
      <point x="522.0" y="895.0"/>
      <point x="605.0" y="953.0"/>
      <point x="605.0" y="1063.0" type="curve" smooth="yes"/>
      <point x="605.0" y="1138.0" type="line" smooth="yes"/>
      <point x="605.0" y="1248.0"/>
      <point x="522.0" y="1305.0"/>
      <point x="435.0" y="1305.0" type="curve" smooth="yes"/>
      <point x="348.0" y="1305.0"/>
      <point x="275.0" y="1248.0"/>
      <point x="275.0" y="1138.0" type="curve" smooth="yes"/>
    </contour>
    <contour>
      <point x="975.0" y="283.0" type="curve" smooth="yes"/>
      <point x="975.0" y="318.0" type="line" smooth="yes"/>
      <point x="975.0" y="508.0"/>
      <point x="1133.0" y="635.0"/>
      <point x="1310.0" y="635.0" type="curve" smooth="yes"/>
      <point x="1487.0" y="635.0"/>
      <point x="1655.0" y="508.0"/>
      <point x="1655.0" y="318.0" type="curve" smooth="yes"/>
      <point x="1655.0" y="283.0" type="line" smooth="yes"/>
      <point x="1655.0" y="93.0"/>
      <point x="1487.0" y="-35.0"/>
      <point x="1310.0" y="-35.0" type="curve" smooth="yes"/>
      <point x="1133.0" y="-35.0"/>
      <point x="975.0" y="93.0"/>
    </contour>
    <contour>
      <point x="1150.0" y="263.0" type="line" smooth="yes"/>
      <point x="1150.0" y="153.0"/>
      <point x="1223.0" y="95.0"/>
      <point x="1310.0" y="95.0" type="curve" smooth="yes"/>
      <point x="1397.0" y="95.0"/>
      <point x="1480.0" y="153.0"/>
      <point x="1480.0" y="263.0" type="curve" smooth="yes"/>
      <point x="1480.0" y="338.0" type="line" smooth="yes"/>
      <point x="1480.0" y="448.0"/>
      <point x="1397.0" y="505.0"/>
      <point x="1310.0" y="505.0" type="curve" smooth="yes"/>
      <point x="1223.0" y="505.0"/>
      <point x="1150.0" y="448.0"/>
      <point x="1150.0" y="338.0" type="curve" smooth="yes"/>
    </contour>
    <contour>
      <point x="1379.0" y="1390.0" type="curve" smooth="yes"/>
      <point x="536.0" y="10.0" type="line" smooth="yes"/>
      <point x="531.55136443" y="2.71753607676"/>
      <point x="527.0" y="-8.57252759403e-16"/>
      <point x="520.0" y="0.0" type="curve" smooth="yes"/>
      <point x="380.0" y="0.0" type="line" smooth="yes"/>
      <point x="373.0" y="0.0"/>
      <point x="371.55136443" y="2.71753607676"/>
      <point x="376.0" y="10.0" type="curve" smooth="yes"/>
      <point x="1219.0" y="1390.0" type="line" smooth="yes"/>
      <point x="1223.44863557" y="1397.28246392"/>
      <point x="1228.0" y="1400.0"/>
      <point x="1235.0" y="1400.0" type="curve" smooth="yes"/>
      <point x="1375.0" y="1400.0" type="line" smooth="yes"/>
      <point x="1382.0" y="1400.0"/>
      <point x="1383.44863557" y="1397.28246392"/>
    </contour>
  </outline>
</glyph>
<glyph name="ampersand" format="2">
  <advance height="1920" width="1280"/>
  <unicode hex="0026"/>
  <outline>
    <contour>
      <point x="1043.0" y="10.0" type="curve" smooth="yes"/>
      <point x="558.0" y="734.0" type="line" smooth="yes"/>
      <point x="433.89681864" y="919.145803085"/>
      <point x="340.0" y="1030.0"/>
      <point x="340.0" y="1163.0" type="curve" smooth="yes"/>
      <point x="340.0" y="1303.00195312"/>
      <point x="438.0" y="1435.0"/>
      <point x="645.0" y="1435.0" type="curve" smooth="yes"/>
      <point x="832.0" y="1435.0"/>
      <point x="955.0" y="1353.14693183"/>
      <point x="960.0" y="1183.0" type="curve" smooth="yes"/>
      <point x="964.932649844" y="1015.14495265"/>
      <point x="865.04296875" y="877.8203125"/>
      <point x="637.0" y="776.0" type="curve" smooth="yes"/>
      <point x="383.354492188" y="662.748046875"/>
      <point x="236.0" y="592.0"/>
      <point x="236.0" y="448.0" type="curve" smooth="yes"/>
      <point x="236.0" y="389.00390625"/>
      <point x="249.98828125" y="341.438476562"/>
      <point x="284.5" y="286.0" type="curve" smooth="yes"/>
      <point x="330.0" y="212.909179688" type="line" smooth="yes"/>
      <point x="372.4921875" y="144.650390625"/>
      <point x="441.1953125" y="105.0"/>
      <point x="526.639648438" y="105.0" type="curve" smooth="yes"/>
      <point x="718.238928583" y="105.0"/>
      <point x="904.073428903" y="336.231430764"/>
      <point x="1012.13176741" y="639.9999864" type="curve" smooth="yes"/>
      <point x="1014.06743759" y="645.441452029"/>
      <point x="1018.02248207" y="648.0"/>
      <point x="1025.0" y="648.0" type="curve" smooth="yes"/>
      <point x="1145.0" y="648.0" type="line" smooth="yes"/>
      <point x="1152.03066744" y="648.0"/>
      <point x="1154.13490282" y="645.350047449"/>
      <point x="1151.38815501" y="637.000027364" type="curve" smooth="yes"/>
      <point x="1016.46548426" y="226.8396892"/>
      <point x="798.814717401" y="-35.0"/>
      <point x="531.208984375" y="-35.0" type="curve" smooth="yes"/>
      <point x="395.288085938" y="-35.0"/>
      <point x="263.368164062" y="21.1064453125"/>
      <point x="199.0" y="118.501953125" type="curve" smooth="yes"/>
      <point x="146.0" y="198.696289062" type="line" smooth="yes"/>
      <point x="92.9755859375" y="278.927734375"/>
      <point x="66.0" y="351.583984375"/>
      <point x="66.0" y="448.0" type="curve" smooth="yes"/>
      <point x="66.0" y="657.0"/>
      <point x="282.0" y="767.0"/>
      <point x="527.0" y="862.0" type="curve" smooth="yes"/>
      <point x="687.7265625" y="924.322265625"/>
      <point x="825.0" y="1032.0"/>
      <point x="825.0" y="1163.0" type="curve" smooth="yes"/>
      <point x="825.0" y="1243.0"/>
      <point x="762.0" y="1300.0"/>
      <point x="665.0" y="1300.0" type="curve" smooth="yes"/>
      <point x="568.0" y="1300.0"/>
      <point x="510.0" y="1242.02636719"/>
      <point x="510.0" y="1153.0" type="curve" smooth="yes"/>
      <point x="510.0" y="1034.0"/>
      <point x="580.549848857" y="972.534547929"/>
      <point x="647.0" y="876.0" type="curve" smooth="yes"/>
      <point x="1243.0" y="10.0" type="line" smooth="yes"/>
      <point x="1247.67018708" y="3.21412413633"/>
      <point x="1247.0" y="-8.57252759403e-16"/>
      <point x="1240.0" y="0.0" type="curve" smooth="yes"/>
      <point x="1060.0" y="0.0" type="line" smooth="yes"/>
      <point x="1053.0" y="0.0"/>
      <point x="1047.62792969" y="3.1064453125"/>
    </contour>
  </outline>
</glyph>
<glyph name="quotesingle" format="2">
  <advance height="1920" width="370"/>
  <unicode hex="0027"/>
  <outline>
    <contour>
      <point x="210.0" y="930.0" type="curve" smooth="yes"/>
      <point x="160.0" y="930.0" type="line" smooth="yes"/>
      <point x="153.0" y="930.0"/>
      <point x="149.159179688" y="933.197265625"/>
      <point x="148.0" y="940.0" type="curve" smooth="yes"/>
      <point x="102.0" y="1210.0" type="line" smooth="yes"/>
      <point x="100.840820312" y="1216.80273438"/>
      <point x="100.0" y="1223.0"/>
      <point x="100.0" y="1230.0" type="curve" smooth="yes"/>
      <point x="100.0" y="1410.0" type="line" smooth="yes"/>
      <point x="100.0" y="1417.0"/>
      <point x="103.0" y="1420.0"/>
      <point x="110.0" y="1420.0" type="curve" smooth="yes"/>
      <point x="260.0" y="1420.0" type="line" smooth="yes"/>
      <point x="267.0" y="1420.0"/>
      <point x="270.0" y="1417.0"/>
      <point x="270.0" y="1410.0" type="curve" smooth="yes"/>
      <point x="270.0" y="1230.0" type="line" smooth="yes"/>
      <point x="270.0" y="1223.0"/>
      <point x="269.159179688" y="1216.80273438"/>
      <point x="268.0" y="1210.0" type="curve" smooth="yes"/>
      <point x="222.0" y="940.0" type="line" smooth="yes"/>
      <point x="220.840820312" y="933.197265625"/>
      <point x="217.0" y="930.0"/>
    </contour>
  </outline>
</glyph>
<glyph name="parenright" format="2">
  <advance height="2048" width="535"/>
  <unicode hex="0029"/>
  <outline>
    <contour>
      <point x="465.0" y="412.0" type="line" smooth="yes"/>
      <point x="465.0" y="7.0"/>
      <point x="325.64453125" y="-311.42578125"/>
      <point x="45.6845703125" y="-368.0" type="curve" smooth="yes"/>
      <point x="37.865234375" y="-369.580078125"/>
      <point x="35.0" y="-367.139648438"/>
      <point x="35.0" y="-360.0" type="curve" smooth="yes"/>
      <point x="35.0" y="-290.0" type="line" smooth="yes"/>
      <point x="35.0" y="-283.216796875"/>
      <point x="37.357421875" y="-279.048828125"/>
      <point x="44.2783203125" y="-276.0" type="curve" smooth="yes"/>
      <point x="182.984375" y="-214.889648438"/>
      <point x="290.0" y="-9.0"/>
      <point x="290.0" y="392.0" type="curve" smooth="yes"/>
      <point x="290.0" y="858.0" type="line" smooth="yes"/>
      <point x="290.0" y="1259.0"/>
      <point x="182.984375" y="1464.88964844"/>
      <point x="44.2783203125" y="1526.0" type="curve" smooth="yes"/>
      <point x="37.357421875" y="1529.04882812"/>
      <point x="35.0" y="1533.21679688"/>
      <point x="35.0" y="1540.0" type="curve" smooth="yes"/>
      <point x="35.0" y="1610.0" type="line" smooth="yes"/>
      <point x="35.0" y="1617.13964844"/>
      <point x="37.865234375" y="1619.58007812"/>
      <point x="45.6845703125" y="1618.0" type="curve" smooth="yes"/>
      <point x="325.64453125" y="1561.42578125"/>
      <point x="465.0" y="1243.0"/>
      <point x="465.0" y="838.0" type="curve" smooth="yes"/>
    </contour>
  </outline>
</glyph>
<glyph name="asterisk" format="2">
  <advance height="2048" width="914"/>
  <unicode hex="002A"/>
  <outline>
    <contour>
      <point x="468.0" y="986.0" type="line"/>
      <point x="446.0" y="1053.0" type="line"/>
      <point x="764.0" y="1208.0" type="line" smooth="yes"/>
      <point x="770.0" y="1211.0"/>
      <point x="776.0" y="1213.0"/>
      <point x="783.0" y="1214.0" type="curve" smooth="yes"/>
      <point x="833.0" y="1222.0" type="line" smooth="yes"/>
      <point x="840.0" y="1223.0"/>
      <point x="844.0" y="1221.0"/>
      <point x="846.0" y="1214.0" type="curve" smooth="yes"/>
      <point x="886.0" y="1091.0" type="line" smooth="yes"/>
      <point x="888.0" y="1084.0"/>
      <point x="886.0" y="1080.0"/>
      <point x="880.0" y="1077.0" type="curve" smooth="yes"/>
      <point x="835.0" y="1054.0" type="line" smooth="yes"/>
      <point x="829.0" y="1051.0"/>
      <point x="823.0" y="1049.0"/>
      <point x="816.0" y="1048.0" type="curve" smooth="yes"/>
    </contour>
    <contour>
      <point x="428.0" y="1000.0" type="line"/>
      <point x="485.0" y="1041.0" type="line"/>
      <point x="730.0" y="787.0" type="line" smooth="yes"/>
      <point x="735.0" y="782.0"/>
      <point x="739.0" y="776.0"/>
      <point x="742.0" y="770.0" type="curve" smooth="yes"/>
      <point x="765.0" y="725.0" type="line" smooth="yes"/>
      <point x="768.0" y="719.0"/>
      <point x="768.0" y="715.0"/>
      <point x="762.0" y="711.0" type="curve" smooth="yes"/>
      <point x="657.0" y="634.0" type="line" smooth="yes"/>
      <point x="651.0" y="630.0"/>
      <point x="647.0" y="631.0"/>
      <point x="642.0" y="636.0" type="curve" smooth="yes"/>
      <point x="606.0" y="672.0" type="line" smooth="yes"/>
      <point x="601.0" y="677.0"/>
      <point x="597.0" y="682.0"/>
      <point x="594.0" y="688.0" type="curve" smooth="yes"/>
    </contour>
    <contour>
      <point x="429.0" y="1041.0" type="line"/>
      <point x="486.0" y="1000.0" type="line"/>
      <point x="320.0" y="688.0" type="line" smooth="yes"/>
      <point x="317.0" y="682.0"/>
      <point x="313.0" y="677.0"/>
      <point x="308.0" y="672.0" type="curve" smooth="yes"/>
      <point x="272.0" y="636.0" type="line" smooth="yes"/>
      <point x="267.0" y="631.0"/>
      <point x="263.0" y="630.0"/>
      <point x="257.0" y="634.0" type="curve" smooth="yes"/>
      <point x="152.0" y="711.0" type="line" smooth="yes"/>
      <point x="146.0" y="715.0"/>
      <point x="146.0" y="719.0"/>
      <point x="149.0" y="725.0" type="curve" smooth="yes"/>
      <point x="172.0" y="770.0" type="line" smooth="yes"/>
      <point x="175.0" y="776.0"/>
      <point x="179.0" y="782.0"/>
      <point x="184.0" y="787.0" type="curve" smooth="yes"/>
    </contour>
    <contour>
      <point x="468.0" y="1053.0" type="line"/>
      <point x="446.0" y="986.0" type="line"/>
      <point x="98.0" y="1048.0" type="line" smooth="yes"/>
      <point x="91.0" y="1049.0"/>
      <point x="85.0" y="1051.0"/>
      <point x="79.0" y="1054.0" type="curve" smooth="yes"/>
      <point x="34.0" y="1077.0" type="line" smooth="yes"/>
      <point x="28.0" y="1080.0"/>
      <point x="26.0" y="1084.0"/>
      <point x="28.0" y="1091.0" type="curve" smooth="yes"/>
      <point x="68.0" y="1214.0" type="line" smooth="yes"/>
      <point x="70.0" y="1221.0"/>
      <point x="74.0" y="1223.0"/>
      <point x="81.0" y="1222.0" type="curve" smooth="yes"/>
      <point x="131.0" y="1214.0" type="line" smooth="yes"/>
      <point x="138.0" y="1213.0"/>
      <point x="144.0" y="1211.0"/>
      <point x="150.0" y="1208.0" type="curve" smooth="yes"/>
    </contour>
    <contour>
      <point x="492.0" y="1020.0" type="line"/>
      <point x="422.0" y="1020.0" type="line"/>
      <point x="373.0" y="1370.0" type="line" smooth="yes"/>
      <point x="372.0" y="1377.0"/>
      <point x="372.0" y="1383.0"/>
      <point x="373.0" y="1390.0" type="curve" smooth="yes"/>
      <point x="381.0" y="1440.0" type="line" smooth="yes"/>
      <point x="382.0" y="1447.0"/>
      <point x="385.0" y="1450.0"/>
      <point x="392.0" y="1450.0" type="curve" smooth="yes"/>
      <point x="522.0" y="1450.0" type="line" smooth="yes"/>
      <point x="529.0" y="1450.0"/>
      <point x="532.0" y="1447.0"/>
      <point x="533.0" y="1440.0" type="curve" smooth="yes"/>
      <point x="541.0" y="1390.0" type="line" smooth="yes"/>
      <point x="542.0" y="1383.0"/>
      <point x="542.0" y="1377.0"/>
      <point x="541.0" y="1370.0" type="curve" smooth="yes"/>
    </contour>
  </outline>
</glyph>
<glyph name="plus" format="2">
  <advance height="1920" width="1040"/>
  <unicode hex="002B"/>
  <outline>
    <contour>
      <point x="45.0" y="625.0" type="curve" smooth="yes"/>
      <point x="45.0" y="760.0" type="line" smooth="yes"/>
      <point x="45.0" y="767.0"/>
      <point x="48.0" y="770.0"/>
      <point x="55.0" y="770.0" type="curve" smooth="yes"/>
      <point x="985.0" y="770.0" type="line" smooth="yes"/>
      <point x="992.0" y="770.0"/>
      <point x="995.0" y="767.0"/>
      <point x="995.0" y="760.0" type="curve" smooth="yes"/>
      <point x="995.0" y="625.0" type="line" smooth="yes"/>
      <point x="995.0" y="618.0"/>
      <point x="992.0" y="615.0"/>
      <point x="985.0" y="615.0" type="curve" smooth="yes"/>
      <point x="55.0" y="615.0" type="line" smooth="yes"/>
      <point x="48.0" y="615.0"/>
      <point x="45.0" y="618.0"/>
    </contour>
    <contour>
      <point x="455.0" y="1190.0" type="curve" smooth="yes"/>
      <point x="585.0" y="1190.0" type="line" smooth="yes"/>
      <point x="592.0" y="1190.0"/>
      <point x="595.0" y="1187.0"/>
      <point x="595.0" y="1180.0" type="curve" smooth="yes"/>
      <point x="595.0" y="180.0" type="line" smooth="yes"/>
      <point x="595.0" y="173.0"/>
      <point x="592.0" y="170.0"/>
      <point x="585.0" y="170.0" type="curve" smooth="yes"/>
      <point x="455.0" y="170.0" type="line" smooth="yes"/>
      <point x="448.0" y="170.0"/>
      <point x="445.0" y="173.0"/>
      <point x="445.0" y="180.0" type="curve" smooth="yes"/>
      <point x="445.0" y="1180.0" type="line" smooth="yes"/>
      <point x="445.0" y="1187.0"/>
      <point x="448.0" y="1190.0"/>
    </contour>
  </outline>
</glyph>
<glyph name="comma" format="2">
  <advance height="1920" width="540"/>
  <unicode hex="002C"/>
  <outline>
    <contour>
      <point x="175.0" y="-210.0" type="curve" smooth="yes"/>
      <point x="145.0" y="-210.0" type="line" smooth="yes"/>
      <point x="138.0" y="-210.0"/>
      <point x="136.038706516" y="-207.545320921"/>
      <point x="140.0" y="-200.0" type="curve" smooth="yes"/>
      <point x="245.0" y="0.0" type="line"/>
      <point x="175.0" y="0.0" type="line" smooth="yes"/>
      <point x="166.479270153" y="0.0"/>
      <point x="165.0" y="1.40465588873"/>
      <point x="165.0" y="10.0" type="curve" smooth="yes"/>
      <point x="165.0" y="200.0" type="line" smooth="yes"/>
      <point x="165.0" y="207.0"/>
      <point x="168.0" y="210.0"/>
      <point x="175.0" y="210.0" type="curve" smooth="yes"/>
      <point x="365.0" y="210.0" type="line" smooth="yes"/>
      <point x="372.0" y="210.0"/>
      <point x="375.0" y="207.0"/>
      <point x="375.0" y="200.0" type="curve" smooth="yes"/>
      <point x="375.0" y="20.0" type="line" smooth="yes"/>
      <point x="375.0" y="13.0"/>
      <point x="373.336399172" y="8.53069671189"/>
      <point x="366.0" y="0.0" type="curve" smooth="yes"/>
      <point x="194.0" y="-200.0" type="line" smooth="yes"/>
      <point x="187.138192688" y="-207.978845712"/>
      <point x="183.0" y="-210.0"/>
    </contour>
  </outline>
</glyph>
<glyph name="hyphen" format="2">
  <advance height="1920" width="570"/>
  <unicode hex="002D"/>
  <outline>
    <contour>
      <point x="40.0" y="545.0" type="curve" smooth="yes"/>
      <point x="40.0" y="680.0" type="line" smooth="yes"/>
      <point x="40.0" y="687.0"/>
      <point x="43.0" y="690.0"/>
      <point x="50.0" y="690.0" type="curve" smooth="yes"/>
      <point x="520.0" y="690.0" type="line" smooth="yes"/>
      <point x="527.0" y="690.0"/>
      <point x="530.0" y="687.0"/>
      <point x="530.0" y="680.0" type="curve" smooth="yes"/>
      <point x="530.0" y="545.0" type="line" smooth="yes"/>
      <point x="530.0" y="538.0"/>
      <point x="527.0" y="535.0"/>
      <point x="520.0" y="535.0" type="curve" smooth="yes"/>
      <point x="50.0" y="535.0" type="line" smooth="yes"/>
      <point x="43.0" y="535.0"/>
      <point x="40.0" y="538.0"/>
    </contour>
  </outline>
</glyph>
<glyph name="period" format="2">
  <advance height="1920" width="540"/>
  <unicode hex="002E"/>
  <outline>
    <contour>
      <point x="365.0" y="0.0" type="curve" smooth="yes"/>
      <point x="175.0" y="0.0" type="line" smooth="yes"/>
      <point x="168.0" y="0.0"/>
      <point x="165.0" y="3.0"/>
      <point x="165.0" y="10.0" type="curve" smooth="yes"/>
      <point x="165.0" y="200.0" type="line" smooth="yes"/>
      <point x="165.0" y="207.0"/>
      <point x="168.0" y="210.0"/>
      <point x="175.0" y="210.0" type="curve" smooth="yes"/>
      <point x="365.0" y="210.0" type="line" smooth="yes"/>
      <point x="372.0" y="210.0"/>
      <point x="375.0" y="207.0"/>
      <point x="375.0" y="200.0" type="curve" smooth="yes"/>
      <point x="375.0" y="10.0" type="line" smooth="yes"/>
      <point x="375.0" y="3.0"/>
      <point x="372.0" y="-8.57252759403e-16"/>
    </contour>
  </outline>
</glyph>
<glyph name="slash" format="2">
  <advance height="2048" width="840"/>
  <unicode hex="002F"/>
  <outline>
    <contour>
      <point x="796.0" y="1390.0" type="curve" smooth="yes"/>
      <point x="179.0" y="-90.0" type="line" smooth="yes"/>
      <point x="175.448353208" y="-98.5193472494"/>
      <point x="172.0" y="-100.0"/>
      <point x="165.0" y="-100.0" type="curve" smooth="yes"/>
      <point x="25.0" y="-100.0" type="line" smooth="yes"/>
      <point x="18.0" y="-100.0"/>
      <point x="15.4483532075" y="-98.5193472494"/>
      <point x="19.0" y="-90.0" type="curve" smooth="yes"/>
      <point x="636.0" y="1390.0" type="line" smooth="yes"/>
      <point x="639.551646792" y="1398.51934725"/>
      <point x="644.0" y="1400.0"/>
      <point x="650.0" y="1400.0" type="curve" smooth="yes"/>
      <point x="790.0" y="1400.0" type="line" smooth="yes"/>
      <point x="797.0" y="1400.0"/>
      <point x="799.551646792" y="1398.51934725"/>
    </contour>
  </outline>
</glyph>
<glyph name="zero" format="2">
  <advance height="1920" width="1150"/>
  <unicode hex="0030"/>
  <outline>
    <contour>
      <point x="100.0" y="488.0" type="curve" smooth="yes"/>
      <point x="100.0" y="913.0" type="line" smooth="yes"/>
      <point x="100.0" y="1238.79492188"/>
      <point x="273.346679688" y="1435.0"/>
      <point x="575.0" y="1435.0" type="curve" smooth="yes"/>
      <point x="876.653320312" y="1435.0"/>
      <point x="1050.0" y="1238.79492188"/>
      <point x="1050.0" y="913.0" type="curve" smooth="yes"/>
      <point x="1050.0" y="488.0" type="line" smooth="yes"/>
      <point x="1050.0" y="161.891601562"/>
      <point x="876.377929688" y="-35.0"/>
      <point x="575.0" y="-35.0" type="curve" smooth="yes"/>
      <point x="273.622070312" y="-35.0"/>
      <point x="100.0" y="161.891601562"/>
    </contour>
    <contour>
      <point x="290.0" y="508.0" type="line" smooth="yes"/>
      <point x="290.0" y="259.787109375"/>
      <point x="391.172851562" y="105.0"/>
      <point x="575.0" y="105.0" type="curve" smooth="yes"/>
      <point x="758.827148438" y="105.0"/>
      <point x="860.0" y="259.787109375"/>
      <point x="860.0" y="508.0" type="curve" smooth="yes"/>
      <point x="860.0" y="893.0" type="line" smooth="yes"/>
      <point x="860.0" y="1140.875"/>
      <point x="759.051757812" y="1295.0"/>
      <point x="575.0" y="1295.0" type="curve" smooth="yes"/>
      <point x="390.948242188" y="1295.0"/>
      <point x="290.0" y="1140.875"/>
      <point x="290.0" y="893.0" type="curve" smooth="yes"/>
    </contour>
  </outline>
</glyph>
<glyph name="one" format="2">
  <advance height="1920" width="600"/>
  <unicode hex="0031"/>
  <outline>
    <contour>
      <point x="216.00000189" y="1374.24909204" type="curve" smooth="yes"/>
      <point x="267.940003113" y="1376.59050369"/>
      <point x="297.987586271" y="1397.43598957"/>
      <point x="308.745062481" y="1440.0" type="curve" smooth="yes"/>
      <point x="310.579410094" y="1447.25794688"/>
      <point x="314.39885677" y="1450.0"/>
      <point x="321.0" y="1450.0" type="curve" smooth="yes"/>
      <point x="385.0" y="1450.0" type="line" smooth="yes"/>
      <point x="392.0" y="1450.0"/>
      <point x="395.0" y="1447.0"/>
      <point x="395.0" y="1440.0" type="curve" smooth="yes"/>
      <point x="395.0" y="10.0" type="line" smooth="yes"/>
      <point x="395.0" y="3.00000340408"/>
      <point x="392.0" y="-8.57252759403e-16"/>
      <point x="385.0" y="0.0" type="curve" smooth="yes"/>
      <point x="215.0" y="0.0" type="line" smooth="yes"/>
      <point x="208.0" y="0.0"/>
      <point x="205.0" y="3.0"/>
      <point x="205.0" y="10.0" type="curve" smooth="yes"/>
      <point x="205.0" y="1364.0" type="line" smooth="yes"/>
      <point x="205.0" y="1370.73443476"/>
      <point x="207.991595524" y="1373.8880798"/>
    </contour>
  </outline>
</glyph>
<glyph name="two" format="2">
  <advance height="1920" width="1080"/>
  <unicode hex="0032"/>
  <outline>
    <contour>
      <point x="80.0" y="60.0" type="line" smooth="yes"/>
      <point x="80.0" y="604.034179688"/>
      <point x="785.0" y="735.631835938"/>
      <point x="785.0" y="1033.0" type="curve" smooth="yes"/>
      <point x="785.0" y="1078.0" type="line" smooth="yes"/>
      <point x="785.0" y="1188.0"/>
      <point x="706.0" y="1285.0"/>
      <point x="549.0" y="1285.0" type="curve" smooth="yes"/>
      <point x="379.0" y="1285.0"/>
      <point x="285.0" y="1174.57601869"/>
      <point x="285.0" y="1002.0" type="curve" smooth="yes"/>
      <point x="285.0" y="912.0" type="line" smooth="yes"/>
      <point x="285.0" y="905.0"/>
      <point x="282.0" y="902.0"/>
      <point x="275.0" y="902.0" type="curve" smooth="yes"/>
      <point x="115.0" y="902.0" type="line" smooth="yes"/>
      <point x="108.0" y="902.0"/>
      <point x="105.0" y="905.0"/>
      <point x="105.0" y="912.0" type="curve" smooth="yes"/>
      <point x="105.0" y="1002.0" type="line" smooth="yes"/>
      <point x="105.0" y="1275.74114594"/>
      <point x="282.0" y="1435.0"/>
      <point x="559.0" y="1435.0" type="curve" smooth="yes"/>
      <point x="806.0" y="1435.0"/>
      <point x="965.0" y="1303.0"/>
      <point x="965.0" y="1073.0" type="curve" smooth="yes"/>
      <point x="965.0" y="1028.0" type="line" smooth="yes"/>
      <point x="965.0" y="632.094726562"/>
      <point x="300.0" y="501.0"/>
      <point x="300.0" y="180.0" type="curve" smooth="yes"/>
      <point x="300.0" y="170.0" type="line"/>
      <point x="990.0" y="170.0" type="line" smooth="yes"/>
      <point x="997.0" y="170.0"/>
      <point x="1000.0" y="167.0"/>
      <point x="1000.0" y="160.0" type="curve" smooth="yes"/>
      <point x="1000.0" y="10.0" type="line" smooth="yes"/>
      <point x="1000.0" y="3.00040172166"/>
      <point x="997.0" y="-8.57252759403e-16"/>
      <point x="990.0" y="0.0" type="curve" smooth="yes"/>
      <point x="90.0" y="0.0" type="line" smooth="yes"/>
      <point x="83.0" y="0.0"/>
      <point x="80.0" y="3.0"/>
      <point x="80.0" y="10.0" type="curve" smooth="yes"/>
    </contour>
  </outline>
</glyph>
<glyph name="three" format="2">
  <advance height="1920" width="1100"/>
  <unicode hex="0033"/>
  <outline>
    <contour>
      <point x="90.0" y="407.0" type="curve" smooth="yes"/>
      <point x="260.0" y="407.0" type="line" smooth="yes"/>
      <point x="267.0" y="407.0"/>
      <point x="270.0" y="404.0"/>
      <point x="270.0" y="397.0" type="curve" smooth="yes"/>
      <point x="270.0" y="327.0" type="line" smooth="yes"/>
      <point x="270.0" y="207.036515383"/>
      <point x="381.0" y="115.0"/>
      <point x="540.0" y="115.0" type="curve" smooth="yes"/>
      <point x="707.0" y="115.0"/>
      <point x="825.0" y="222.0"/>
      <point x="825.0" y="352.0" type="curve" smooth="yes"/>
      <point x="825.0" y="447.0" type="line" smooth="yes"/>
      <point x="825.0" y="577.0"/>
      <point x="706.918702172" y="660.0"/>
      <point x="530.0" y="660.0" type="curve" smooth="yes"/>
      <point x="450.0" y="660.0" type="line" smooth="yes"/>
      <point x="443.0" y="660.0"/>
      <point x="440.0" y="663.0"/>
      <point x="440.0" y="670.0" type="curve" smooth="yes"/>
      <point x="440.0" y="800.0" type="line" smooth="yes"/>
      <point x="440.0" y="807.0"/>
      <point x="443.0" y="810.0"/>
      <point x="450.0" y="810.0" type="curve" smooth="yes"/>
      <point x="510.0" y="810.0" type="line" smooth="yes"/>
      <point x="676.886089058" y="810.0"/>
      <point x="770.0" y="903.0"/>
      <point x="770.0" y="1023.0" type="curve" smooth="yes"/>
      <point x="770.0" y="1088.0" type="line" smooth="yes"/>
      <point x="770.0" y="1198.0"/>
      <point x="706.0" y="1285.0"/>
      <point x="539.0" y="1285.0" type="curve" smooth="yes"/>
      <point x="389.0" y="1285.0"/>
      <point x="295.0" y="1184.8148849"/>
      <point x="295.0" y="1052.0" type="curve" smooth="yes"/>
      <point x="295.0" y="962.0" type="line" smooth="yes"/>
      <point x="295.0" y="955.0"/>
      <point x="292.0" y="952.0"/>
      <point x="285.0" y="952.0" type="curve" smooth="yes"/>
      <point x="125.0" y="952.0" type="line" smooth="yes"/>
      <point x="118.0" y="952.0"/>
      <point x="115.0" y="955.0"/>
      <point x="115.0" y="962.0" type="curve" smooth="yes"/>
      <point x="115.0" y="1052.0" type="line" smooth="yes"/>
      <point x="115.0" y="1286.0"/>
      <point x="297.0" y="1435.0"/>
      <point x="544.0" y="1435.0" type="curve" smooth="yes"/>
      <point x="791.0" y="1435.0"/>
      <point x="965.0" y="1313.0"/>
      <point x="965.0" y="1083.0" type="curve" smooth="yes"/>
      <point x="965.0" y="1058.0" type="line" smooth="yes"/>
      <point x="965.0" y="808.0"/>
      <point x="767.0" y="720.0"/>
      <point x="510.0" y="720.0" type="curve"/>
      <point x="530.0" y="770.0" type="line"/>
      <point x="787.0" y="770.0"/>
      <point x="1015.0" y="672.0"/>
      <point x="1015.0" y="422.0" type="curve" smooth="yes"/>
      <point x="1015.0" y="347.0" type="line" smooth="yes"/>
      <point x="1015.0" y="107.0"/>
      <point x="827.0" y="-35.0"/>
      <point x="530.0" y="-35.0" type="curve" smooth="yes"/>
      <point x="278.0" y="-35.0"/>
      <point x="80.0" y="99.0"/>
      <point x="80.0" y="327.0" type="curve" smooth="yes"/>
      <point x="80.0" y="397.0" type="line" smooth="yes"/>
      <point x="80.0" y="404.0"/>
      <point x="83.0" y="407.0"/>
    </contour>
  </outline>
</glyph>
<glyph name="four" format="2">
  <advance height="1920" width="1045"/>
  <unicode hex="0034"/>
  <outline>
    <contour>
      <point x="1010.0" y="470.0" type="curve" smooth="yes"/>
      <point x="1010.0" y="340.0" type="line" smooth="yes"/>
      <point x="1010.0" y="333.0"/>
      <point x="1007.0" y="330.0"/>
      <point x="1000.0" y="330.0" type="curve" smooth="yes"/>
      <point x="820.0" y="330.0" type="line"/>
      <point x="820.0" y="10.0" type="line" smooth="yes"/>
      <point x="820.0" y="3.0"/>
      <point x="817.0" y="-8.57252759403e-16"/>
      <point x="810.0" y="0.0" type="curve" smooth="yes"/>
      <point x="640.0" y="0.0" type="line" smooth="yes"/>
      <point x="633.0" y="0.0"/>
      <point x="630.0" y="3.0"/>
      <point x="630.0" y="10.0" type="curve" smooth="yes"/>
      <point x="630.0" y="330.0" type="line"/>
      <point x="60.0" y="330.0" type="line" smooth="yes"/>
      <point x="53.0" y="330.0"/>
      <point x="50.0" y="333.0"/>
      <point x="50.0" y="340.0" type="curve" smooth="yes"/>
      <point x="50.0" y="490.0" type="line" smooth="yes"/>
      <point x="50.0" y="497.0"/>
      <point x="51.6258638803" y="502.679195379"/>
      <point x="57.0" y="510.0" type="curve" smooth="yes"/>
      <point x="703.0" y="1390.0" type="line" smooth="yes"/>
      <point x="706.839927636" y="1395.16007236"/>
      <point x="712.507874123" y="1400.0"/>
      <point x="720.0" y="1400.0" type="curve" smooth="yes"/>
      <point x="810.0" y="1400.0" type="line" smooth="yes"/>
      <point x="817.0" y="1400.0"/>
      <point x="820.0" y="1397.0"/>
      <point x="820.0" y="1390.0" type="curve" smooth="yes"/>
      <point x="820.0" y="480.0" type="line"/>
      <point x="1000.0" y="480.0" type="line" smooth="yes"/>
      <point x="1007.0" y="480.0"/>
      <point x="1010.0" y="477.0"/>
    </contour>
    <contour>
      <point x="640.0" y="480.0" type="line"/>
      <point x="640.0" y="1060.83300781" type="line"/>
      <point x="205.0" y="480.0" type="line"/>
    </contour>
  </outline>
</glyph>
<glyph name="five" format="2">
  <advance height="1920" width="1100"/>
  <unicode hex="0035"/>
  <outline>
    <contour>
      <point x="120.0" y="368.0" type="curve" smooth="yes"/>
      <point x="270.0" y="368.0" type="line" smooth="yes"/>
      <point x="276.907396135" y="368.0"/>
      <point x="280.134673921" y="365.023536005"/>
      <point x="280.643589146" y="359.00001182" type="curve" smooth="yes"/>
      <point x="293.910084797" y="201.977676061"/>
      <point x="387.780728992" y="105.0"/>
      <point x="535.0" y="105.0" type="curve" smooth="yes"/>
      <point x="684.0" y="105.0"/>
      <point x="810.0" y="205.0"/>
      <point x="810.0" y="398.0" type="curve" smooth="yes"/>
      <point x="810.0" y="523.0" type="line" smooth="yes"/>
      <point x="810.0" y="723.0"/>
      <point x="699.0" y="805.0"/>
      <point x="565.0" y="805.0" type="curve" smooth="yes"/>
      <point x="478.910310807" y="805.0"/>
      <point x="384.405028825" y="764.098695051"/>
      <point x="326.0" y="663.57421875" type="curve" smooth="yes"/>
      <point x="321.069906079" y="655.088731807"/>
      <point x="316.759862432" y="653.0"/>
      <point x="310.0" y="653.0" type="curve" smooth="yes"/>
      <point x="140.0" y="653.0" type="line" smooth="yes"/>
      <point x="133.0" y="653.0"/>
      <point x="129.782208459" y="654.877665595"/>
      <point x="131.0" y="663.0" type="curve" smooth="yes"/>
      <point x="240.0" y="1390.0" type="line" smooth="yes"/>
      <point x="241.026367188" y="1396.84570312"/>
      <point x="244.0" y="1400.0"/>
      <point x="251.0" y="1400.0" type="curve" smooth="yes"/>
      <point x="931.0" y="1400.0" type="line" smooth="yes"/>
      <point x="938.0" y="1400.0"/>
      <point x="941.0" y="1397.0"/>
      <point x="941.0" y="1390.0" type="curve" smooth="yes"/>
      <point x="941.0" y="1325.0" type="line" smooth="yes"/>
      <point x="941.0" y="1255.0"/>
      <point x="911.0" y="1250.0"/>
      <point x="741.0" y="1250.0" type="curve" smooth="yes"/>
      <point x="386.0" y="1250.0" type="line"/>
      <point x="292.328125" y="745.357421875" type="line"/>
      <point x="269.328125" y="745.357421875" type="line"/>
      <point x="323.97265625" y="868.810546875"/>
      <point x="449.609099591" y="955.0"/>
      <point x="610.0" y="955.0" type="curve" smooth="yes"/>
      <point x="810.0" y="955.0"/>
      <point x="1000.0" y="790.0"/>
      <point x="1000.0" y="493.0" type="curve" smooth="yes"/>
      <point x="1000.0" y="428.0" type="line" smooth="yes"/>
      <point x="1000.0" y="131.0"/>
      <point x="805.0" y="-35.0"/>
      <point x="535.0" y="-35.0" type="curve" smooth="yes"/>
      <point x="301.010559942" y="-35.0"/>
      <point x="126.269481101" y="101.001357694"/>
      <point x="110.536478604" y="357.999933597" type="curve" smooth="yes"/>
      <point x="110.10707744" y="365.014201068"/>
      <point x="112.917282461" y="368.0"/>
    </contour>
  </outline>
</glyph>
<glyph name="six" format="2">
  <advance height="1920" width="1229"/>
  <unicode hex="0036"/>
  <outline>
    <contour>
      <point x="630.0" y="740.0" type="curve" smooth="yes"/>
      <point x="480.0" y="740.0"/>
      <point x="310.0" y="675.0"/>
      <point x="310.0" y="492.0" type="curve" smooth="yes"/>
      <point x="310.0" y="422.0" type="line"/>
      <point x="250.0" y="522.0" type="line"/>
      <point x="250.0" y="786.0"/>
      <point x="463.0" y="890.0"/>
      <point x="670.0" y="890.0" type="curve" smooth="yes"/>
      <point x="927.0" y="890.0"/>
      <point x="1119.0" y="731.0"/>
      <point x="1119.0" y="457.0" type="curve" smooth="yes"/>
      <point x="1119.0" y="407.0" type="line" smooth="yes"/>
      <point x="1119.0" y="129.0"/>
      <point x="921.0" y="-35.0"/>
      <point x="629.0" y="-35.0" type="curve" smooth="yes"/>
      <point x="252.0" y="-35.0"/>
      <point x="125.0" y="167.0"/>
      <point x="125.0" y="527.0" type="curve" smooth="yes"/>
      <point x="125.0" y="843.0" type="line" smooth="yes"/>
      <point x="125.0" y="1223.0"/>
      <point x="293.0" y="1435.0"/>
      <point x="620.0" y="1435.0" type="curve" smooth="yes"/>
      <point x="917.0" y="1435.0"/>
      <point x="1064.0" y="1265.83454422"/>
      <point x="1064.0" y="1082.0" type="curve" smooth="yes"/>
      <point x="1064.0" y="1052.0" type="line" smooth="yes"/>
      <point x="1064.0" y="1045.0"/>
      <point x="1061.0" y="1042.0"/>
      <point x="1054.0" y="1042.0" type="curve" smooth="yes"/>
      <point x="904.0" y="1042.0" type="line" smooth="yes"/>
      <point x="897.000287628" y="1042.0"/>
      <point x="894.0" y="1045.0"/>
      <point x="894.0" y="1052.0" type="curve" smooth="yes"/>
      <point x="894.0" y="1082.0" type="line" smooth="yes"/>
      <point x="894.0" y="1164.91094707"/>
      <point x="820.0" y="1285.0"/>
      <point x="640.0" y="1285.0" type="curve" smooth="yes"/>
      <point x="413.0" y="1285.0"/>
      <point x="310.0" y="1138.0"/>
      <point x="310.0" y="838.0" type="curve" smooth="yes"/>
      <point x="310.0" y="422.0" type="line" smooth="yes"/>
      <point x="310.0" y="232.0"/>
      <point x="432.0" y="115.0"/>
      <point x="619.0" y="115.0" type="curve" smooth="yes"/>
      <point x="818.0" y="115.0"/>
      <point x="929.0" y="237.0"/>
      <point x="929.0" y="417.0" type="curve" smooth="yes"/>
      <point x="929.0" y="457.0" type="line" smooth="yes"/>
      <point x="929.0" y="640.0"/>
      <point x="820.0" y="740.0"/>
    </contour>
  </outline>
</glyph>
<glyph name="seven" format="2">
  <advance height="1920" width="1015"/>
  <unicode hex="0037"/>
  <outline>
    <contour>
      <point x="1011.0" y="1390.0" type="curve" smooth="yes"/>
      <point x="439.0" y="10.0" type="line" smooth="yes"/>
      <point x="435.937486557" y="2.61141861566"/>
      <point x="432.496560701" y="-9.18063906666e-16"/>
      <point x="425.0" y="0.0" type="curve" smooth="yes"/>
      <point x="235.0" y="0.0" type="line" smooth="yes"/>
      <point x="228.0" y="0.0"/>
      <point x="225.935652204" y="3.2209572149"/>
      <point x="229.0" y="10.0" type="curve" smooth="yes"/>
      <point x="785.0" y="1240.0" type="line"/>
      <point x="85.0" y="1240.0" type="line" smooth="yes"/>
      <point x="78.0" y="1240.0"/>
      <point x="75.0" y="1243.0"/>
      <point x="75.0" y="1250.0" type="curve" smooth="yes"/>
      <point x="75.0" y="1390.0" type="line" smooth="yes"/>
      <point x="75.0" y="1397.0"/>
      <point x="78.0" y="1400.0"/>
      <point x="85.0" y="1400.0" type="curve" smooth="yes"/>
      <point x="1005.0" y="1400.0" type="line" smooth="yes"/>
      <point x="1012.37170154" y="1400.0"/>
      <point x="1014.2150889" y="1396.23060494"/>
    </contour>
  </outline>
</glyph>
<glyph name="eight" format="2">
  <advance height="1920" width="1182"/>
  <unicode hex="0038"/>
  <outline>
    <contour>
      <point x="591.0" y="110.0" type="curve" smooth="yes"/>
      <point x="770.859323272" y="110.0"/>
      <point x="877.0" y="196.100129374"/>
      <point x="877.0" y="342.0" type="curve" smooth="yes"/>
      <point x="877.0" y="427.0" type="line" smooth="yes"/>
      <point x="877.0" y="574.159239402"/>
      <point x="771.689270782" y="659.927734375"/>
      <point x="591.0" y="659.927734375" type="curve" smooth="yes"/>
      <point x="410.310729218" y="659.927734375"/>
      <point x="305.0" y="574.159239402"/>
      <point x="305.0" y="427.0" type="curve" smooth="yes"/>
      <point x="305.0" y="342.0" type="line" smooth="yes"/>
      <point x="305.0" y="196.100129374"/>
      <point x="411.140676728" y="110.0"/>
    </contour>
    <contour>
      <point x="591.0" y="810.0" type="curve" smooth="yes"/>
      <point x="741.429032212" y="810.0"/>
      <point x="827.0" y="887.231424317"/>
      <point x="827.0" y="1023.0" type="curve" smooth="yes"/>
      <point x="827.0" y="1088.0" type="line" smooth="yes"/>
      <point x="827.0" y="1214.95949632"/>
      <point x="739.328916495" y="1290.0"/>
      <point x="591.0" y="1290.0" type="curve" smooth="yes"/>
      <point x="442.671083505" y="1290.0"/>
      <point x="355.0" y="1214.95949632"/>
      <point x="355.0" y="1088.0" type="curve" smooth="yes"/>
      <point x="355.0" y="1023.0" type="line" smooth="yes"/>
      <point x="355.0" y="887.231424317"/>
      <point x="440.570967788" y="810.0"/>
    </contour>
    <contour>
      <point x="622.0" y="760.0" type="line"/>
      <point x="902.075490238" y="760.0"/>
      <point x="1067.0" y="623.61298968"/>
      <point x="1067.0" y="392.0" type="curve" smooth="yes"/>
      <point x="1067.0" y="347.0" type="line" smooth="yes"/>
      <point x="1067.0" y="99.7502688302"/>
      <point x="899.091288054" y="-35.0"/>
      <point x="591.0" y="-35.0" type="curve" smooth="yes"/>
      <point x="282.908711946" y="-35.0"/>
      <point x="115.0" y="99.7502688302"/>
      <point x="115.0" y="347.0" type="curve" smooth="yes"/>
      <point x="115.0" y="392.0" type="line" smooth="yes"/>
      <point x="115.0" y="623.61298968"/>
      <point x="279.924509762" y="760.0"/>
      <point x="560.0" y="760.0" type="curve"/>
      <point x="562.0" y="720.282226562" type="line"/>
      <point x="295.816444076" y="725.766068556"/>
      <point x="165.0" y="837.048280703"/>
      <point x="165.0" y="1058.0" type="curve" smooth="yes"/>
      <point x="165.0" y="1083.0" type="line" smooth="yes"/>
      <point x="165.0" y="1304.25899984"/>
      <point x="323.226324062" y="1435.0"/>
      <point x="591.0" y="1435.0" type="curve" smooth="yes"/>
      <point x="858.773675938" y="1435.0"/>
      <point x="1017.0" y="1304.25899984"/>
      <point x="1017.0" y="1083.0" type="curve" smooth="yes"/>
      <point x="1017.0" y="1058.0" type="line" smooth="yes"/>
      <point x="1017.0" y="837.048280703"/>
      <point x="886.183555924" y="725.766068556"/>
      <point x="620.0" y="720.282226562" type="curve"/>
    </contour>
  </outline>
</glyph>
<glyph name="nine" format="2">
  <advance height="1920" width="1169"/>
  <unicode hex="0039"/>
  <outline>
    <contour>
      <point x="569.0" y="660.0" type="curve" smooth="yes"/>
      <point x="719.0" y="660.0"/>
      <point x="859.0" y="755.0"/>
      <point x="859.0" y="948.0" type="curve" smooth="yes"/>
      <point x="859.0" y="1018.0" type="line"/>
      <point x="919.0" y="918.0" type="line"/>
      <point x="919.0" y="644.0"/>
      <point x="736.0" y="510.0"/>
      <point x="529.0" y="510.0" type="curve" smooth="yes"/>
      <point x="292.0" y="510.0"/>
      <point x="110.0" y="669.0"/>
      <point x="110.0" y="943.0" type="curve" smooth="yes"/>
      <point x="110.0" y="993.0" type="line" smooth="yes"/>
      <point x="110.0" y="1271.0"/>
      <point x="298.0" y="1435.0"/>
      <point x="570.0" y="1435.0" type="curve" smooth="yes"/>
      <point x="927.0" y="1435.0"/>
      <point x="1044.0" y="1243.0"/>
      <point x="1044.0" y="913.0" type="curve" smooth="yes"/>
      <point x="1044.0" y="557.0" type="line" smooth="yes"/>
      <point x="1044.0" y="177.0"/>
      <point x="866.0" y="-35.0"/>
      <point x="559.0" y="-35.0" type="curve" smooth="yes"/>
      <point x="262.0" y="-35.0"/>
      <point x="135.0" y="134.14696646"/>
      <point x="135.0" y="318.0" type="curve" smooth="yes"/>
      <point x="135.0" y="348.0" type="line" smooth="yes"/>
      <point x="135.0" y="355.0"/>
      <point x="138.0" y="358.0"/>
      <point x="145.0" y="358.0" type="curve" smooth="yes"/>
      <point x="295.0" y="358.0" type="line" smooth="yes"/>
      <point x="302.0" y="358.0"/>
      <point x="305.0" y="355.0"/>
      <point x="305.0" y="348.0" type="curve" smooth="yes"/>
      <point x="305.0" y="318.0" type="line" smooth="yes"/>
      <point x="305.0" y="235.0"/>
      <point x="359.0" y="115.0"/>
      <point x="539.0" y="115.0" type="curve" smooth="yes"/>
      <point x="746.0" y="115.0"/>
      <point x="859.0" y="262.0"/>
      <point x="859.0" y="562.0" type="curve" smooth="yes"/>
      <point x="859.0" y="1018.0" type="line" smooth="yes"/>
      <point x="859.0" y="1168.0"/>
      <point x="747.0" y="1285.0"/>
      <point x="580.0" y="1285.0" type="curve" smooth="yes"/>
      <point x="401.0" y="1285.0"/>
      <point x="300.0" y="1163.0"/>
      <point x="300.0" y="983.0" type="curve" smooth="yes"/>
      <point x="300.0" y="943.0" type="line" smooth="yes"/>
      <point x="300.0" y="760.0"/>
      <point x="399.0" y="660.0"/>
    </contour>
  </outline>
</glyph>
<glyph name="less" format="2">
  <advance height="1920" width="1010"/>
  <unicode hex="003C"/>
  <outline>
    <contour>
      <point x="850.0" y="86.0" type="curve" smooth="yes"/>
      <point x="80.0" y="544.0" type="line" smooth="yes"/>
      <point x="72.6133475526" y="548.393619248"/>
      <point x="70.0" y="553.0"/>
      <point x="70.0" y="560.0" type="curve" smooth="yes"/>
      <point x="70.0" y="640.0" type="line" smooth="yes"/>
      <point x="70.0" y="647.0"/>
      <point x="72.6133475526" y="651.606380752"/>
      <point x="80.0" y="656.0" type="curve" smooth="yes"/>
      <point x="850.0" y="1114.0" type="line" smooth="yes"/>
      <point x="857.386652447" y="1118.39361925"/>
      <point x="860.0" y="1117.0"/>
      <point x="860.0" y="1110.0" type="curve" smooth="yes"/>
      <point x="860.0" y="950.0" type="line" smooth="yes"/>
      <point x="860.0" y="943.0"/>
      <point x="857.579152962" y="938.283453046"/>
      <point x="850.0" y="934.0" type="curve" smooth="yes"/>
      <point x="259.01953125" y="600.0" type="line"/>
      <point x="850.0" y="266.0" type="line" smooth="yes"/>
      <point x="857.579152962" y="261.716546954"/>
      <point x="860.0" y="257.0"/>
      <point x="860.0" y="250.0" type="curve" smooth="yes"/>
      <point x="860.0" y="90.0" type="line" smooth="yes"/>
      <point x="860.0" y="83.0"/>
      <point x="857.386652447" y="81.6063807521"/>
    </contour>
  </outline>
</glyph>
<glyph name="equal" format="2">
  <advance height="1920" width="1180"/>
  <unicode hex="003D"/>
  <outline>
    <contour>
      <point x="150.0" y="245.0" type="curve" smooth="yes"/>
      <point x="150.0" y="380.0" type="line" smooth="yes"/>
      <point x="150.0" y="387.0"/>
      <point x="153.0" y="390.0"/>
      <point x="160.0" y="390.0" type="curve" smooth="yes"/>
      <point x="1020.0" y="390.0" type="line" smooth="yes"/>
      <point x="1027.0" y="390.0"/>
      <point x="1030.0" y="387.0"/>
      <point x="1030.0" y="380.0" type="curve" smooth="yes"/>
      <point x="1030.0" y="245.0" type="line" smooth="yes"/>
      <point x="1030.0" y="238.0"/>
      <point x="1027.0" y="235.0"/>
      <point x="1020.0" y="235.0" type="curve" smooth="yes"/>
      <point x="160.0" y="235.0" type="line" smooth="yes"/>
      <point x="153.0" y="235.0"/>
      <point x="150.0" y="238.0"/>
    </contour>
    <contour>
      <point x="150.0" y="615.0" type="curve" smooth="yes"/>
      <point x="150.0" y="750.0" type="line" smooth="yes"/>
      <point x="150.0" y="757.0"/>
      <point x="153.0" y="760.0"/>
      <point x="160.0" y="760.0" type="curve" smooth="yes"/>
      <point x="1020.0" y="760.0" type="line" smooth="yes"/>
      <point x="1027.0" y="760.0"/>
      <point x="1030.0" y="757.0"/>
      <point x="1030.0" y="750.0" type="curve" smooth="yes"/>
      <point x="1030.0" y="615.0" type="line" smooth="yes"/>
      <point x="1030.0" y="608.0"/>
      <point x="1027.0" y="605.0"/>
      <point x="1020.0" y="605.0" type="curve" smooth="yes"/>
      <point x="160.0" y="605.0" type="line" smooth="yes"/>
      <point x="153.0" y="605.0"/>
      <point x="150.0" y="608.0"/>
    </contour>
  </outline>
</glyph>
<glyph name="greater" format="2">
  <advance height="1920" width="1010"/>
  <unicode hex="003E"/>
  <outline>
    <contour>
      <point x="160.0" y="1114.0" type="curve" smooth="yes"/>
      <point x="930.0" y="656.0" type="line" smooth="yes"/>
      <point x="937.38671875" y="651.606445312"/>
      <point x="940.0" y="647.0"/>
      <point x="940.0" y="640.0" type="curve" smooth="yes"/>
      <point x="940.0" y="560.0" type="line" smooth="yes"/>
      <point x="940.0" y="553.0"/>
      <point x="937.38671875" y="548.393554688"/>
      <point x="930.0" y="544.0" type="curve" smooth="yes"/>
      <point x="160.0" y="86.0" type="line" smooth="yes"/>
      <point x="152.61328125" y="81.6064453125"/>
      <point x="150.0" y="83.0"/>
      <point x="150.0" y="90.0" type="curve" smooth="yes"/>
      <point x="150.0" y="250.0" type="line" smooth="yes"/>
      <point x="150.0" y="257.0"/>
      <point x="152.420898438" y="261.716796875"/>
      <point x="160.0" y="266.0" type="curve" smooth="yes"/>
      <point x="750.98046875" y="600.0" type="line"/>
      <point x="160.0" y="934.0" type="line" smooth="yes"/>
      <point x="152.420898438" y="938.283203125"/>
      <point x="150.0" y="943.0"/>
      <point x="150.0" y="950.0" type="curve" smooth="yes"/>
      <point x="150.0" y="1110.0" type="line" smooth="yes"/>
      <point x="150.0" y="1117.0"/>
      <point x="152.61328125" y="1118.39355469"/>
    </contour>
  </outline>
</glyph>
<glyph name="question" format="2">
  <advance height="1920" width="1080"/>
  <unicode hex="003F"/>
  <outline>
    <contour>
      <point x="655.0" y="0.0" type="curve" smooth="yes"/>
      <point x="465.0" y="0.0" type="line" smooth="yes"/>
      <point x="458.0" y="0.0"/>
      <point x="455.0" y="3.0"/>
      <point x="455.0" y="10.0" type="curve" smooth="yes"/>
      <point x="455.0" y="200.0" type="line" smooth="yes"/>
      <point x="455.0" y="207.0"/>
      <point x="458.0" y="210.0"/>
      <point x="465.0" y="210.0" type="curve" smooth="yes"/>
      <point x="655.0" y="210.0" type="line" smooth="yes"/>
      <point x="662.0" y="210.0"/>
      <point x="665.0" y="207.0"/>
      <point x="665.0" y="200.0" type="curve" smooth="yes"/>
      <point x="665.0" y="10.0" type="line" smooth="yes"/>
      <point x="665.0" y="3.0"/>
      <point x="662.0" y="0.0"/>
    </contour>
    <contour>
      <point x="600.0" y="400.0" type="curve" smooth="yes"/>
      <point x="510.0" y="400.0" type="line" smooth="yes"/>
      <point x="502.91162141" y="400.0"/>
      <point x="499.546835977" y="402.940166433"/>
      <point x="498.740177597" y="409.0" type="curve" smooth="yes"/>
      <point x="455.886085614" y="730.931404503"/>
      <point x="805.0" y="748.144767228"/>
      <point x="805.0" y="1023.0" type="curve" smooth="yes"/>
      <point x="805.0" y="1068.0" type="line" smooth="yes"/>
      <point x="805.0" y="1228.0"/>
      <point x="736.0" y="1335.0"/>
      <point x="579.0" y="1335.0" type="curve" smooth="yes"/>
      <point x="409.0" y="1335.0"/>
      <point x="325.0" y="1224.77129372"/>
      <point x="325.0" y="1052.0" type="curve" smooth="yes"/>
      <point x="325.0" y="962.0" type="line" smooth="yes"/>
      <point x="325.0" y="955.0"/>
      <point x="322.0" y="952.0"/>
      <point x="315.0" y="952.0" type="curve" smooth="yes"/>
      <point x="155.0" y="952.0" type="line" smooth="yes"/>
      <point x="148.0" y="952.0"/>
      <point x="145.0" y="955.0"/>
      <point x="145.0" y="962.0" type="curve" smooth="yes"/>
      <point x="145.0" y="1052.0" type="line" smooth="yes"/>
      <point x="145.0" y="1316.0"/>
      <point x="312.0" y="1485.0"/>
      <point x="589.0" y="1485.0" type="curve" smooth="yes"/>
      <point x="836.0" y="1485.0"/>
      <point x="1005.0" y="1333.0"/>
      <point x="1005.0" y="1073.0" type="curve" smooth="yes"/>
      <point x="1005.0" y="1048.0" type="line" smooth="yes"/>
      <point x="1005.0" y="734.727454173"/>
      <point x="669.930949857" y="713.434529336"/>
      <point x="611.557051229" y="408.0" type="curve" smooth="yes"/>
      <point x="610.570023307" y="402.835492986"/>
      <point x="606.93028855" y="400.0"/>
    </contour>
  </outline>
</glyph>
<glyph name="at" format="2">
  <advance height="1920" width="1990"/>
  <unicode hex="0040"/>
  <outline>
    <contour>
      <point x="1265.0" y="472.0" type="line"/>
      <point x="1265.0" y="182.0"/>
      <point x="1118.0" y="40.0"/>
      <point x="921.0" y="40.0" type="curve" smooth="yes"/>
      <point x="734.0" y="40.0"/>
      <point x="565.0" y="157.0"/>
      <point x="565.0" y="497.0" type="curve" smooth="yes"/>
      <point x="565.0" y="528.0" type="line" smooth="yes"/>
      <point x="565.0" y="848.0"/>
      <point x="724.0" y="985.0"/>
      <point x="911.0" y="985.0" type="curve" smooth="yes"/>
      <point x="1118.0" y="985.0"/>
      <point x="1275.0" y="843.0"/>
      <point x="1275.0" y="553.0" type="curve"/>
      <point x="1175.0" y="533.0" type="line"/>
      <point x="1175.0" y="743.0"/>
      <point x="1098.0" y="845.0"/>
      <point x="961.0" y="845.0" type="curve" smooth="yes"/>
      <point x="834.0" y="845.0"/>
      <point x="755.0" y="763.0"/>
      <point x="755.0" y="553.0" type="curve" smooth="yes"/>
      <point x="755.0" y="472.0" type="line" smooth="yes"/>
      <point x="755.0" y="262.0"/>
      <point x="834.0" y="180.0"/>
      <point x="961.0" y="180.0" type="curve" smooth="yes"/>
      <point x="1098.0" y="180.0"/>
      <point x="1175.0" y="282.0"/>
      <point x="1175.0" y="492.0" type="curve"/>
    </contour>
    <contour>
      <point x="1332.00000472" y="-254.827238957" type="curve" smooth="yes"/>
      <point x="1264.32137181" y="-314.503652472"/>
      <point x="1144.91626673" y="-360.0"/>
      <point x="985.0" y="-360.0" type="curve" smooth="yes"/>
      <point x="428.0" y="-360.0"/>
      <point x="100.0" y="13.0"/>
      <point x="100.0" y="493.0" type="curve" smooth="yes"/>
      <point x="100.0" y="583.0" type="line" smooth="yes"/>
      <point x="100.0" y="1093.0"/>
      <point x="488.0" y="1435.0"/>
      <point x="1025.0" y="1435.0" type="curve" smooth="yes"/>
      <point x="1632.0" y="1435.0"/>
      <point x="1890.0" y="1024.0"/>
      <point x="1890.0" y="633.0" type="curve" smooth="yes"/>
      <point x="1890.0" y="543.0" type="line" smooth="yes"/>
      <point x="1890.0" y="183.0"/>
      <point x="1697.0" y="40.0"/>
      <point x="1490.0" y="40.0" type="curve" smooth="yes"/>
      <point x="1283.0" y="40.0"/>
      <point x="1175.0" y="185.0"/>
      <point x="1175.0" y="405.0" type="curve" smooth="yes"/>
      <point x="1175.0" y="775.0" type="line"/>
      <point x="1308.0" y="975.0" type="line" smooth="yes"/>
      <point x="1311.83992764" y="980.160072364"/>
      <point x="1318.0" y="985.0"/>
      <point x="1325.0" y="985.0" type="curve" smooth="yes"/>
      <point x="1355.0" y="985.0" type="line" smooth="yes"/>
      <point x="1362.0" y="985.0"/>
      <point x="1365.0" y="982.0"/>
      <point x="1365.0" y="975.0" type="curve" smooth="yes"/>
      <point x="1365.0" y="445.0" type="line" smooth="yes"/>
      <point x="1365.0" y="251.000680415"/>
      <point x="1403.0" y="180.0"/>
      <point x="1510.0" y="180.0" type="curve" smooth="yes"/>
      <point x="1607.0" y="180.0"/>
      <point x="1710.0" y="303.0"/>
      <point x="1710.0" y="543.0" type="curve" smooth="yes"/>
      <point x="1710.0" y="633.0" type="line" smooth="yes"/>
      <point x="1710.0" y="973.0"/>
      <point x="1472.0" y="1295.0"/>
      <point x="1025.0" y="1295.0" type="curve" smooth="yes"/>
      <point x="618.0" y="1295.0"/>
      <point x="290.0" y="1013.0"/>
      <point x="290.0" y="593.0" type="curve" smooth="yes"/>
      <point x="290.0" y="483.0" type="line" smooth="yes"/>
      <point x="290.0" y="103.0"/>
      <point x="548.0" y="-220.0"/>
      <point x="985.0" y="-220.0" type="curve" smooth="yes"/>
      <point x="1097.12312814" y="-220.0"/>
      <point x="1208.64729519" y="-181.401905932"/>
      <point x="1280.99999687" y="-124.412387155" type="curve" smooth="yes"/>
      <point x="1288.40396194" y="-118.580560615"/>
      <point x="1291.24150507" y="-119.775370421"/>
      <point x="1294.0" y="-127.0" type="curve" smooth="yes"/>
      <point x="1336.0" y="-237.0" type="line" smooth="yes"/>
      <point x="1338.95422969" y="-244.737268223"/>
      <point x="1338.71353661" y="-248.907504943"/>
    </contour>
  </outline>
</glyph>
<glyph name="A" format="2">
  <advance height="1920" width="1280"/>
  <unicode hex="0041"/>
  <anchor x="625.0" y="0.0" name="bottom"/>
  <anchor x="1130.0" y="0.0" name="ogonek"/>
  <anchor x="624.0" y="1400.0" name="top"/>
  <outline>
    <contour>
      <point x="310.0" y="570.0" type="line"/>
      <point x="940.0" y="570.0" type="line"/>
      <point x="940.0" y="420.0" type="line"/>
      <point x="310.0" y="420.0" type="line"/>
    </contour>
    <contour>
      <point x="624.0" y="1226.0" type="line"/>
      <point x="223.0" y="10.0" type="line" smooth="yes"/>
      <point x="221.0" y="4.0"/>
      <point x="217.0" y="0.0"/>
      <point x="210.0" y="0.0" type="curve" smooth="yes"/>
      <point x="50.0" y="0.0" type="line" smooth="yes"/>
      <point x="43.0" y="0.0"/>
      <point x="41.0" y="4.0"/>
      <point x="43.0" y="10.0" type="curve" smooth="yes"/>
      <point x="522.0" y="1390.0" type="line" smooth="yes"/>
      <point x="524.0" y="1396.0"/>
      <point x="528.0" y="1400.0"/>
      <point x="535.0" y="1400.0" type="curve" smooth="yes"/>
      <point x="735.0" y="1400.0" type="line" smooth="yes"/>
      <point x="742.0" y="1400.0"/>
      <point x="746.0" y="1396.0"/>
      <point x="748.0" y="1390.0" type="curve" smooth="yes"/>
      <point x="1237.0" y="10.0" type="line" smooth="yes"/>
      <point x="1239.0" y="4.0"/>
      <point x="1237.0" y="0.0"/>
      <point x="1230.0" y="0.0" type="curve" smooth="yes"/>
      <point x="1050.0" y="0.0" type="line" smooth="yes"/>
      <point x="1043.0" y="0.0"/>
      <point x="1039.0" y="3.0"/>
      <point x="1037.0" y="10.0" type="curve" smooth="yes"/>
    </contour>
  </outline>
</glyph>
<glyph name="B" format="2">
  <advance height="1920" width="1280"/>
  <unicode hex="0042"/>
  <anchor x="625.0" y="0.0" name="bottom"/>
  <anchor x="624.0" y="1400.0" name="top"/>
  <outline>
    <contour>
      <point x="360.0" y="790.0" type="line"/>
      <point x="690.0" y="790.0" type="line" smooth="yes"/>
      <point x="856.899867628" y="790.0"/>
      <point x="945.0" y="863.0"/>
      <point x="945.0" y="983.0" type="curve" smooth="yes"/>
      <point x="945.0" y="1068.0" type="line" smooth="yes"/>
      <point x="945.0" y="1188.0"/>
      <point x="856.993036662" y="1250.0"/>
      <point x="690.0" y="1250.0" type="curve" smooth="yes"/>
      <point x="360.0" y="1250.0" type="line"/>
    </contour>
    <contour>
      <point x="710.0" y="750.0" type="line"/>
      <point x="967.0" y="750.0"/>
      <point x="1195.0" y="652.0"/>
      <point x="1195.0" y="402.0" type="curve" smooth="yes"/>
      <point x="1195.0" y="347.0" type="line" smooth="yes"/>
      <point x="1195.0" y="67.0"/>
      <point x="966.995593524" y="-3.14728831004e-14"/>
      <point x="710.0" y="0.0" type="curve" smooth="yes"/>
      <point x="180.0" y="0.0" type="line" smooth="yes"/>
      <point x="173.0" y="0.0"/>
      <point x="170.0" y="3.0"/>
      <point x="170.0" y="10.0" type="curve" smooth="yes"/>
      <point x="170.0" y="1390.0" type="line" smooth="yes"/>
      <point x="170.0" y="1397.0"/>
      <point x="173.0" y="1400.0"/>
      <point x="180.0" y="1400.0" type="curve" smooth="yes"/>
      <point x="690.0" y="1400.0" type="line" smooth="yes"/>
      <point x="946.904990758" y="1400.0"/>
      <point x="1145.0" y="1313.0"/>
      <point x="1145.0" y="1063.0" type="curve" smooth="yes"/>
      <point x="1145.0" y="1038.0" type="line" smooth="yes"/>
      <point x="1145.0" y="788.0"/>
      <point x="947.0" y="700.0"/>
      <point x="690.0" y="700.0" type="curve"/>
    </contour>
    <contour>
      <point x="710.0" y="640.0" type="curve" smooth="yes"/>
      <point x="360.0" y="640.0" type="line"/>
      <point x="360.0" y="150.0" type="line"/>
      <point x="710.0" y="150.0" type="line" smooth="yes"/>
      <point x="886.899337397" y="150.0"/>
      <point x="995.0" y="222.0"/>
      <point x="995.0" y="342.0" type="curve" smooth="yes"/>
      <point x="995.0" y="437.0" type="line" smooth="yes"/>
      <point x="995.0" y="557.0"/>
      <point x="887.0" y="640.0"/>
    </contour>
  </outline>
</glyph>
<glyph name="C" format="2">
  <advance height="1920" width="1385"/>
  <unicode hex="0043"/>
  <anchor x="685.0" y="0.0" name="bottom"/>
  <anchor x="704.0" y="1400.0" name="top"/>
  <outline>
    <contour>
      <point x="1270.0" y="498.0" type="curve" smooth="yes"/>
      <point x="1265.0" y="433.0"/>
      <point x="1252.0" y="372.0"/>
      <point x="1231.0" y="314.0" type="curve" smooth="yes"/>
      <point x="1157.0" y="111.0"/>
      <point x="981.0" y="-35.0"/>
      <point x="695.0" y="-35.0" type="curve" smooth="yes"/>
      <point x="308.0" y="-35.0"/>
      <point x="100.0" y="238.0"/>
      <point x="100.0" y="618.0" type="curve" smooth="yes"/>
      <point x="100.0" y="783.0" type="line" smooth="yes"/>
      <point x="100.0" y="1163.0"/>
      <point x="308.0" y="1435.0"/>
      <point x="695.0" y="1435.0" type="curve" smooth="yes"/>
      <point x="975.0" y="1435.0"/>
      <point x="1140.0" y="1307.0"/>
      <point x="1206.0" y="1138.0" type="curve" smooth="yes"/>
      <point x="1226.0" y="1086.0"/>
      <point x="1238.0" y="1030.0"/>
      <point x="1240.0" y="973.0" type="curve" smooth="yes"/>
      <point x="1240.0" y="964.0"/>
      <point x="1237.0" y="963.0"/>
      <point x="1230.0" y="963.0" type="curve" smooth="yes"/>
      <point x="1081.0" y="963.0" type="line" smooth="yes"/>
      <point x="1074.0" y="963.0"/>
      <point x="1070.0" y="964.0"/>
      <point x="1070.0" y="973.0" type="curve" smooth="yes"/>
      <point x="1068.0" y="1159.0"/>
      <point x="922.0" y="1295.0"/>
      <point x="705.0" y="1295.0" type="curve" smooth="yes"/>
      <point x="448.0" y="1295.0"/>
      <point x="300.0" y="1063.0"/>
      <point x="300.0" y="793.0" type="curve" smooth="yes"/>
      <point x="300.0" y="608.0" type="line" smooth="yes"/>
      <point x="300.0" y="338.0"/>
      <point x="428.0" y="105.0"/>
      <point x="705.0" y="105.0" type="curve" smooth="yes"/>
      <point x="942.0" y="105.0"/>
      <point x="1103.0" y="285.0"/>
      <point x="1100.0" y="498.0" type="curve" smooth="yes"/>
      <point x="1100.0" y="507.0"/>
      <point x="1103.0" y="508.0"/>
      <point x="1110.0" y="508.0" type="curve" smooth="yes"/>
      <point x="1260.0" y="508.0" type="line" smooth="yes"/>
      <point x="1267.0" y="508.0"/>
      <point x="1271.0" y="507.0"/>
    </contour>
  </outline>
</glyph>
<glyph name="D" format="2">
  <advance height="1920" width="1380"/>
  <unicode hex="0044"/>
  <anchor x="625.0" y="0.0" name="bottom"/>
  <anchor x="654.0" y="1400.0" name="top"/>
  <outline>
    <contour>
      <point x="705.0" y="0.0" type="curve" smooth="yes"/>
      <point x="180.0" y="0.0" type="line" smooth="yes"/>
      <point x="173.0" y="0.0"/>
      <point x="170.0" y="3.0"/>
      <point x="170.0" y="10.0" type="curve" smooth="yes"/>
      <point x="170.0" y="1390.0" type="line" smooth="yes"/>
      <point x="170.0" y="1397.0"/>
      <point x="173.0" y="1400.0"/>
      <point x="180.0" y="1400.0" type="curve" smooth="yes"/>
      <point x="705.0" y="1400.0" type="line" smooth="yes"/>
      <point x="1018.99854155" y="1400.0"/>
      <point x="1280.0" y="1168.79492188"/>
      <point x="1280.0" y="783.0" type="curve" smooth="yes"/>
      <point x="1280.0" y="618.0" type="line" smooth="yes"/>
      <point x="1280.0" y="231.891601562"/>
      <point x="1059.19954713" y="-4.33769341658e-14"/>
    </contour>
    <contour>
      <point x="665.0" y="150.0" type="line" smooth="yes"/>
      <point x="919.389464401" y="150.0"/>
      <point x="1080.0" y="309.787109375"/>
      <point x="1080.0" y="608.0" type="curve" smooth="yes"/>
      <point x="1080.0" y="793.0" type="line" smooth="yes"/>
      <point x="1080.0" y="1090.875"/>
      <point x="919.003861852" y="1250.0"/>
      <point x="665.0" y="1250.0" type="curve" smooth="yes"/>
      <point x="360.0" y="1250.0" type="line"/>
      <point x="360.0" y="150.0" type="line"/>
    </contour>
  </outline>
</glyph>
<glyph name="E" format="2">
  <advance height="1920" width="1280"/>
  <unicode hex="0045"/>
  <anchor x="685.0" y="0.0" name="bottom"/>
  <anchor x="1100.0" y="0.0" name="ogonek"/>
  <anchor x="684.0" y="1400.0" name="top"/>
  <outline>
    <contour>
      <point x="360.0" y="790.0" type="line"/>
      <point x="900.0" y="790.0" type="line" smooth="yes"/>
      <point x="907.0" y="790.0"/>
      <point x="910.0" y="787.0"/>
      <point x="910.0" y="780.0" type="curve" smooth="yes"/>
      <point x="910.0" y="650.0" type="line" smooth="yes"/>
      <point x="910.0" y="643.0"/>
      <point x="907.0" y="640.0"/>
      <point x="900.0" y="640.0" type="curve" smooth="yes"/>
      <point x="360.0" y="640.0" type="line"/>
      <point x="360.0" y="150.0" type="line"/>
      <point x="1170.0" y="150.0" type="line" smooth="yes"/>
      <point x="1177.0" y="150.0"/>
      <point x="1180.0" y="147.0"/>
      <point x="1180.0" y="140.0" type="curve" smooth="yes"/>
      <point x="1180.0" y="10.0" type="line" smooth="yes"/>
      <point x="1180.0" y="3.0"/>
      <point x="1177.0" y="-8.57252759403e-16"/>
      <point x="1170.0" y="0.0" type="curve" smooth="yes"/>
      <point x="180.0" y="0.0" type="line" smooth="yes"/>
      <point x="173.0" y="0.0"/>
      <point x="170.0" y="3.0"/>
      <point x="170.0" y="10.0" type="curve" smooth="yes"/>
      <point x="170.0" y="1390.0" type="line" smooth="yes"/>
      <point x="170.0" y="1397.0"/>
      <point x="173.0" y="1400.0"/>
      <point x="180.0" y="1400.0" type="curve" smooth="yes"/>
      <point x="1150.0" y="1400.0" type="line" smooth="yes"/>
      <point x="1157.0" y="1400.0"/>
      <point x="1160.0" y="1397.0"/>
      <point x="1160.0" y="1390.0" type="curve" smooth="yes"/>
      <point x="1160.0" y="1260.0" type="line" smooth="yes"/>
      <point x="1160.0" y="1253.0"/>
      <point x="1156.99927193" y="1250.0"/>
      <point x="1150.0" y="1250.0" type="curve" smooth="yes"/>
      <point x="360.0" y="1250.0" type="line"/>
    </contour>
  </outline>
</glyph>
<glyph name="F" format="2">
  <advance height="1920" width="1170"/>
  <unicode hex="0046"/>
  <anchor x="645.0" y="0.0" name="bottom"/>
  <anchor x="644.0" y="1400.0" name="top"/>
  <outline>
    <contour>
      <point x="360.0" y="790.0" type="line"/>
      <point x="810.0" y="790.0" type="line" smooth="yes"/>
      <point x="818.518456742" y="790.0"/>
      <point x="820.0" y="788.595344111"/>
      <point x="820.0" y="780.0" type="curve" smooth="yes"/>
      <point x="820.0" y="650.0" type="line" smooth="yes"/>
      <point x="820.0" y="641.479270153"/>
      <point x="818.595344111" y="640.0"/>
      <point x="810.0" y="640.0" type="curve" smooth="yes"/>
      <point x="360.0" y="640.0" type="line"/>
      <point x="360.0" y="10.0" type="line" smooth="yes"/>
      <point x="360.0" y="1.47927015262"/>
      <point x="358.595344111" y="0.0"/>
      <point x="350.0" y="0.0" type="curve" smooth="yes"/>
      <point x="180.0" y="0.0" type="line" smooth="yes"/>
      <point x="171.479270153" y="0.0"/>
      <point x="170.0" y="1.40465588873"/>
      <point x="170.0" y="10.0" type="curve" smooth="yes"/>
      <point x="170.0" y="1390.0" type="line" smooth="yes"/>
      <point x="170.0" y="1397.0"/>
      <point x="173.0" y="1400.0"/>
      <point x="180.0" y="1400.0" type="curve" smooth="yes"/>
      <point x="1100.0" y="1400.0" type="line" smooth="yes"/>
      <point x="1107.0" y="1400.0"/>
      <point x="1110.0" y="1397.0"/>
      <point x="1110.0" y="1390.0" type="curve" smooth="yes"/>
      <point x="1110.0" y="1260.0" type="line" smooth="yes"/>
      <point x="1110.0" y="1253.0"/>
      <point x="1106.99924573" y="1250.0945844"/>
      <point x="1100.0" y="1250.0" type="curve" smooth="yes"/>
      <point x="360.0" y="1250.0" type="line"/>
    </contour>
  </outline>
</glyph>
<glyph name="G" format="2">
  <advance height="1920" width="1385"/>
  <unicode hex="0047"/>
  <anchor x="695.0" y="0.0" name="bottom"/>
  <anchor x="694.0" y="1400.0" name="top"/>
  <outline>
    <contour>
      <point x="750.0" y="575.0" type="curve" smooth="yes"/>
      <point x="750.0" y="700.0" type="line" smooth="yes"/>
      <point x="750.0" y="707.0"/>
      <point x="753.0" y="710.0"/>
      <point x="760.0" y="710.0" type="curve" smooth="yes"/>
      <point x="1260.0" y="710.0" type="line" smooth="yes"/>
      <point x="1267.0" y="710.0"/>
      <point x="1270.0" y="707.0"/>
      <point x="1270.0" y="700.0" type="curve" smooth="yes"/>
      <point x="1270.0" y="10.0" type="line" smooth="yes"/>
      <point x="1270.0" y="3.0"/>
      <point x="1267.0" y="0.0"/>
      <point x="1260.0" y="0.0" type="curve" smooth="yes"/>
      <point x="1170.0" y="0.0" type="line" smooth="yes"/>
      <point x="1163.0" y="0.0"/>
      <point x="1160.0" y="3.0"/>
      <point x="1158.0" y="10.0" type="curve" smooth="yes"/>
      <point x="1080.0" y="320.0" type="line"/>
      <point x="1170.0" y="620.0" type="line"/>
      <point x="1150.0" y="230.0"/>
      <point x="1002.0" y="-35.0"/>
      <point x="675.0" y="-35.0" type="curve" smooth="yes"/>
      <point x="298.0" y="-35.0"/>
      <point x="100.0" y="238.0"/>
      <point x="100.0" y="618.0" type="curve" smooth="yes"/>
      <point x="100.0" y="783.0" type="line" smooth="yes"/>
      <point x="100.0" y="1163.0"/>
      <point x="308.0" y="1435.0"/>
      <point x="695.0" y="1435.0" type="curve" smooth="yes"/>
      <point x="957.0" y="1435.0"/>
      <point x="1117.0" y="1320.0"/>
      <point x="1191.0" y="1168.0" type="curve" smooth="yes"/>
      <point x="1221.0" y="1107.0"/>
      <point x="1237.0" y="1041.0"/>
      <point x="1240.0" y="973.0" type="curve" smooth="yes"/>
      <point x="1240.0" y="964.0"/>
      <point x="1237.0" y="963.0"/>
      <point x="1230.0" y="963.0" type="curve" smooth="yes"/>
      <point x="1090.0" y="963.0" type="line" smooth="yes"/>
      <point x="1083.0" y="963.0"/>
      <point x="1080.0" y="964.0"/>
      <point x="1080.0" y="973.0" type="curve" smooth="yes"/>
      <point x="1071.0" y="1160.0"/>
      <point x="922.0" y="1295.0"/>
      <point x="705.0" y="1295.0" type="curve" smooth="yes"/>
      <point x="448.0" y="1295.0"/>
      <point x="300.0" y="1063.0"/>
      <point x="300.0" y="793.0" type="curve" smooth="yes"/>
      <point x="300.0" y="608.0" type="line" smooth="yes"/>
      <point x="300.0" y="338.0"/>
      <point x="438.0" y="105.0"/>
      <point x="715.0" y="105.0" type="curve" smooth="yes"/>
      <point x="931.0" y="105.0"/>
      <point x="1081.0" y="272.0"/>
      <point x="1106.0" y="615.0" type="curve"/>
      <point x="1118.0" y="565.0" type="line"/>
      <point x="760.0" y="565.0" type="line" smooth="yes"/>
      <point x="753.0" y="565.0"/>
      <point x="750.0" y="568.0"/>
    </contour>
  </outline>
</glyph>
<glyph name="H" format="2">
  <advance height="1920" width="1380"/>
  <unicode hex="0048"/>
  <anchor x="655.0" y="0.0" name="bottom"/>
  <anchor x="654.0" y="1400.0" name="top"/>
  <outline>
    <contour>
      <point x="1050.0" y="1400.0" type="curve" smooth="yes"/>
      <point x="1220.0" y="1400.0" type="line" smooth="yes"/>
      <point x="1227.0" y="1400.0"/>
      <point x="1230.0" y="1397.0"/>
      <point x="1230.0" y="1390.0" type="curve" smooth="yes"/>
      <point x="1230.0" y="10.0" type="line" smooth="yes"/>
      <point x="1230.0" y="3.0"/>
      <point x="1227.0" y="-8.57252759403e-16"/>
      <point x="1220.0" y="0.0" type="curve" smooth="yes"/>
      <point x="1050.0" y="0.0" type="line" smooth="yes"/>
      <point x="1043.0" y="0.0"/>
      <point x="1040.0" y="3.0"/>
      <point x="1040.0" y="10.0" type="curve" smooth="yes"/>
      <point x="1040.0" y="640.0" type="line"/>
      <point x="340.0" y="640.0" type="line"/>
      <point x="340.0" y="10.0" type="line" smooth="yes"/>
      <point x="340.0" y="3.0"/>
      <point x="337.0" y="-8.57252759403e-16"/>
      <point x="330.0" y="0.0" type="curve" smooth="yes"/>
      <point x="160.0" y="0.0" type="line" smooth="yes"/>
      <point x="153.0" y="0.0"/>
      <point x="150.0" y="3.0"/>
      <point x="150.0" y="10.0" type="curve" smooth="yes"/>
      <point x="150.0" y="1390.0" type="line" smooth="yes"/>
      <point x="150.0" y="1397.0"/>
      <point x="153.0" y="1400.0"/>
      <point x="160.0" y="1400.0" type="curve" smooth="yes"/>
      <point x="330.0" y="1400.0" type="line" smooth="yes"/>
      <point x="337.0" y="1400.0"/>
      <point x="340.0" y="1397.0"/>
      <point x="340.0" y="1390.0" type="curve" smooth="yes"/>
      <point x="340.0" y="790.0" type="line"/>
      <point x="1040.0" y="790.0" type="line"/>
      <point x="1040.0" y="1390.0" type="line" smooth="yes"/>
      <point x="1040.0" y="1397.0"/>
      <point x="1043.0" y="1400.0"/>
    </contour>
  </outline>
</glyph>
<glyph name="I" format="2">
  <advance height="1920" width="550"/>
  <unicode hex="0049"/>
  <anchor x="280.0" y="0.0" name="bottom"/>
  <anchor x="280.0" y="0.0" name="ogonek"/>
  <anchor x="279.0" y="1400.0" name="top"/>
  <outline>
    <contour>
      <point x="190.0" y="1400.0" type="curve" smooth="yes"/>
      <point x="360.0" y="1400.0" type="line" smooth="yes"/>
      <point x="367.0" y="1400.0"/>
      <point x="370.0" y="1397.0"/>
      <point x="370.0" y="1390.0" type="curve" smooth="yes"/>
      <point x="370.0" y="10.0" type="line" smooth="yes"/>
      <point x="370.0" y="3.0"/>
      <point x="367.0" y="-8.57252759403e-16"/>
      <point x="360.0" y="0.0" type="curve" smooth="yes"/>
      <point x="190.0" y="0.0" type="line" smooth="yes"/>
      <point x="183.0" y="0.0"/>
      <point x="180.0" y="3.0"/>
      <point x="180.0" y="10.0" type="curve" smooth="yes"/>
      <point x="180.0" y="1390.0" type="line" smooth="yes"/>
      <point x="180.0" y="1397.0"/>
      <point x="183.0" y="1400.0"/>
    </contour>
  </outline>
</glyph>
<glyph name="J" format="2">
  <advance height="1920" width="1161"/>
  <unicode hex="004A"/>
  <anchor x="510.0" y="0.0" name="bottom"/>
  <anchor x="909.0" y="1400.0" name="top"/>
  <outline>
    <contour>
      <point x="813.0" y="1400.0" type="curve" smooth="yes"/>
      <point x="993.0" y="1400.0" type="line" smooth="yes"/>
      <point x="1000.0" y="1400.0"/>
      <point x="1003.0" y="1397.0"/>
      <point x="1003.0" y="1390.0" type="curve" smooth="yes"/>
      <point x="1003.0" y="538.0" type="line" smooth="yes"/>
      <point x="1003.0" y="152.475712574"/>
      <point x="853.649414062" y="-35.0"/>
      <point x="508.575195312" y="-35.0" type="curve" smooth="yes"/>
      <point x="212.5703125" y="-35.0"/>
      <point x="53.0" y="154.524604158"/>
      <point x="53.0" y="478.0" type="curve" smooth="yes"/>
      <point x="53.0" y="653.0" type="line" smooth="yes"/>
      <point x="53.0" y="660.0"/>
      <point x="56.0" y="663.0"/>
      <point x="63.0" y="663.0" type="curve" smooth="yes"/>
      <point x="213.0" y="663.0" type="line" smooth="yes"/>
      <point x="220.0" y="663.0"/>
      <point x="223.0" y="660.0"/>
      <point x="223.0" y="653.0" type="curve" smooth="yes"/>
      <point x="223.0" y="488.0" type="line" smooth="yes"/>
      <point x="223.0" y="256.828125"/>
      <point x="322.043945312" y="125.0"/>
      <point x="495.811523438" y="125.0" type="curve" smooth="yes"/>
      <point x="700.5859375" y="125.0"/>
      <point x="803.0" y="248.626953125"/>
      <point x="803.0" y="508.0" type="curve" smooth="yes"/>
      <point x="803.0" y="1390.0" type="line" smooth="yes"/>
      <point x="803.0" y="1397.0"/>
      <point x="806.0" y="1400.0"/>
    </contour>
  </outline>
</glyph>
<glyph name="K" format="2">
  <advance height="1920" width="1280"/>
  <unicode hex="004B"/>
  <anchor x="625.0" y="0.0" name="bottom"/>
  <anchor x="624.0" y="1400.0" name="top"/>
  <outline>
    <contour>
      <point x="160.0" y="1400.0" type="curve" smooth="yes"/>
      <point x="330.0" y="1400.0" type="line" smooth="yes"/>
      <point x="337.0" y="1400.0"/>
      <point x="340.0" y="1397.0"/>
      <point x="340.0" y="1390.0" type="curve" smooth="yes"/>
      <point x="340.0" y="10.0" type="line" smooth="yes"/>
      <point x="340.0" y="3.0"/>
      <point x="337.0" y="0.0"/>
      <point x="330.0" y="0.0" type="curve" smooth="yes"/>
      <point x="160.0" y="0.0" type="line" smooth="yes"/>
      <point x="153.0" y="0.0"/>
      <point x="150.0" y="3.0"/>
      <point x="150.0" y="10.0" type="curve" smooth="yes"/>
      <point x="150.0" y="1390.0" type="line" smooth="yes"/>
      <point x="150.0" y="1397.0"/>
      <point x="153.0" y="1400.0"/>
    </contour>
    <contour>
      <point x="480.0" y="820.0" type="line"/>
      <point x="670.0" y="850.0" type="line"/>
      <point x="1253.0" y="10.0" type="line" smooth="yes"/>
      <point x="1258.87969075" y="1.52840441172"/>
      <point x="1257.0" y="-8.57252759403e-16"/>
      <point x="1250.0" y="0.0" type="curve" smooth="yes"/>
      <point x="1050.0" y="0.0" type="line" smooth="yes"/>
      <point x="1043.0" y="0.0"/>
      <point x="1038.48510618" y="1.96575767562"/>
      <point x="1033.0" y="10.0" type="curve" smooth="yes"/>
    </contour>
    <contour>
      <point x="1030.0" y="1390.0" type="line" smooth="yes"/>
      <point x="1035.4572043" y="1394.5427957"/>
      <point x="1040.0" y="1400.0"/>
      <point x="1050.0" y="1400.0" type="curve" smooth="yes"/>
      <point x="1234.0" y="1400.0" type="line" smooth="yes"/>
      <point x="1247.0" y="1400.0"/>
      <point x="1247.15028526" y="1397.07657098"/>
      <point x="1240.0" y="1390.0" type="curve" smooth="yes"/>
      <point x="645.0" y="801.134020619" type="line"/>
      <point x="601.0" y="757.587628866" type="line"/>
      <point x="270.0" y="430.0" type="line"/>
      <point x="210.0" y="560.0" type="line"/>
    </contour>
  </outline>
</glyph>
<glyph name="L" format="2">
  <advance height="1920" width="1067"/>
  <unicode hex="004C"/>
  <anchor x="625.0" y="0.0" name="bottom"/>
  <anchor x="264.0" y="1400.0" name="top"/>
  <outline>
    <contour>
      <point x="160.0" y="1400.0" type="curve" smooth="yes"/>
      <point x="330.0" y="1400.0" type="line" smooth="yes"/>
      <point x="337.0" y="1400.0"/>
      <point x="340.0" y="1397.0"/>
      <point x="340.0" y="1390.0" type="curve" smooth="yes"/>
      <point x="340.0" y="150.0" type="line"/>
      <point x="990.0" y="150.0" type="line" smooth="yes"/>
      <point x="997.0" y="150.0"/>
      <point x="1000.0" y="147.0"/>
      <point x="1000.0" y="140.0" type="curve" smooth="yes"/>
      <point x="1000.0" y="10.0" type="line" smooth="yes"/>
      <point x="1000.0" y="3.0"/>
      <point x="997.0" y="-8.57252759403e-16"/>
      <point x="990.0" y="0.0" type="curve" smooth="yes"/>
      <point x="160.0" y="0.0" type="line" smooth="yes"/>
      <point x="153.0" y="0.0"/>
      <point x="150.0" y="3.0"/>
      <point x="150.0" y="10.0" type="curve" smooth="yes"/>
      <point x="150.0" y="1390.0" type="line" smooth="yes"/>
      <point x="150.0" y="1397.0"/>
      <point x="153.0" y="1400.0"/>
    </contour>
  </outline>
</glyph>
<glyph name="M" format="2">
  <advance height="1920" width="1600"/>
  <unicode hex="004D"/>
  <anchor x="805.0" y="0.0" name="bottom"/>
  <anchor x="804.0" y="1400.0" name="top"/>
  <outline>
    <contour>
      <point x="300.0" y="1220.40816327" type="line"/>
      <point x="300.0" y="10.0" type="line" smooth="yes"/>
      <point x="300.0" y="3.0"/>
      <point x="297.0" y="-8.57252759403e-16"/>
      <point x="290.0" y="0.0" type="curve" smooth="yes"/>
      <point x="160.0" y="0.0" type="line" smooth="yes"/>
      <point x="153.0" y="0.0"/>
      <point x="150.0" y="3.0"/>
      <point x="150.0" y="10.0" type="curve" smooth="yes"/>
      <point x="150.0" y="1390.0" type="line" smooth="yes"/>
      <point x="150.0" y="1397.0"/>
      <point x="153.0" y="1400.0"/>
      <point x="160.0" y="1400.0" type="curve" smooth="yes"/>
      <point x="400.0" y="1400.0" type="line" smooth="yes"/>
      <point x="407.0" y="1400.0"/>
      <point x="411.177230792" y="1397.4462705"/>
      <point x="414.0" y="1390.0" type="curve" smooth="yes"/>
      <point x="820.0" y="319.0" type="line"/>
      <point x="1216.0" y="1390.0" type="line" smooth="yes"/>
      <point x="1218.63775859" y="1397.133938"/>
      <point x="1222.5034393" y="1400.0"/>
      <point x="1230.0" y="1400.0" type="curve" smooth="yes"/>
      <point x="1440.0" y="1400.0" type="line" smooth="yes"/>
      <point x="1447.0" y="1400.0"/>
      <point x="1450.0" y="1397.0"/>
      <point x="1450.0" y="1390.0" type="curve" smooth="yes"/>
      <point x="1450.0" y="10.0" type="line" smooth="yes"/>
      <point x="1450.0" y="3.0"/>
      <point x="1447.0" y="-8.57252759403e-16"/>
      <point x="1440.0" y="0.0" type="curve" smooth="yes"/>
      <point x="1290.0" y="0.0" type="line" smooth="yes"/>
      <point x="1283.0" y="0.0"/>
      <point x="1280.0" y="3.0"/>
      <point x="1280.0" y="10.0" type="curve" smooth="yes"/>
      <point x="1280.0" y="1167.34693878" type="line"/>
      <point x="844.0" y="10.0" type="line" smooth="yes"/>
      <point x="841.317827864" y="2.88026671703"/>
      <point x="837.496560701" y="-9.18063906666e-16"/>
      <point x="830.0" y="0.0" type="curve" smooth="yes"/>
      <point x="770.0" y="0.0" type="line" smooth="yes"/>
      <point x="762.571276925" y="0.0"/>
      <point x="758.682227552" y="2.88028481556"/>
      <point x="756.0" y="10.0" type="curve" smooth="yes"/>
    </contour>
  </outline>
</glyph>
<glyph name="N" format="2">
  <advance height="1920" width="1380"/>
  <unicode hex="004E"/>
  <anchor x="685.0" y="0.0" name="bottom"/>
  <anchor x="694.0" y="1400.0" name="top"/>
  <outline>
    <contour>
      <point x="1070.0" y="1400.0" type="curve" smooth="yes"/>
      <point x="1220.0" y="1400.0" type="line" smooth="yes"/>
      <point x="1227.0" y="1400.0"/>
      <point x="1230.0" y="1397.0"/>
      <point x="1230.0" y="1390.0" type="curve" smooth="yes"/>
      <point x="1230.0" y="10.0" type="line" smooth="yes"/>
      <point x="1230.0" y="3.0"/>
      <point x="1227.0" y="-8.57252759403e-16"/>
      <point x="1220.0" y="0.0" type="curve" smooth="yes"/>
      <point x="1130.0" y="0.0" type="line" smooth="yes"/>
      <point x="1123.0" y="0.0"/>
      <point x="1118.52842228" y="2.04942762964"/>
      <point x="1113.0" y="10.0" type="curve" smooth="yes"/>
      <point x="300.0" y="1179.43457031" type="line"/>
      <point x="320.0" y="1179.43457031" type="line"/>
      <point x="320.0" y="10.0" type="line" smooth="yes"/>
      <point x="320.0" y="3.0"/>
      <point x="317.0" y="-8.57252759403e-16"/>
      <point x="310.0" y="0.0" type="curve" smooth="yes"/>
      <point x="160.0" y="0.0" type="line" smooth="yes"/>
      <point x="153.0" y="0.0"/>
      <point x="150.0" y="3.0"/>
      <point x="150.0" y="10.0" type="curve" smooth="yes"/>
      <point x="150.0" y="1390.0" type="line" smooth="yes"/>
      <point x="150.0" y="1397.0"/>
      <point x="153.0" y="1400.0"/>
      <point x="160.0" y="1400.0" type="curve" smooth="yes"/>
      <point x="350.0" y="1400.0" type="line" smooth="yes"/>
      <point x="358.0" y="1400.0"/>
      <point x="361.233387097" y="1398.16413501"/>
      <point x="367.0" y="1390.0" type="curve" smooth="yes"/>
      <point x="1080.0" y="380.87890625" type="line"/>
      <point x="1060.0" y="380.87890625" type="line"/>
      <point x="1060.0" y="1390.0" type="line" smooth="yes"/>
      <point x="1060.0" y="1397.0"/>
      <point x="1063.0" y="1400.0"/>
    </contour>
  </outline>
</glyph>
<glyph name="P" format="2">
  <advance height="1920" width="1280"/>
  <unicode hex="0050"/>
  <anchor x="275.0" y="0.0" name="bottom"/>
  <anchor x="624.0" y="1400.0" name="top"/>
  <outline>
    <contour>
      <point x="360.0" y="1250.0" type="line"/>
      <point x="360.0" y="750.0" type="line"/>
      <point x="700.0" y="750.0" type="line" smooth="yes"/>
      <point x="867.0" y="750.0"/>
      <point x="975.0" y="818.0"/>
      <point x="975.0" y="938.0" type="curve" smooth="yes"/>
      <point x="975.0" y="1062.0" type="line" smooth="yes"/>
      <point x="975.0" y="1182.0"/>
      <point x="867.0" y="1250.0"/>
      <point x="700.0" y="1250.0" type="curve" smooth="yes"/>
    </contour>
    <contour>
      <point x="700.0" y="1400.0" type="line" smooth="yes"/>
      <point x="986.879430823" y="1400.0"/>
      <point x="1175.0" y="1302.0"/>
      <point x="1175.0" y="1032.0" type="curve" smooth="yes"/>
      <point x="1175.0" y="968.0" type="line" smooth="yes"/>
      <point x="1175.0" y="698.0"/>
      <point x="987.0" y="600.0"/>
      <point x="700.0" y="600.0" type="curve" smooth="yes"/>
      <point x="360.0" y="600.0" type="line"/>
      <point x="360.0" y="10.0" type="line" smooth="yes"/>
      <point x="360.0" y="3.0"/>
      <point x="357.0" y="-8.57252759403e-16"/>
      <point x="350.0" y="0.0" type="curve" smooth="yes"/>
      <point x="180.0" y="0.0" type="line" smooth="yes"/>
      <point x="173.0" y="0.0"/>
      <point x="170.0" y="3.0"/>
      <point x="170.0" y="10.0" type="curve" smooth="yes"/>
      <point x="170.0" y="1390.0" type="line" smooth="yes"/>
      <point x="170.0" y="1397.0"/>
      <point x="173.0" y="1400.0"/>
      <point x="180.0" y="1400.0" type="curve" smooth="yes"/>
    </contour>
  </outline>
</glyph>
<glyph name="Q" format="2">
  <advance height="1920" width="1600"/>
  <unicode hex="0051"/>
  <anchor x="745.0" y="0.0" name="bottom"/>
  <anchor x="744.0" y="1400.0" name="top"/>
  <outline>
    <contour>
      <point x="1525.0" y="110.0" type="curve" smooth="yes"/>
      <point x="1525.0" y="10.0" type="line" smooth="yes"/>
      <point x="1525.0" y="2.82735156409"/>
      <point x="1525.0" y="-0.172648435913"/>
      <point x="1513.53388983" y="-3.00000145609" type="curve" smooth="yes"/>
      <point x="1303.8465341" y="-54.7054333536"/>
      <point x="1190.0" y="92.794414002"/>
      <point x="1190.0" y="358.0" type="curve"/>
      <point x="1300.0" y="588.0" type="line"/>
      <point x="1300.0" y="238.0"/>
      <point x="1152.0" y="-35.0"/>
      <point x="725.0" y="-35.0" type="curve" smooth="yes"/>
      <point x="278.0" y="-35.0"/>
      <point x="140.0" y="238.0"/>
      <point x="140.0" y="588.0" type="curve" smooth="yes"/>
      <point x="140.0" y="813.0" type="line" smooth="yes"/>
      <point x="140.0" y="1163.0"/>
      <point x="288.0" y="1435.0"/>
      <point x="745.0" y="1435.0" type="curve" smooth="yes"/>
      <point x="1202.0" y="1435.0"/>
      <point x="1350.0" y="1163.0"/>
      <point x="1350.0" y="813.0" type="curve" smooth="yes"/>
      <point x="1350.0" y="328.0" type="line" smooth="yes"/>
      <point x="1350.0" y="184.238580001"/>
      <point x="1421.64679905" y="124.983640934"/>
      <point x="1512.99999642" y="120.303426442" type="curve" smooth="yes"/>
      <point x="1525.0" y="119.688641275"/>
      <point x="1525.0" y="116.688641275"/>
    </contour>
    <contour>
      <point x="1150.0" y="558.0" type="curve" smooth="yes"/>
      <point x="1150.0" y="843.0" type="line" smooth="yes"/>
      <point x="1150.0" y="1113.0"/>
      <point x="1022.0" y="1295.0"/>
      <point x="745.0" y="1295.0" type="curve" smooth="yes"/>
      <point x="468.0" y="1295.0"/>
      <point x="340.0" y="1113.0"/>
      <point x="340.0" y="843.0" type="curve" smooth="yes"/>
      <point x="340.0" y="558.0" type="line" smooth="yes"/>
      <point x="340.0" y="288.0"/>
      <point x="468.0" y="105.0"/>
      <point x="745.0" y="105.0" type="curve" smooth="yes"/>
      <point x="1022.0" y="105.0"/>
      <point x="1150.0" y="288.0"/>
    </contour>
  </outline>
</glyph>
<glyph name="R" format="2">
  <advance height="1920" width="1380"/>
  <unicode hex="0052"/>
  <anchor x="675.0" y="0.0" name="bottom"/>
  <anchor x="674.0" y="1400.0" name="top"/>
  <outline>
    <contour>
      <point x="360.0" y="1250.0" type="line"/>
      <point x="360.0" y="790.0" type="line"/>
      <point x="760.0" y="790.0" type="line" smooth="yes"/>
      <point x="927.0" y="790.0"/>
      <point x="1015.0" y="858.0"/>
      <point x="1015.0" y="978.0" type="curve" smooth="yes"/>
      <point x="1015.0" y="1062.0" type="line" smooth="yes"/>
      <point x="1015.0" y="1182.0"/>
      <point x="927.0" y="1250.0"/>
      <point x="760.0" y="1250.0" type="curve" smooth="yes"/>
    </contour>
    <contour>
      <point x="760.0" y="1400.0" type="line" smooth="yes"/>
      <point x="1016.99681367" y="1400.0"/>
      <point x="1215.0" y="1282.0"/>
      <point x="1215.0" y="1042.0" type="curve" smooth="yes"/>
      <point x="1215.0" y="1018.0" type="line" smooth="yes"/>
      <point x="1215.0" y="778.0"/>
      <point x="1017.0" y="680.0"/>
      <point x="760.0" y="680.0" type="curve"/>
      <point x="760.0" y="740.0" type="line"/>
      <point x="1017.0" y="740.0"/>
      <point x="1205.0" y="662.0"/>
      <point x="1205.0" y="422.0" type="curve" smooth="yes"/>
      <point x="1205.0" y="328.0" type="line" smooth="yes"/>
      <point x="1205.0" y="214.202180376"/>
      <point x="1236.47555773" y="129.182013533"/>
      <point x="1282.37024537" y="61.0" type="curve" smooth="yes"/>
      <point x="1290.0" y="49.6650926266"/>
      <point x="1290.0" y="46.6650390625"/>
      <point x="1290.0" y="40.0" type="curve" smooth="yes"/>
      <point x="1290.0" y="10.0" type="line" smooth="yes"/>
      <point x="1290.0" y="3.0"/>
      <point x="1287.0" y="-8.57252759403e-16"/>
      <point x="1280.0" y="0.0" type="curve" smooth="yes"/>
      <point x="1100.0" y="0.0" type="line" smooth="yes"/>
      <point x="1092.8295272" y="0.0"/>
      <point x="1089.82888226" y="0.0"/>
      <point x="1084.77695989" y="8.99999663428" type="curve" smooth="yes"/>
      <point x="1029.12302034" y="108.14745613"/>
      <point x="1015.0" y="240.670560611"/>
      <point x="1015.0" y="328.0" type="curve" smooth="yes"/>
      <point x="1015.0" y="452.0" type="line" smooth="yes"/>
      <point x="1015.0" y="572.0"/>
      <point x="927.0" y="640.0"/>
      <point x="760.0" y="640.0" type="curve" smooth="yes"/>
      <point x="360.0" y="640.0" type="line"/>
      <point x="360.0" y="10.0" type="line" smooth="yes"/>
      <point x="360.0" y="3.0"/>
      <point x="357.0" y="-8.57252759403e-16"/>
      <point x="350.0" y="0.0" type="curve" smooth="yes"/>
      <point x="180.0" y="0.0" type="line" smooth="yes"/>
      <point x="173.0" y="0.0"/>
      <point x="170.0" y="3.0"/>
      <point x="170.0" y="10.0" type="curve" smooth="yes"/>
      <point x="170.0" y="1390.0" type="line" smooth="yes"/>
      <point x="170.0" y="1397.0"/>
      <point x="173.0" y="1400.0"/>
      <point x="180.0" y="1400.0" type="curve" smooth="yes"/>
    </contour>
  </outline>
</glyph>
<glyph name="S" format="2">
  <advance height="1920" width="1280"/>
  <unicode hex="0053"/>
  <anchor x="625.0" y="0.0" name="bottom"/>
  <anchor x="624.0" y="1400.0" name="top"/>
  <outline>
    <contour>
      <point x="110.0" y="508.0" type="curve" smooth="yes"/>
      <point x="260.0" y="508.0" type="line" smooth="yes"/>
      <point x="262.7734375" y="508.0"/>
      <point x="270.0" y="507.0"/>
      <point x="270.0" y="500.0" type="curve" smooth="yes"/>
      <point x="270.0" y="467.995291462"/>
      <point x="270.890625" y="457.995117188"/>
      <point x="271.017578125" y="436.0" type="curve" smooth="yes"/>
      <point x="272.18359375" y="234.81640625"/>
      <point x="411.219947625" y="115.0"/>
      <point x="650.0" y="115.0" type="curve" smooth="yes"/>
      <point x="878.0" y="115.0"/>
      <point x="1010.0" y="187.0"/>
      <point x="1010.0" y="378.0" type="curve" smooth="yes"/>
      <point x="1010.0" y="524.442339708"/>
      <point x="842.215613164" y="553.692683903"/>
      <point x="654.012972357" y="607.719536278" type="curve" smooth="yes"/>
      <point x="416.751146391" y="675.829683887"/>
      <point x="140.0" y="727.964253121"/>
      <point x="140.0" y="1033.0" type="curve" smooth="yes"/>
      <point x="140.0" y="1273.0"/>
      <point x="313.0" y="1435.0"/>
      <point x="630.0" y="1435.0" type="curve" smooth="yes"/>
      <point x="954.0" y="1435.0"/>
      <point x="1130.0" y="1256.0"/>
      <point x="1130.0" y="1041.0" type="curve" smooth="yes"/>
      <point x="1130.0" y="971.0" type="line" smooth="yes"/>
      <point x="1130.0" y="964.0"/>
      <point x="1125.14491835" y="963.0"/>
      <point x="1120.0" y="963.0" type="curve" smooth="yes"/>
      <point x="970.0" y="963.0" type="line" smooth="yes"/>
      <point x="964.855081719" y="963.0"/>
      <point x="960.167284073" y="964.00199914"/>
      <point x="960.0" y="971.0" type="curve" smooth="yes"/>
      <point x="959.450195312" y="994.0"/>
      <point x="959.0" y="1003.96108237"/>
      <point x="959.0" y="1031.0" type="curve" smooth="yes"/>
      <point x="959.0" y="1166.0"/>
      <point x="825.0" y="1295.0"/>
      <point x="630.0" y="1295.0" type="curve" smooth="yes"/>
      <point x="453.0" y="1295.0"/>
      <point x="320.0" y="1203.0"/>
      <point x="320.0" y="1053.0" type="curve" smooth="yes"/>
      <point x="320.0" y="873.386181091"/>
      <point x="513.565983869" y="834.453944399"/>
      <point x="715.67215732" y="776.128957941" type="curve" smooth="yes"/>
      <point x="949.4080647" y="708.676077111"/>
      <point x="1200.0" y="657.079941725"/>
      <point x="1200.0" y="388.0" type="curve" smooth="yes"/>
      <point x="1200.0" y="131.0"/>
      <point x="1019.0" y="-35.0"/>
      <point x="650.0" y="-35.0" type="curve" smooth="yes"/>
      <point x="291.512695312" y="-35.0"/>
      <point x="101.0" y="152.553710938"/>
      <point x="101.0" y="389.0" type="curve" smooth="yes"/>
      <point x="101.0" y="499.0" type="line" smooth="yes"/>
      <point x="101.0" y="506.0"/>
      <point x="107.296875" y="508.0"/>
    </contour>
  </outline>
</glyph>
<glyph name="T" format="2">
  <advance height="1920" width="1170"/>
  <unicode hex="0054"/>
  <anchor x="545.0" y="0.0" name="bottom"/>
  <anchor x="584.0" y="1400.0" name="top"/>
  <outline>
    <contour>
      <point x="50.0" y="1400.0" type="curve" smooth="yes"/>
      <point x="1120.0" y="1400.0" type="line" smooth="yes"/>
      <point x="1127.0" y="1400.0"/>
      <point x="1130.0" y="1397.0"/>
      <point x="1130.0" y="1390.0" type="curve" smooth="yes"/>
      <point x="1130.0" y="1260.0" type="line" smooth="yes"/>
      <point x="1130.0" y="1253.0"/>
      <point x="1127.0" y="1250.0"/>
      <point x="1120.0" y="1250.0" type="curve" smooth="yes"/>
      <point x="680.0" y="1250.0" type="line"/>
      <point x="680.0" y="10.0" type="line" smooth="yes"/>
      <point x="680.0" y="3.0"/>
      <point x="677.0" y="-8.57252759403e-16"/>
      <point x="670.0" y="0.0" type="curve" smooth="yes"/>
      <point x="500.0" y="0.0" type="line" smooth="yes"/>
      <point x="493.0" y="0.0"/>
      <point x="490.0" y="3.0"/>
      <point x="490.0" y="10.0" type="curve" smooth="yes"/>
      <point x="490.0" y="1250.0" type="line"/>
      <point x="50.0" y="1250.0" type="line" smooth="yes"/>
      <point x="43.0" y="1250.0"/>
      <point x="40.0" y="1253.0"/>
      <point x="40.0" y="1260.0" type="curve" smooth="yes"/>
      <point x="40.0" y="1390.0" type="line" smooth="yes"/>
      <point x="40.0" y="1397.0"/>
      <point x="43.0" y="1400.0"/>
    </contour>
  </outline>
</glyph>
<glyph name="U" format="2">
  <advance height="1920" width="1389"/>
  <unicode hex="0055"/>
  <anchor x="704.931" y="0.0" name="bottom"/>
  <anchor x="799.931" y="0.0" name="ogonek"/>
  <anchor x="703.931" y="1400.0" name="top"/>
  <outline>
    <contour>
      <point x="1054.93066406" y="488.0" type="curve" smooth="yes"/>
      <point x="1054.93066406" y="1390.0" type="line" smooth="yes"/>
      <point x="1054.93066406" y="1397.0"/>
      <point x="1057.93066406" y="1400.0"/>
      <point x="1064.93066406" y="1400.0" type="curve" smooth="yes"/>
      <point x="1214.93066406" y="1400.0" type="line" smooth="yes"/>
      <point x="1221.93066406" y="1400.0"/>
      <point x="1224.93066406" y="1397.0"/>
      <point x="1224.93066406" y="1390.0" type="curve" smooth="yes"/>
      <point x="1224.93066406" y="498.0" type="line" smooth="yes"/>
      <point x="1228.47753906" y="178.043945312"/>
      <point x="1096.93066406" y="-35.0"/>
      <point x="699.930664062" y="-35.0" type="curve" smooth="yes"/>
      <point x="242.930664062" y="-35.0"/>
      <point x="164.930664062" y="208.009765625"/>
      <point x="164.930664062" y="588.0" type="curve" smooth="yes"/>
      <point x="164.930664062" y="1390.0" type="line" smooth="yes"/>
      <point x="164.930664062" y="1397.0"/>
      <point x="167.930664062" y="1400.0"/>
      <point x="174.930664062" y="1400.0" type="curve" smooth="yes"/>
      <point x="354.930664062" y="1400.0" type="line" smooth="yes"/>
      <point x="361.930664062" y="1400.0"/>
      <point x="364.930664062" y="1397.0"/>
      <point x="364.930664062" y="1390.0" type="curve" smooth="yes"/>
      <point x="364.930664062" y="558.0" type="line" smooth="yes"/>
      <point x="364.930664062" y="258.067382812"/>
      <point x="432.930664062" y="105.0"/>
      <point x="699.930664062" y="105.0" type="curve" smooth="yes"/>
      <point x="926.930664062" y="105.0"/>
      <point x="1054.93066406" y="228.01171875"/>
    </contour>
  </outline>
</glyph>
<glyph name="V" format="2">
  <advance height="1920" width="1280"/>
  <unicode hex="0056"/>
  <anchor x="655.0" y="0.0" name="bottom"/>
  <anchor x="654.0" y="1400.0" name="top"/>
  <outline>
    <contour>
      <point x="655.69140625" y="173.6171875" type="line"/>
      <point x="1057.0" y="1390.0" type="line" smooth="yes"/>
      <point x="1059.38027182" y="1397.21470155"/>
      <point x="1063.0" y="1400.0"/>
      <point x="1070.0" y="1400.0" type="curve" smooth="yes"/>
      <point x="1230.0" y="1400.0" type="line" smooth="yes"/>
      <point x="1237.0" y="1400.0"/>
      <point x="1239.47627692" y="1397.14113054"/>
      <point x="1237.0" y="1390.0" type="curve" smooth="yes"/>
      <point x="758.0" y="10.0" type="line" smooth="yes"/>
      <point x="755.30671498" y="2.24064023514"/>
      <point x="752.028689192" y="-8.60766172139e-16"/>
      <point x="745.0" y="0.0" type="curve" smooth="yes"/>
      <point x="545.0" y="0.0" type="line" smooth="yes"/>
      <point x="538.034188607" y="0.0"/>
      <point x="534.538395005" y="2.83643127359"/>
      <point x="532.0" y="10.0" type="curve" smooth="yes"/>
      <point x="43.0" y="1390.0" type="line" smooth="yes"/>
      <point x="40.4836632358" y="1397.10916281"/>
      <point x="43.0" y="1400.0"/>
      <point x="50.0" y="1400.0" type="curve" smooth="yes"/>
      <point x="230.0" y="1400.0" type="line" smooth="yes"/>
      <point x="237.0" y="1400.0"/>
      <point x="240.565959999" y="1397.17418482"/>
      <point x="243.0" y="1390.0" type="curve" smooth="yes"/>
    </contour>
  </outline>
</glyph>
<glyph name="W" format="2">
  <advance height="1920" width="1810"/>
  <unicode hex="0057"/>
  <anchor x="925.0" y="0.0" name="bottom"/>
  <anchor x="924.0" y="1400.0" name="top"/>
  <outline>
    <contour>
      <point x="529.931640625" y="210.13671875" type="line"/>
      <point x="867.0" y="1390.0" type="line" smooth="yes"/>
      <point x="868.848891571" y="1396.47180079"/>
      <point x="873.0" y="1400.0"/>
      <point x="880.0" y="1400.0" type="curve" smooth="yes"/>
      <point x="980.0" y="1400.0" type="line" smooth="yes"/>
      <point x="987.0" y="1400.0"/>
      <point x="991.230143001" y="1396.51953742"/>
      <point x="993.0" y="1390.0" type="curve" smooth="yes"/>
      <point x="1317.70800781" y="193.888671875" type="line"/>
      <point x="1607.0" y="1390.0" type="line" smooth="yes"/>
      <point x="1608.5994602" y="1396.61315388"/>
      <point x="1613.0" y="1400.0"/>
      <point x="1620.0" y="1400.0" type="curve" smooth="yes"/>
      <point x="1780.0" y="1400.0" type="line" smooth="yes"/>
      <point x="1787.0" y="1400.0"/>
      <point x="1788.74684315" y="1396.53290933"/>
      <point x="1787.0" y="1390.0" type="curve" smooth="yes"/>
      <point x="1418.0" y="10.0" type="line" smooth="yes"/>
      <point x="1416.11970238" y="2.96799262556"/>
      <point x="1412.02868919" y="-8.60766172139e-16"/>
      <point x="1405.0" y="0.0" type="curve" smooth="yes"/>
      <point x="1205.0" y="0.0" type="line" smooth="yes"/>
      <point x="1198.03418861" y="0.0"/>
      <point x="1193.94937052" y="2.71872162696"/>
      <point x="1192.0" y="10.0" type="curve" smooth="yes"/>
      <point x="913.301757812" y="1050.9921875" type="line"/>
      <point x="628.0" y="10.0" type="line" smooth="yes"/>
      <point x="626.075833883" y="2.97921642416"/>
      <point x="622.028689192" y="-8.6076617214e-16"/>
      <point x="615.0" y="0.0" type="curve" smooth="yes"/>
      <point x="420.0" y="0.0" type="line" smooth="yes"/>
      <point x="413.0" y="0.0"/>
      <point x="408.949243612" y="2.50708583811"/>
      <point x="407.0" y="10.0" type="curve" smooth="yes"/>
      <point x="48.0" y="1390.0" type="line" smooth="yes"/>
      <point x="46.2944118398" y="1396.55629989"/>
      <point x="48.0" y="1400.0"/>
      <point x="55.0" y="1400.0" type="curve" smooth="yes"/>
      <point x="230.0" y="1400.0" type="line" smooth="yes"/>
      <point x="237.0" y="1400.0"/>
      <point x="241.392722944" y="1396.60912535"/>
      <point x="243.0" y="1390.0" type="curve" smooth="yes"/>
    </contour>
  </outline>
</glyph>
<glyph name="X" format="2">
  <advance height="1920" width="1280"/>
  <unicode hex="0058"/>
  <anchor x="635.0" y="0.0" name="bottom"/>
  <anchor x="634.0" y="1400.0" name="top"/>
  <outline>
    <contour>
      <point x="1015.0" y="1400.0" type="curve" smooth="yes"/>
      <point x="1190.0" y="1400.0" type="line" smooth="yes"/>
      <point x="1197.0" y="1400.0"/>
      <point x="1198.16200739" y="1397.60507064"/>
      <point x="1193.0" y="1390.0" type="curve" smooth="yes"/>
      <point x="741.688476562" y="725.092773438" type="line"/>
      <point x="1223.0" y="10.0" type="line" smooth="yes"/>
      <point x="1228.27359795" y="2.16492520656"/>
      <point x="1227.0" y="-8.57252759403e-16"/>
      <point x="1220.0" y="0.0" type="curve" smooth="yes"/>
      <point x="1020.0" y="0.0" type="line" smooth="yes"/>
      <point x="1013.0" y="0.0"/>
      <point x="1008.96690011" y="2.33091089742"/>
      <point x="1004.0" y="10.0" type="curve" smooth="yes"/>
      <point x="639.657226562" y="572.559570312" type="line"/>
      <point x="252.0" y="10.0" type="line" smooth="yes"/>
      <point x="246.33036293" y="1.77234841629"/>
      <point x="242.0" y="-8.57252759403e-16"/>
      <point x="235.0" y="0.0" type="curve" smooth="yes"/>
      <point x="60.0" y="0.0" type="line" smooth="yes"/>
      <point x="53.0" y="0.0"/>
      <point x="51.38877111" y="2.02309118095"/>
      <point x="57.0" y="10.0" type="curve" smooth="yes"/>
      <point x="548.865234375" y="709.234375" type="line"/>
      <point x="87.0" y="1390.0" type="line" smooth="yes"/>
      <point x="81.6907607699" y="1397.82554584"/>
      <point x="83.0" y="1400.0"/>
      <point x="90.0" y="1400.0" type="curve" smooth="yes"/>
      <point x="290.0" y="1400.0" type="line" smooth="yes"/>
      <point x="298.0" y="1400.0"/>
      <point x="302.013283514" y="1397.65968239"/>
      <point x="307.0" y="1390.0" type="curve" smooth="yes"/>
      <point x="650.897460938" y="861.767578125" type="line"/>
      <point x="998.0" y="1390.0" type="line" smooth="yes"/>
      <point x="1003.32356812" y="1398.10158661"/>
      <point x="1008.0" y="1400.0"/>
    </contour>
  </outline>
</glyph>
<glyph name="Y" format="2">
  <advance height="1920" width="1280"/>
  <unicode hex="0059"/>
  <anchor x="645.0" y="0.0" name="bottom"/>
  <anchor x="644.0" y="1400.0" name="top"/>
  <outline>
    <contour>
      <point x="1075.0" y="1400.0" type="curve" smooth="yes"/>
      <point x="1230.0" y="1400.0" type="line" smooth="yes"/>
      <point x="1237.0" y="1400.0"/>
      <point x="1238.28221634" y="1397.20854053"/>
      <point x="1234.0" y="1390.0" type="curve" smooth="yes"/>
      <point x="735.0" y="550.0" type="line"/>
      <point x="735.0" y="10.0" type="line" smooth="yes"/>
      <point x="735.0" y="3.0"/>
      <point x="732.0" y="-8.57252759403e-16"/>
      <point x="725.0" y="0.0" type="curve" smooth="yes"/>
      <point x="555.0" y="0.0" type="line" smooth="yes"/>
      <point x="548.0" y="0.0"/>
      <point x="545.0" y="3.0"/>
      <point x="545.0" y="10.0" type="curve" smooth="yes"/>
      <point x="545.0" y="550.0" type="line"/>
      <point x="46.0" y="1390.0" type="line" smooth="yes"/>
      <point x="41.3612807864" y="1397.80866561"/>
      <point x="43.0" y="1400.0"/>
      <point x="50.0" y="1400.0" type="curve" smooth="yes"/>
      <point x="235.0" y="1400.0" type="line" smooth="yes"/>
      <point x="242.058194589" y="1400.0"/>
      <point x="246.6222161" y="1397.36961595"/>
      <point x="251.0" y="1390.0" type="curve" smooth="yes"/>
      <point x="655.0" y="709.901367188" type="line"/>
      <point x="1059.0" y="1390.0" type="line" smooth="yes"/>
      <point x="1063.3777839" y="1397.36961595"/>
      <point x="1067.89066707" y="1400.0"/>
    </contour>
  </outline>
</glyph>
<glyph name="Z" format="2">
  <advance height="1920" width="1170"/>
  <unicode hex="005A"/>
  <anchor x="615.0" y="0.0" name="bottom"/>
  <anchor x="614.0" y="1400.0" name="top"/>
  <outline>
    <contour>
      <point x="-23.0" y="10.0" type="curve" smooth="yes"/>
      <point x="856.071289062" y="1250.0" type="line"/>
      <point x="120.0" y="1250.0" type="line" smooth="yes"/>
      <point x="113.0" y="1250.0"/>
      <point x="110.0" y="1253.0"/>
      <point x="110.0" y="1260.0" type="curve" smooth="yes"/>
      <point x="110.0" y="1390.0" type="line" smooth="yes"/>
      <point x="110.0" y="1397.0"/>
      <point x="113.0" y="1400.0"/>
      <point x="120.0" y="1400.0" type="curve" smooth="yes"/>
      <point x="1150.0" y="1400.0" type="line" smooth="yes"/>
      <point x="1157.0" y="1400.0"/>
      <point x="1158.5066683" y="1397.7675938"/>
      <point x="1153.0" y="1390.0" type="curve" smooth="yes"/>
      <point x="273.928710938" y="150.0" type="line"/>
      <point x="1090.0" y="150.0" type="line" smooth="yes"/>
      <point x="1097.0" y="150.0"/>
      <point x="1100.0" y="147.0"/>
      <point x="1100.0" y="140.0" type="curve" smooth="yes"/>
      <point x="1100.0" y="10.0" type="line" smooth="yes"/>
      <point x="1100.0" y="3.0"/>
      <point x="1097.0" y="-8.57252759403e-16"/>
      <point x="1090.0" y="0.0" type="curve" smooth="yes"/>
      <point x="-20.0" y="0.0" type="line" smooth="yes"/>
      <point x="-27.0" y="0.0"/>
      <point x="-28.6439980671" y="2.0386916394"/>
    </contour>
  </outline>
</glyph>
<glyph name="bracketleft" format="2">
  <advance height="1920" width="550"/>
  <unicode hex="005B"/>
  <outline>
    <contour>
      <point x="260.0" y="1450.0" type="line"/>
      <point x="260.0" y="-210.0" type="line"/>
      <point x="490.0" y="-210.0" type="line" smooth="yes"/>
      <point x="497.0" y="-210.0"/>
      <point x="500.0" y="-213.0"/>
      <point x="500.0" y="-220.0" type="curve" smooth="yes"/>
      <point x="500.0" y="-350.0" type="line" smooth="yes"/>
      <point x="500.0" y="-357.0"/>
      <point x="497.0" y="-360.0"/>
      <point x="490.0" y="-360.0" type="curve" smooth="yes"/>
      <point x="80.0" y="-360.0" type="line" smooth="yes"/>
      <point x="73.0" y="-360.0"/>
      <point x="70.0" y="-357.0"/>
      <point x="70.0" y="-350.0" type="curve" smooth="yes"/>
      <point x="70.0" y="1590.0" type="line" smooth="yes"/>
      <point x="70.0" y="1597.0"/>
      <point x="73.0" y="1600.0"/>
      <point x="80.0" y="1600.0" type="curve" smooth="yes"/>
      <point x="490.0" y="1600.0" type="line" smooth="yes"/>
      <point x="497.0" y="1600.0"/>
      <point x="500.0" y="1597.0"/>
      <point x="500.0" y="1590.0" type="curve" smooth="yes"/>
      <point x="500.0" y="1460.0" type="line" smooth="yes"/>
      <point x="500.0" y="1453.0"/>
      <point x="497.0" y="1450.0"/>
      <point x="490.0" y="1450.0" type="curve" smooth="yes"/>
    </contour>
  </outline>
</glyph>
<glyph name="backslash" format="2">
  <advance height="2048" width="840"/>
  <unicode hex="005C"/>
  <outline>
    <contour>
      <point x="821.0" y="-90.0" type="line" smooth="yes"/>
      <point x="824.551757812" y="-98.51953125"/>
      <point x="822.0" y="-100.0"/>
      <point x="815.0" y="-100.0" type="curve" smooth="yes"/>
      <point x="675.0" y="-100.0" type="line" smooth="yes"/>
      <point x="669.0" y="-100.0"/>
      <point x="664.551757812" y="-98.51953125"/>
      <point x="661.0" y="-90.0" type="curve" smooth="yes"/>
      <point x="44.0" y="1390.0" type="line" smooth="yes"/>
      <point x="40.4482421875" y="1398.51953125"/>
      <point x="43.0" y="1400.0"/>
      <point x="50.0" y="1400.0" type="curve" smooth="yes"/>
      <point x="190.0" y="1400.0" type="line" smooth="yes"/>
      <point x="197.0" y="1400.0"/>
      <point x="200.448242188" y="1398.51953125"/>
      <point x="204.0" y="1390.0" type="curve" smooth="yes"/>
    </contour>
  </outline>
</glyph>
<glyph name="bracketright" format="2">
  <advance height="1920" width="550"/>
  <unicode hex="005D"/>
  <outline>
    <contour>
      <point x="290.0" y="-210.0" type="line"/>
      <point x="290.0" y="1450.0" type="line"/>
      <point x="60.0" y="1450.0" type="line" smooth="yes"/>
      <point x="53.0" y="1450.0"/>
      <point x="50.0" y="1453.0"/>
      <point x="50.0" y="1460.0" type="curve" smooth="yes"/>
      <point x="50.0" y="1590.0" type="line" smooth="yes"/>
      <point x="50.0" y="1597.0"/>
      <point x="53.0" y="1600.0"/>
      <point x="60.0" y="1600.0" type="curve" smooth="yes"/>
      <point x="470.0" y="1600.0" type="line" smooth="yes"/>
      <point x="477.0" y="1600.0"/>
      <point x="480.0" y="1597.0"/>
      <point x="480.0" y="1590.0" type="curve" smooth="yes"/>
      <point x="480.0" y="-350.0" type="line" smooth="yes"/>
      <point x="480.0" y="-357.0"/>
      <point x="477.0" y="-360.0"/>
      <point x="470.0" y="-360.0" type="curve" smooth="yes"/>
      <point x="60.0" y="-360.0" type="line" smooth="yes"/>
      <point x="53.0" y="-360.0"/>
      <point x="50.0" y="-357.0"/>
      <point x="50.0" y="-350.0" type="curve" smooth="yes"/>
      <point x="50.0" y="-220.0" type="line" smooth="yes"/>
      <point x="50.0" y="-213.0"/>
      <point x="53.0" y="-210.0"/>
      <point x="60.0" y="-210.0" type="curve" smooth="yes"/>
    </contour>
  </outline>
</glyph>
<glyph name="asciicircum" format="2">
  <advance height="1920" width="820"/>
  <unicode hex="005E"/>
  <outline>
    <contour>
      <point x="410.0" y="1191.48144531" type="line"/>
      <point x="234.0" y="740.0" type="line" smooth="yes"/>
      <point x="231.669353849" y="734.021343792"/>
      <point x="227.0" y="730.0"/>
      <point x="220.0" y="730.0" type="curve" smooth="yes"/>
      <point x="70.0" y="730.0" type="line" smooth="yes"/>
      <point x="63.0" y="730.0"/>
      <point x="61.3021565824" y="733.552947715"/>
      <point x="64.0" y="740.0" type="curve" smooth="yes"/>
      <point x="336.0" y="1390.0" type="line" smooth="yes"/>
      <point x="339.561041242" y="1398.5098412"/>
      <point x="343.0" y="1400.0"/>
      <point x="350.0" y="1400.0" type="curve" smooth="yes"/>
      <point x="470.0" y="1400.0" type="line" smooth="yes"/>
      <point x="477.0" y="1400.0"/>
      <point x="480.438958758" y="1398.5098412"/>
      <point x="484.0" y="1390.0" type="curve" smooth="yes"/>
      <point x="756.0" y="740.0" type="line" smooth="yes"/>
      <point x="759.117274776" y="733.823736235"/>
      <point x="762.493809261" y="730.0"/>
      <point x="750.0" y="730.0" type="curve" smooth="yes"/>
      <point x="600.0" y="730.0" type="line" smooth="yes"/>
      <point x="589.571276925" y="730.0"/>
      <point x="587.769395056" y="733.769395056"/>
      <point x="586.0" y="740.0" type="curve" smooth="yes"/>
    </contour>
  </outline>
</glyph>
<glyph name="underscore" format="2">
  <advance height="1920" width="900"/>
  <unicode hex="005F"/>
  <outline>
    <contour>
      <point x="0.0" y="-145.0" type="curve" smooth="yes"/>
      <point x="0.0" y="-10.0" type="line" smooth="yes"/>
      <point x="0.0" y="-3.0"/>
      <point x="3.0" y="0.0"/>
      <point x="10.0" y="0.0" type="curve" smooth="yes"/>
      <point x="890.0" y="0.0" type="line" smooth="yes"/>
      <point x="897.0" y="0.0"/>
      <point x="900.0" y="-3.0"/>
      <point x="900.0" y="-10.0" type="curve" smooth="yes"/>
      <point x="900.0" y="-145.0" type="line" smooth="yes"/>
      <point x="900.0" y="-152.0"/>
      <point x="897.0" y="-155.0"/>
      <point x="890.0" y="-155.0" type="curve" smooth="yes"/>
      <point x="10.0" y="-155.0" type="line" smooth="yes"/>
      <point x="3.0" y="-155.0"/>
      <point x="0.0" y="-152.0"/>
    </contour>
  </outline>
</glyph>
<glyph name="grave" format="2">
  <advance width="623"/>
  <unicode hex="0060"/>
  <outline>
    <contour>
      <point x="456.0" y="1104.0" type="curve" smooth="yes"/>
      <point x="356.0" y="1104.0" type="line" smooth="yes"/>
      <point x="349.0" y="1104.0"/>
      <point x="341.0" y="1109.0"/>
      <point x="336.0" y="1114.0" type="curve" smooth="yes"/>
      <point x="61.0" y="1390.0" type="line" smooth="yes"/>
      <point x="56.0" y="1395.0"/>
      <point x="54.0" y="1400.0"/>
      <point x="61.0" y="1400.0" type="curve" smooth="yes"/>
      <point x="271.0" y="1400.0" type="line" smooth="yes"/>
      <point x="278.0" y="1400.0"/>
      <point x="283.0" y="1397.0"/>
      <point x="287.0" y="1390.0" type="curve" smooth="yes"/>
      <point x="460.0" y="1114.0" type="line" smooth="yes"/>
      <point x="464.0" y="1107.0"/>
      <point x="463.0" y="1104.0"/>
    </contour>
  </outline>
</glyph>
<glyph name="a" format="2">
  <advance height="1920" width="1110"/>
  <unicode hex="0061"/>
  <anchor x="525.0" y="0.0" name="bottom"/>
  <anchor x="930.0" y="0.0" name="ogonek"/>
  <anchor x="554.0" y="1050.0" name="top"/>
  <outline>
    <contour>
      <point x="260.0" y="270.0" type="curve" smooth="yes"/>
      <point x="260.0" y="176.396484375"/>
      <point x="312.181787539" y="95.0"/>
      <point x="460.0" y="95.0" type="curve" smooth="yes"/>
      <point x="624.0" y="95.0"/>
      <point x="778.0" y="222.0"/>
      <point x="778.0" y="398.0" type="curve"/>
      <point x="838.0" y="328.0" type="line"/>
      <point x="838.0" y="125.0"/>
      <point x="667.0" y="-35.0"/>
      <point x="426.0" y="-35.0" type="curve" smooth="yes"/>
      <point x="236.736328125" y="-35.0"/>
      <point x="70.0" y="45.109375"/>
      <point x="70.0" y="260.0" type="curve" smooth="yes"/>
      <point x="70.0" y="431.0078125"/>
      <point x="168.559645712" y="575.213334063"/>
      <point x="529.0" y="615.0" type="curve" smooth="yes"/>
      <point x="713.191803706" y="635.331734988"/>
      <point x="778.0" y="655.0"/>
      <point x="778.0" y="738.0" type="curve"/>
      <point x="818.0" y="618.0" type="line"/>
      <point x="818.0" y="555.0"/>
      <point x="726.447199786" y="524.015663328"/>
      <point x="556.0" y="500.0" type="curve" smooth="yes"/>
      <point x="331.513547388" y="468.370316002"/>
      <point x="260.0" y="380.081054688"/>
    </contour>
    <contour>
      <point x="778.0" y="208.0" type="curve" smooth="yes"/>
      <point x="778.0" y="788.0" type="line" smooth="yes"/>
      <point x="778.0" y="888.0"/>
      <point x="674.0" y="955.0"/>
      <point x="539.0" y="955.0" type="curve" smooth="yes"/>
      <point x="390.25390625" y="955.0"/>
      <point x="293.323242188" y="858.200195312"/>
      <point x="288.135742188" y="722.0" type="curve" smooth="yes"/>
      <point x="287.907226562" y="715.998046875"/>
      <point x="284.86328125" y="713.0"/>
      <point x="278.0" y="713.0" type="curve" smooth="yes"/>
      <point x="128.0" y="713.0" type="line" smooth="yes"/>
      <point x="120.93359375" y="713.0"/>
      <point x="118.239257812" y="715.9609375"/>
      <point x="118.853515625" y="722.0" type="curve" smooth="yes"/>
      <point x="142.529296875" y="954.799804688"/>
      <point x="292.381835938" y="1085.0"/>
      <point x="558.0" y="1085.0" type="curve" smooth="yes"/>
      <point x="818.0" y="1085.0"/>
      <point x="958.0" y="971.0"/>
      <point x="958.0" y="733.0" type="curve" smooth="yes"/>
      <point x="958.0" y="208.0" type="line" smooth="yes"/>
      <point x="958.0" y="113.612259255"/>
      <point x="979.472646949" y="48.673149846"/>
      <point x="1015.41789085" y="6.99999680684" type="curve" smooth="yes"/>
      <point x="1019.67987464" y="2.0588618047"/>
      <point x="1018.61066474" y="-8.09572940929e-16"/>
      <point x="1012.0" y="0.0" type="curve" smooth="yes"/>
      <point x="848.0" y="0.0" type="line" smooth="yes"/>
      <point x="840.683825851" y="0.0"/>
      <point x="835.746568518" y="2.05334160689"/>
      <point x="832.337212556" y="6.0" type="curve" smooth="yes"/>
      <point x="795.397449954" y="48.761338429"/>
      <point x="778.0" y="112.835920156"/>
    </contour>
  </outline>
</glyph>
<glyph name="b" format="2">
  <advance height="1920" width="1135"/>
  <unicode hex="0062"/>
  <outline>
    <contour>
      <point x="130.0" y="1450.0" type="curve" smooth="yes"/>
      <point x="300.0" y="1450.0" type="line" smooth="yes"/>
      <point x="307.0" y="1450.0"/>
      <point x="310.0" y="1447.0"/>
      <point x="310.0" y="1440.0" type="curve" smooth="yes"/>
      <point x="310.0" y="175.0" type="line"/>
      <point x="177.0" y="-25.0" type="line" smooth="yes"/>
      <point x="171.932617188" y="-32.6201171875"/>
      <point x="167.0" y="-35.0"/>
      <point x="160.0" y="-35.0" type="curve" smooth="yes"/>
      <point x="130.0" y="-35.0" type="line" smooth="yes"/>
      <point x="123.0" y="-35.0"/>
      <point x="120.0" y="-32.0"/>
      <point x="120.0" y="-25.0" type="curve" smooth="yes"/>
      <point x="120.0" y="1440.0" type="line" smooth="yes"/>
      <point x="120.0" y="1447.0"/>
      <point x="123.0" y="1450.0"/>
    </contour>
    <contour>
      <point x="240.0" y="633.0" type="line"/>
      <point x="240.0" y="923.0"/>
      <point x="427.0" y="1085.0"/>
      <point x="624.0" y="1085.0" type="curve" smooth="yes"/>
      <point x="831.0" y="1085.0"/>
      <point x="1060.0" y="943.0"/>
      <point x="1060.0" y="603.0" type="curve" smooth="yes"/>
      <point x="1060.0" y="447.0" type="line" smooth="yes"/>
      <point x="1060.0" y="127.0"/>
      <point x="841.0" y="-35.0"/>
      <point x="634.0" y="-35.0" type="curve" smooth="yes"/>
      <point x="407.0" y="-35.0"/>
      <point x="210.0" y="127.0"/>
      <point x="210.0" y="417.0" type="curve"/>
      <point x="310.0" y="437.0" type="line"/>
      <point x="310.0" y="227.0"/>
      <point x="427.0" y="105.0"/>
      <point x="584.0" y="105.0" type="curve" smooth="yes"/>
      <point x="731.0" y="105.0"/>
      <point x="870.0" y="207.0"/>
      <point x="870.0" y="417.0" type="curve" smooth="yes"/>
      <point x="870.0" y="633.0" type="line" smooth="yes"/>
      <point x="870.0" y="843.0"/>
      <point x="731.0" y="945.0"/>
      <point x="584.0" y="945.0" type="curve" smooth="yes"/>
      <point x="427.0" y="945.0"/>
      <point x="310.0" y="823.0"/>
      <point x="310.0" y="613.0" type="curve"/>
    </contour>
  </outline>
</glyph>
<glyph name="c" format="2">
  <advance height="1920" width="1000"/>
  <unicode hex="0063"/>
  <anchor x="530.0" y="0.0" name="bottom"/>
  <anchor x="524.0" y="1050.0" name="top"/>
  <outline>
    <contour>
      <point x="955.0" y="380.0" type="curve" smooth="yes"/>
      <point x="952.0" y="336.0"/>
      <point x="945.0" y="294.0"/>
      <point x="934.0" y="256.0" type="curve" smooth="yes"/>
      <point x="881.0" y="72.0"/>
      <point x="733.0" y="-35.0"/>
      <point x="530.0" y="-35.0" type="curve" smooth="yes"/>
      <point x="250.0" y="-35.0"/>
      <point x="65.0" y="151.0"/>
      <point x="65.0" y="448.0" type="curve" smooth="yes"/>
      <point x="65.0" y="603.0" type="line" smooth="yes"/>
      <point x="65.0" y="900.0"/>
      <point x="245.0" y="1085.0"/>
      <point x="525.0" y="1085.0" type="curve" smooth="yes"/>
      <point x="731.0" y="1085.0"/>
      <point x="874.0" y="988.0"/>
      <point x="925.0" y="800.0" type="curve" smooth="yes"/>
      <point x="936.0" y="761.0"/>
      <point x="943.0" y="718.0"/>
      <point x="945.0" y="671.0" type="curve" smooth="yes"/>
      <point x="945.0" y="666.0"/>
      <point x="942.0" y="663.0"/>
      <point x="935.0" y="663.0" type="curve" smooth="yes"/>
      <point x="795.0" y="663.0" type="line" smooth="yes"/>
      <point x="788.0" y="663.0"/>
      <point x="785.0" y="666.0"/>
      <point x="785.0" y="670.0" type="curve" smooth="yes"/>
      <point x="782.0" y="718.0"/>
      <point x="773.0" y="760.0"/>
      <point x="759.0" y="795.0" type="curve" smooth="yes"/>
      <point x="719.0" y="895.0"/>
      <point x="636.0" y="945.0"/>
      <point x="520.0" y="945.0" type="curve" smooth="yes"/>
      <point x="366.0" y="945.0"/>
      <point x="255.0" y="833.0"/>
      <point x="255.0" y="633.0" type="curve" smooth="yes"/>
      <point x="255.0" y="418.0" type="line" smooth="yes"/>
      <point x="255.0" y="225.0"/>
      <point x="376.0" y="105.0"/>
      <point x="535.0" y="105.0" type="curve" smooth="yes"/>
      <point x="649.0" y="105.0"/>
      <point x="727.0" y="161.0"/>
      <point x="767.0" y="255.0" type="curve" smooth="yes"/>
      <point x="782.0" y="292.0"/>
      <point x="792.0" y="334.0"/>
      <point x="795.0" y="381.0" type="curve" smooth="yes"/>
      <point x="795.0" y="385.0"/>
      <point x="798.0" y="388.0"/>
      <point x="805.0" y="388.0" type="curve" smooth="yes"/>
      <point x="945.0" y="388.0" type="line" smooth="yes"/>
      <point x="952.0" y="388.0"/>
      <point x="955.0" y="385.0"/>
    </contour>
  </outline>
</glyph>
<glyph name="d" format="2">
  <advance height="1920" width="1135"/>
  <unicode hex="0064"/>
  <outline>
    <contour>
      <point x="895.0" y="417.0" type="line"/>
      <point x="895.0" y="127.0"/>
      <point x="706.0" y="-35.0"/>
      <point x="509.0" y="-35.0" type="curve" smooth="yes"/>
      <point x="302.0" y="-35.0"/>
      <point x="75.0" y="107.0"/>
      <point x="75.0" y="447.0" type="curve" smooth="yes"/>
      <point x="75.0" y="603.0" type="line" smooth="yes"/>
      <point x="75.0" y="943.0"/>
      <point x="302.0" y="1085.0"/>
      <point x="509.0" y="1085.0" type="curve" smooth="yes"/>
      <point x="706.0" y="1085.0"/>
      <point x="895.0" y="923.0"/>
      <point x="895.0" y="633.0" type="curve"/>
      <point x="825.0" y="613.0" type="line"/>
      <point x="825.0" y="823.0"/>
      <point x="706.0" y="945.0"/>
      <point x="549.0" y="945.0" type="curve" smooth="yes"/>
      <point x="402.0" y="945.0"/>
      <point x="265.0" y="843.0"/>
      <point x="265.0" y="633.0" type="curve" smooth="yes"/>
      <point x="265.0" y="417.0" type="line" smooth="yes"/>
      <point x="265.0" y="207.0"/>
      <point x="402.0" y="105.0"/>
      <point x="549.0" y="105.0" type="curve" smooth="yes"/>
      <point x="706.0" y="105.0"/>
      <point x="825.0" y="227.0"/>
      <point x="825.0" y="437.0" type="curve"/>
    </contour>
    <contour>
      <point x="1015.0" y="1440.0" type="curve" smooth="yes"/>
      <point x="1015.0" y="10.0" type="line" smooth="yes"/>
      <point x="1015.0" y="3.0"/>
      <point x="1012.0" y="-8.57252759403e-16"/>
      <point x="1005.0" y="0.0" type="curve" smooth="yes"/>
      <point x="850.0" y="0.0" type="line" smooth="yes"/>
      <point x="843.0" y="0.0"/>
      <point x="840.0" y="3.0"/>
      <point x="840.0" y="10.0" type="curve" smooth="yes"/>
      <point x="840.0" y="220.0" type="line"/>
      <point x="825.0" y="252.0" type="line"/>
      <point x="825.0" y="1440.0" type="line" smooth="yes"/>
      <point x="825.0" y="1447.0"/>
      <point x="828.0" y="1450.0"/>
      <point x="835.0" y="1450.0" type="curve" smooth="yes"/>
      <point x="1005.0" y="1450.0" type="line" smooth="yes"/>
      <point x="1012.0" y="1450.0"/>
      <point x="1015.0" y="1446.99999659"/>
    </contour>
  </outline>
</glyph>
<glyph name="e" format="2">
  <advance height="1920" width="1110"/>
  <unicode hex="0065"/>
  <anchor x="564.0" y="0.0" name="bottom"/>
  <anchor x="770.0" y="60.0" name="ogonek"/>
  <anchor x="565.0" y="1050.0" name="top"/>
  <outline>
    <contour>
      <point x="1014.0" y="329.0" type="curve" smooth="yes"/>
      <point x="1003.0" y="278.0"/>
      <point x="987.0" y="233.0"/>
      <point x="965.0" y="192.0" type="curve" smooth="yes"/>
      <point x="887.0" y="45.0"/>
      <point x="743.0" y="-35.0"/>
      <point x="562.0" y="-35.0" type="curve" smooth="yes"/>
      <point x="293.0" y="-35.0"/>
      <point x="106.0" y="138.0"/>
      <point x="106.0" y="448.0" type="curve" smooth="yes"/>
      <point x="106.0" y="603.0" type="line" smooth="yes"/>
      <point x="106.0" y="903.0"/>
      <point x="293.0" y="1085.0"/>
      <point x="570.0" y="1085.0" type="curve" smooth="yes"/>
      <point x="837.0" y="1085.0"/>
      <point x="992.0" y="889.0"/>
      <point x="1016.0" y="674.0" type="curve" smooth="yes"/>
      <point x="1024.0" y="603.0"/>
      <point x="1024.0" y="577.0"/>
      <point x="1024.0" y="493.0" type="curve" smooth="yes"/>
      <point x="1024.0" y="488.0"/>
      <point x="1021.0" y="485.0"/>
      <point x="1014.0" y="485.0" type="curve" smooth="yes"/>
      <point x="230.0" y="485.0" type="line"/>
      <point x="230.0" y="605.0" type="line"/>
      <point x="840.0" y="605.0" type="line"/>
      <point x="835.0" y="832.0"/>
      <point x="733.0" y="955.0"/>
      <point x="570.0" y="955.0" type="curve" smooth="yes"/>
      <point x="413.0" y="955.0"/>
      <point x="296.0" y="843.0"/>
      <point x="296.0" y="633.0" type="curve" smooth="yes"/>
      <point x="296.0" y="418.0" type="line" smooth="yes"/>
      <point x="296.0" y="198.0"/>
      <point x="403.0" y="95.0"/>
      <point x="570.0" y="95.0" type="curve" smooth="yes"/>
      <point x="702.0" y="95.0"/>
      <point x="813.0" y="184.0"/>
      <point x="845.0" y="332.0" type="curve" smooth="yes"/>
      <point x="846.0" y="336.0"/>
      <point x="849.0" y="338.0"/>
      <point x="856.0" y="338.0" type="curve" smooth="yes"/>
      <point x="1006.0" y="338.0" type="line" smooth="yes"/>
      <point x="1013.0" y="338.0"/>
      <point x="1015.0" y="335.0"/>
    </contour>
  </outline>
</glyph>
<glyph name="f" format="2">
  <advance height="1920" width="620"/>
  <unicode hex="0066"/>
  <outline>
    <contour>
      <point x="580.0" y="910.0" type="curve" smooth="yes"/>
      <point x="70.0" y="910.0" type="line" smooth="yes"/>
      <point x="63.0" y="910.0"/>
      <point x="60.0" y="913.0"/>
      <point x="60.0" y="920.0" type="curve" smooth="yes"/>
      <point x="60.0" y="1040.0" type="line" smooth="yes"/>
      <point x="60.0" y="1047.0"/>
      <point x="63.0" y="1050.0"/>
      <point x="70.0" y="1050.0" type="curve" smooth="yes"/>
      <point x="580.0" y="1050.0" type="line" smooth="yes"/>
      <point x="587.0" y="1050.0"/>
      <point x="590.0" y="1047.0"/>
      <point x="590.0" y="1040.0" type="curve" smooth="yes"/>
      <point x="590.0" y="920.0" type="line" smooth="yes"/>
      <point x="590.0" y="913.0"/>
      <point x="587.0" y="910.0"/>
    </contour>
    <contour>
      <point x="180.0" y="1188.0" type="line" smooth="yes"/>
      <point x="180.0" y="1395.14532511"/>
      <point x="290.911586484" y="1468.85022688"/>
      <point x="578.0" y="1441.16584861" type="curve" smooth="yes"/>
      <point x="587.027382074" y="1440.29532424"/>
      <point x="590.0" y="1437.04717092"/>
      <point x="590.0" y="1430.0" type="curve" smooth="yes"/>
      <point x="590.0" y="1320.0" type="line" smooth="yes"/>
      <point x="590.0" y="1313.15658313"/>
      <point x="587.042270588" y="1310.51024436"/>
      <point x="573.999994664" y="1311.88973719" type="curve" smooth="yes"/>
      <point x="428.802169805" y="1327.24743692"/>
      <point x="365.0" y="1293.49478024"/>
      <point x="365.0" y="1168.0" type="curve" smooth="yes"/>
      <point x="365.0" y="10.0" type="line" smooth="yes"/>
      <point x="365.0" y="3.0"/>
      <point x="362.0" y="-8.57252759403e-16"/>
      <point x="355.0" y="0.0" type="curve" smooth="yes"/>
      <point x="190.0" y="0.0" type="line" smooth="yes"/>
      <point x="183.0" y="0.0"/>
      <point x="180.0" y="3.0"/>
      <point x="180.0" y="10.0" type="curve" smooth="yes"/>
    </contour>
  </outline>
</glyph>
<glyph name="g" format="2">
  <advance height="1920" width="1000"/>
  <unicode hex="0067"/>
  <anchor x="415.0" y="1100.0" name="top"/>
  <outline>
    <contour>
      <point x="954.318863229" y="1249.99998994" type="curve" smooth="yes"/>
      <point x="940.59228664" y="1057.73717119"/>
      <point x="724.158891667" y="970.0"/>
      <point x="675.0" y="970.0" type="curve"/>
      <point x="645.0" y="1000.0" type="line"/>
      <point x="704.090374663" y="1000.0"/>
      <point x="732.930052577" y="1060.90238683"/>
      <point x="763.63545746" y="1251.0" type="curve" smooth="yes"/>
      <point x="764.617164072" y="1257.07776007"/>
      <point x="768.014919438" y="1260.0"/>
      <point x="775.0" y="1260.0" type="curve" smooth="yes"/>
      <point x="945.0" y="1260.0" type="line" smooth="yes"/>
      <point x="952.18271343" y="1260.0"/>
      <point x="954.821140618" y="1257.03519395"/>
    </contour>
    <contour>
      <point x="643.0" y="257.0" type="line" smooth="yes"/>
      <point x="867.790039062" y="240.301757812"/>
      <point x="1005.0" y="162.0"/>
      <point x="1005.0" y="-25.0" type="curve" smooth="yes"/>
      <point x="1005.0" y="-232.0"/>
      <point x="813.0" y="-360.0"/>
      <point x="573.0" y="-360.0" type="curve" smooth="yes"/>
      <point x="418.0" y="-360.0" type="line" smooth="yes"/>
      <point x="188.0" y="-360.0"/>
      <point x="5.0" y="-262.0"/>
      <point x="5.0" y="-75.0" type="curve" smooth="yes"/>
      <point x="5.0" y="72.0"/>
      <point x="138.0" y="170.0"/>
      <point x="298.0" y="190.0" type="curve"/>
      <point x="328.0" y="150.0" type="line"/>
      <point x="238.0" y="130.0"/>
      <point x="175.0" y="52.0"/>
      <point x="175.0" y="-35.0" type="curve" smooth="yes"/>
      <point x="175.0" y="-192.0"/>
      <point x="318.0" y="-230.0"/>
      <point x="478.0" y="-230.0" type="curve" smooth="yes"/>
      <point x="553.0" y="-230.0" type="line" smooth="yes"/>
      <point x="723.0" y="-230.0"/>
      <point x="835.0" y="-152.0"/>
      <point x="835.0" y="-35.0" type="curve" smooth="yes"/>
      <point x="835.0" y="62.0"/>
      <point x="780.549804688" y="112.553710938"/>
      <point x="613.0" y="120.0" type="curve" smooth="yes"/>
      <point x="388.0" y="130.0" type="line" smooth="yes"/>
      <point x="202.004882812" y="140.053710938"/>
      <point x="116.0" y="208.0"/>
      <point x="116.0" y="315.0" type="curve" smooth="yes"/>
      <point x="116.0" y="412.0"/>
      <point x="200.0" y="455.0"/>
      <point x="370.0" y="455.0" type="curve"/>
      <point x="390.0" y="415.0" type="line"/>
      <point x="290.0" y="415.0"/>
      <point x="246.0" y="382.0"/>
      <point x="246.0" y="345.0" type="curve" smooth="yes"/>
      <point x="246.0" y="283.0"/>
      <point x="344.557617188" y="279.169921875"/>
      <point x="468.0" y="270.0" type="curve" smooth="yes"/>
    </contour>
    <contour>
      <point x="745.0" y="728.0" type="curve" smooth="yes"/>
      <point x="745.0" y="743.0" type="line" smooth="yes"/>
      <point x="745.0" y="890.170898438"/>
      <point x="642.73046875" y="955.0"/>
      <point x="500.727539062" y="955.0" type="curve" smooth="yes"/>
      <point x="352.546875" y="955.0"/>
      <point x="245.0" y="882.629882812"/>
      <point x="245.0" y="743.0" type="curve" smooth="yes"/>
      <point x="245.0" y="728.0" type="line" smooth="yes"/>
      <point x="245.0" y="588.012695312"/>
      <point x="352.802734375" y="525.0"/>
      <point x="500.729492188" y="525.0" type="curve" smooth="yes"/>
      <point x="642.5" y="525.0"/>
      <point x="745.0" y="580.432617188"/>
    </contour>
    <contour>
      <point x="905.0" y="718.0" type="line" smooth="yes"/>
      <point x="905.0" y="528.0"/>
      <point x="727.0" y="395.0"/>
      <point x="490.0" y="395.0" type="curve" smooth="yes"/>
      <point x="253.0" y="395.0"/>
      <point x="75.0" y="528.0"/>
      <point x="75.0" y="718.0" type="curve" smooth="yes"/>
      <point x="75.0" y="753.0" type="line" smooth="yes"/>
      <point x="75.0" y="943.0"/>
      <point x="253.0" y="1085.0"/>
      <point x="490.0" y="1085.0" type="curve" smooth="yes"/>
      <point x="727.0" y="1085.0"/>
      <point x="905.0" y="943.0"/>
      <point x="905.0" y="753.0" type="curve" smooth="yes"/>
    </contour>
  </outline>
</glyph>
<glyph name="h" format="2">
  <advance height="1920" width="1110"/>
  <unicode hex="0068"/>
  <anchor x="554.0" y="0.0" name="bottom"/>
  <anchor x="223.0" y="1450.0" name="top"/>
  <outline>
    <contour>
      <point x="135.0" y="1450.0" type="curve" smooth="yes"/>
      <point x="305.0" y="1450.0" type="line" smooth="yes"/>
      <point x="312.0" y="1450.0"/>
      <point x="315.0" y="1447.0"/>
      <point x="315.0" y="1440.0" type="curve" smooth="yes"/>
      <point x="315.0" y="10.0" type="line" smooth="yes"/>
      <point x="315.0" y="3.0"/>
      <point x="311.595344111" y="-8.07696705514e-16"/>
      <point x="305.0" y="0.0" type="curve" smooth="yes"/>
      <point x="135.0" y="0.0" type="line" smooth="yes"/>
      <point x="128.0" y="0.0"/>
      <point x="125.0" y="3.0"/>
      <point x="125.0" y="10.0" type="curve" smooth="yes"/>
      <point x="125.0" y="1440.0" type="line" smooth="yes"/>
      <point x="125.0" y="1447.0"/>
      <point x="128.0" y="1450.0"/>
    </contour>
    <contour>
      <point x="265.0" y="703.0" type="line"/>
      <point x="265.0" y="923.0"/>
      <point x="433.0" y="1085.0"/>
      <point x="640.0" y="1085.0" type="curve" smooth="yes"/>
      <point x="847.0" y="1085.0"/>
      <point x="985.0" y="963.0"/>
      <point x="985.0" y="763.0" type="curve" smooth="yes"/>
      <point x="985.0" y="10.0" type="line" smooth="yes"/>
      <point x="985.0" y="3.0"/>
      <point x="982.0" y="-8.57252759403e-16"/>
      <point x="975.0" y="0.0" type="curve" smooth="yes"/>
      <point x="805.0" y="0.0" type="line" smooth="yes"/>
      <point x="798.0" y="0.0"/>
      <point x="795.0" y="3.0"/>
      <point x="795.0" y="10.0" type="curve" smooth="yes"/>
      <point x="795.0" y="763.0" type="line" smooth="yes"/>
      <point x="795.0" y="883.0"/>
      <point x="727.0" y="955.0"/>
      <point x="590.0" y="955.0" type="curve" smooth="yes"/>
      <point x="423.0" y="955.0"/>
      <point x="315.0" y="833.0"/>
      <point x="315.0" y="623.0" type="curve"/>
    </contour>
  </outline>
</glyph>
<glyph name="i" format="2">
  <advance height="1920" width="445"/>
  <unicode hex="0069"/>
  <anchor x="224.0" y="0.0" name="bottom"/>
  <anchor x="224.0" y="0.0" name="ogonek"/>
  <outline>
    <contour>
      <point x="328.0" y="1400.0" type="curve" smooth="yes"/>
      <point x="328.0" y="1220.0" type="line" smooth="yes"/>
      <point x="328.0" y="1213.0"/>
      <point x="325.0" y="1210.0"/>
      <point x="318.0" y="1210.0" type="curve" smooth="yes"/>
      <point x="128.0" y="1210.0" type="line" smooth="yes"/>
      <point x="121.0" y="1210.0"/>
      <point x="118.0" y="1213.0"/>
      <point x="118.0" y="1220.0" type="curve" smooth="yes"/>
      <point x="118.0" y="1400.0" type="line" smooth="yes"/>
      <point x="118.0" y="1407.0"/>
      <point x="121.0" y="1410.0"/>
      <point x="128.0" y="1410.0" type="curve" smooth="yes"/>
      <point x="318.0" y="1410.0" type="line" smooth="yes"/>
      <point x="325.0" y="1410.0"/>
      <point x="328.0" y="1407.0"/>
    </contour>
    <contour>
      <point x="318.0" y="1040.0" type="curve" smooth="yes"/>
      <point x="318.0" y="10.0" type="line" smooth="yes"/>
      <point x="318.0" y="3.0"/>
      <point x="315.0" y="-8.57252759403e-16"/>
      <point x="308.0" y="0.0" type="curve" smooth="yes"/>
      <point x="138.0" y="0.0" type="line" smooth="yes"/>
      <point x="131.0" y="0.0"/>
      <point x="128.0" y="3.0"/>
      <point x="128.0" y="10.0" type="curve" smooth="yes"/>
      <point x="128.0" y="1040.0" type="line" smooth="yes"/>
      <point x="128.0" y="1047.0"/>
      <point x="131.0" y="1050.0"/>
      <point x="138.0" y="1050.0" type="curve" smooth="yes"/>
      <point x="308.0" y="1050.0" type="line" smooth="yes"/>
      <point x="315.0" y="1050.0"/>
      <point x="318.0" y="1047.0"/>
    </contour>
  </outline>
</glyph>
<glyph name="j" format="2">
  <advance height="1920" width="445"/>
  <unicode hex="006A"/>
  <outline>
    <contour>
      <point x="328.0" y="1400.0" type="curve" smooth="yes"/>
      <point x="328.0" y="1220.0" type="line" smooth="yes"/>
      <point x="328.0" y="1213.0"/>
      <point x="325.0" y="1210.0"/>
      <point x="318.0" y="1210.0" type="curve" smooth="yes"/>
      <point x="128.0" y="1210.0" type="line" smooth="yes"/>
      <point x="121.0" y="1210.0"/>
      <point x="118.0" y="1213.0"/>
      <point x="118.0" y="1220.0" type="curve" smooth="yes"/>
      <point x="118.0" y="1400.0" type="line" smooth="yes"/>
      <point x="118.0" y="1407.0"/>
      <point x="121.0" y="1410.0"/>
      <point x="128.0" y="1410.0" type="curve" smooth="yes"/>
      <point x="318.0" y="1410.0" type="line" smooth="yes"/>
      <point x="325.0" y="1410.0"/>
      <point x="328.0" y="1407.0"/>
    </contour>
    <contour>
      <point x="318.0" y="-98.0" type="line" smooth="yes"/>
      <point x="318.0" y="-305.388243546"/>
      <point x="196.923850901" y="-378.212324891"/>
      <point x="-91.0" y="-351.071861109" type="curve" smooth="yes"/>
      <point x="-99.0306840663" y="-350.314867586"/>
      <point x="-102.0" y="-347.039908704"/>
      <point x="-102.0" y="-340.0" type="curve" smooth="yes"/>
      <point x="-102.0" y="-230.0" type="line" smooth="yes"/>
      <point x="-102.0" y="-223.059452658"/>
      <point x="-99.045807618" y="-220.382714175"/>
      <point x="-91.9999880275" y="-221.216262324" type="curve" smooth="yes"/>
      <point x="57.081105309" y="-238.853141572"/>
      <point x="128.0" y="-205.207856125"/>
      <point x="128.0" y="-78.0" type="curve" smooth="yes"/>
      <point x="128.0" y="1040.0" type="line" smooth="yes"/>
      <point x="128.0" y="1047.0"/>
      <point x="131.0" y="1050.0"/>
      <point x="138.0" y="1050.0" type="curve" smooth="yes"/>
      <point x="308.0" y="1050.0" type="line" smooth="yes"/>
      <point x="315.0" y="1050.0"/>
      <point x="318.0" y="1047.0"/>
      <point x="318.0" y="1040.0" type="curve" smooth="yes"/>
    </contour>
  </outline>
</glyph>
<glyph name="l" format="2">
  <advance height="1920" width="445"/>
  <unicode hex="006C"/>
  <outline>
    <contour>
      <point x="138.0" y="1450.0" type="curve" smooth="yes"/>
      <point x="308.0" y="1450.0" type="line" smooth="yes"/>
      <point x="315.0" y="1450.0"/>
      <point x="318.0" y="1447.0"/>
      <point x="318.0" y="1440.0" type="curve" smooth="yes"/>
      <point x="318.0" y="10.0" type="line" smooth="yes"/>
      <point x="318.0" y="3.0"/>
      <point x="314.595703125" y="0.0"/>
      <point x="308.0" y="0.0" type="curve" smooth="yes"/>
      <point x="138.0" y="0.0" type="line" smooth="yes"/>
      <point x="131.0" y="0.0"/>
      <point x="128.0" y="3.0"/>
      <point x="128.0" y="10.0" type="curve" smooth="yes"/>
      <point x="128.0" y="1440.0" type="line" smooth="yes"/>
      <point x="128.0" y="1447.0"/>
      <point x="131.0" y="1450.0"/>
    </contour>
  </outline>
</glyph>
<glyph name="m" format="2">
  <advance height="1920" width="1665"/>
  <unicode hex="006D"/>
  <outline>
    <contour>
      <point x="858.0" y="703.0" type="line"/>
      <point x="858.0" y="923.0"/>
      <point x="1035.0" y="1085.0"/>
      <point x="1222.0" y="1085.0" type="curve" smooth="yes"/>
      <point x="1409.0" y="1085.0"/>
      <point x="1538.0" y="962.991378922"/>
      <point x="1538.0" y="763.0" type="curve" smooth="yes"/>
      <point x="1538.0" y="10.0" type="line" smooth="yes"/>
      <point x="1538.0" y="3.0"/>
      <point x="1535.0" y="-8.57252759403e-16"/>
      <point x="1528.0" y="0.0" type="curve" smooth="yes"/>
      <point x="1358.0" y="0.0" type="line" smooth="yes"/>
      <point x="1351.0" y="0.0"/>
      <point x="1348.0" y="3.0"/>
      <point x="1348.0" y="10.0" type="curve" smooth="yes"/>
      <point x="1348.0" y="763.0" type="line" smooth="yes"/>
      <point x="1348.0" y="882.999370063"/>
      <point x="1289.0" y="955.0"/>
      <point x="1172.0" y="955.0" type="curve" smooth="yes"/>
      <point x="1025.0" y="955.0"/>
      <point x="928.0" y="833.0"/>
      <point x="928.0" y="623.0" type="curve"/>
    </contour>
    <contour>
      <point x="138.0" y="1050.0" type="curve" smooth="yes"/>
      <point x="298.0" y="1050.0" type="line" smooth="yes"/>
      <point x="305.0" y="1050.0"/>
      <point x="308.0" y="1047.0"/>
      <point x="308.0" y="1040.0" type="curve" smooth="yes"/>
      <point x="308.0" y="852.0" type="line"/>
      <point x="318.0" y="825.0" type="line"/>
      <point x="318.0" y="10.0" type="line" smooth="yes"/>
      <point x="318.0" y="3.0"/>
      <point x="315.0" y="-8.57252759403e-16"/>
      <point x="308.0" y="0.0" type="curve" smooth="yes"/>
      <point x="138.0" y="0.0" type="line" smooth="yes"/>
      <point x="131.0" y="0.0"/>
      <point x="128.0" y="3.0"/>
      <point x="128.0" y="10.0" type="curve" smooth="yes"/>
      <point x="128.0" y="1040.0" type="line" smooth="yes"/>
      <point x="128.0" y="1047.0"/>
      <point x="131.0" y="1050.0"/>
    </contour>
    <contour>
      <point x="268.0" y="703.0" type="line"/>
      <point x="268.0" y="923.0"/>
      <point x="425.0" y="1085.0"/>
      <point x="612.0" y="1085.0" type="curve" smooth="yes"/>
      <point x="799.0" y="1085.0"/>
      <point x="928.0" y="962.994233362"/>
      <point x="928.0" y="763.0" type="curve" smooth="yes"/>
      <point x="928.0" y="10.0" type="line" smooth="yes"/>
      <point x="928.0" y="3.0"/>
      <point x="925.0" y="-8.57252759403e-16"/>
      <point x="918.0" y="0.0" type="curve" smooth="yes"/>
      <point x="748.0" y="0.0" type="line" smooth="yes"/>
      <point x="741.0" y="0.0"/>
      <point x="738.0" y="3.0"/>
      <point x="738.0" y="10.0" type="curve" smooth="yes"/>
      <point x="738.0" y="763.0" type="line" smooth="yes"/>
      <point x="738.0" y="882.999785107"/>
      <point x="679.0" y="955.0"/>
      <point x="562.0" y="955.0" type="curve" smooth="yes"/>
      <point x="415.0" y="955.0"/>
      <point x="318.0" y="833.0"/>
      <point x="318.0" y="623.0" type="curve"/>
    </contour>
  </outline>
</glyph>
<glyph name="p" format="2">
  <advance height="1920" width="1135"/>
  <unicode hex="0070"/>
  <outline>
    <contour>
      <point x="240.0" y="633.0" type="line"/>
      <point x="240.0" y="923.0"/>
      <point x="447.0" y="1085.0"/>
      <point x="644.0" y="1085.0" type="curve" smooth="yes"/>
      <point x="851.0" y="1085.0"/>
      <point x="1060.0" y="943.0"/>
      <point x="1060.0" y="603.0" type="curve" smooth="yes"/>
      <point x="1060.0" y="447.0" type="line" smooth="yes"/>
      <point x="1060.0" y="107.0"/>
      <point x="851.0" y="-35.0"/>
      <point x="644.0" y="-35.0" type="curve" smooth="yes"/>
      <point x="447.0" y="-35.0"/>
      <point x="240.0" y="127.0"/>
      <point x="240.0" y="417.0" type="curve"/>
      <point x="310.0" y="437.0" type="line"/>
      <point x="310.0" y="227.0"/>
      <point x="447.0" y="105.0"/>
      <point x="604.0" y="105.0" type="curve" smooth="yes"/>
      <point x="751.0" y="105.0"/>
      <point x="870.0" y="207.0"/>
      <point x="870.0" y="417.0" type="curve" smooth="yes"/>
      <point x="870.0" y="633.0" type="line" smooth="yes"/>
      <point x="870.0" y="843.0"/>
      <point x="751.0" y="945.0"/>
      <point x="604.0" y="945.0" type="curve" smooth="yes"/>
      <point x="447.0" y="945.0"/>
      <point x="310.0" y="823.0"/>
      <point x="310.0" y="613.0" type="curve"/>
    </contour>
    <contour>
      <point x="120.0" y="-350.0" type="curve" smooth="yes"/>
      <point x="120.0" y="1040.0" type="line" smooth="yes"/>
      <point x="120.0" y="1047.0"/>
      <point x="123.0" y="1050.0"/>
      <point x="130.0" y="1050.0" type="curve" smooth="yes"/>
      <point x="285.0" y="1050.0" type="line" smooth="yes"/>
      <point x="292.0" y="1050.0"/>
      <point x="295.0" y="1047.0"/>
      <point x="295.0" y="1040.0" type="curve" smooth="yes"/>
      <point x="295.0" y="800.0" type="line"/>
      <point x="310.0" y="756.0" type="line"/>
      <point x="310.0" y="-350.0" type="line" smooth="yes"/>
      <point x="310.0" y="-357.0"/>
      <point x="307.0" y="-360.0"/>
      <point x="300.0" y="-360.0" type="curve" smooth="yes"/>
      <point x="130.0" y="-360.0" type="line" smooth="yes"/>
      <point x="123.0" y="-360.0"/>
      <point x="120.0" y="-357.0"/>
    </contour>
  </outline>
</glyph>
<glyph name="q" format="2">
  <advance height="1920" width="1135"/>
  <unicode hex="0071"/>
  <outline>
    <contour>
      <point x="1005.0" y="-360.0" type="curve" smooth="yes"/>
      <point x="835.0" y="-360.0" type="line" smooth="yes"/>
      <point x="828.0" y="-360.0"/>
      <point x="825.0" y="-357.0"/>
      <point x="825.0" y="-350.0" type="curve" smooth="yes"/>
      <point x="825.0" y="875.0" type="line"/>
      <point x="958.0" y="1075.0" type="line" smooth="yes"/>
      <point x="963.219573922" y="1082.84898334"/>
      <point x="968.0" y="1085.0"/>
      <point x="975.0" y="1085.0" type="curve" smooth="yes"/>
      <point x="1005.0" y="1085.0" type="line" smooth="yes"/>
      <point x="1012.0" y="1085.0"/>
      <point x="1015.0" y="1082.0"/>
      <point x="1015.0" y="1075.0" type="curve" smooth="yes"/>
      <point x="1015.0" y="-350.0" type="line" smooth="yes"/>
      <point x="1015.0" y="-357.0"/>
      <point x="1012.0" y="-360.0"/>
    </contour>
    <contour>
      <point x="895.0" y="417.0" type="line"/>
      <point x="895.0" y="127.0"/>
      <point x="688.0" y="-35.0"/>
      <point x="491.0" y="-35.0" type="curve" smooth="yes"/>
      <point x="284.0" y="-35.0"/>
      <point x="75.0" y="107.0"/>
      <point x="75.0" y="447.0" type="curve" smooth="yes"/>
      <point x="75.0" y="603.0" type="line" smooth="yes"/>
      <point x="75.0" y="923.0"/>
      <point x="274.0" y="1085.0"/>
      <point x="481.0" y="1085.0" type="curve" smooth="yes"/>
      <point x="708.0" y="1085.0"/>
      <point x="925.0" y="923.0"/>
      <point x="925.0" y="633.0" type="curve"/>
      <point x="825.0" y="613.0" type="line"/>
      <point x="825.0" y="823.0"/>
      <point x="688.0" y="945.0"/>
      <point x="531.0" y="945.0" type="curve" smooth="yes"/>
      <point x="384.0" y="945.0"/>
      <point x="265.0" y="843.0"/>
      <point x="265.0" y="633.0" type="curve" smooth="yes"/>
      <point x="265.0" y="417.0" type="line" smooth="yes"/>
      <point x="265.0" y="207.0"/>
      <point x="384.0" y="105.0"/>
      <point x="531.0" y="105.0" type="curve" smooth="yes"/>
      <point x="688.0" y="105.0"/>
      <point x="825.0" y="227.0"/>
      <point x="825.0" y="437.0" type="curve"/>
    </contour>
  </outline>
</glyph>
<glyph name="r" format="2">
  <advance height="1920" width="715"/>
  <unicode hex="0072"/>
  <anchor x="224.0" y="0.0" name="bottom"/>
  <anchor x="375.0" y="1050.0" name="top"/>
  <outline>
    <contour>
      <point x="130.0" y="1050.0" type="curve" smooth="yes"/>
      <point x="285.0" y="1050.0" type="line" smooth="yes"/>
      <point x="292.0" y="1050.0"/>
      <point x="295.0" y="1047.0"/>
      <point x="295.0" y="1040.0" type="curve" smooth="yes"/>
      <point x="295.0" y="774.0" type="line"/>
      <point x="310.0" y="765.0" type="line"/>
      <point x="310.0" y="10.0" type="line" smooth="yes"/>
      <point x="310.0" y="3.0"/>
      <point x="307.0" y="-8.57252759403e-16"/>
      <point x="300.0" y="0.0" type="curve" smooth="yes"/>
      <point x="130.0" y="0.0" type="line" smooth="yes"/>
      <point x="123.0" y="0.0"/>
      <point x="120.0" y="3.0"/>
      <point x="120.0" y="10.0" type="curve" smooth="yes"/>
      <point x="120.0" y="1040.0" type="line" smooth="yes"/>
      <point x="120.0" y="1047.0"/>
      <point x="123.0" y="1050.0"/>
    </contour>
    <contour>
      <point x="270.0" y="723.0" type="line"/>
      <point x="270.0" y="918.681735595"/>
      <point x="440.591277662" y="1087.69075244"/>
      <point x="650.999992139" y="1076.0286074" type="curve" smooth="yes"/>
      <point x="662.009776612" y="1075.41837744"/>
      <point x="665.0" y="1072.26208159"/>
      <point x="665.0" y="1065.0" type="curve" smooth="yes"/>
      <point x="665.0" y="925.0" type="line" smooth="yes"/>
      <point x="665.0" y="918.345899562"/>
      <point x="662.004480766" y="915.249835181"/>
      <point x="648.000003333" y="914.644755946" type="curve" smooth="yes"/>
      <point x="502.557546312" y="908.360750625"/>
      <point x="310.0" y="826.542808017"/>
      <point x="310.0" y="663.0" type="curve"/>
    </contour>
  </outline>
</glyph>
<glyph name="s" format="2">
  <advance height="1920" width="1000"/>
  <unicode hex="0073"/>
  <anchor x="514.0" y="0.0" name="bottom"/>
  <anchor x="495.0" y="1050.0" name="top"/>
  <outline>
    <contour>
      <point x="72.0" y="358.0" type="curve" smooth="yes"/>
      <point x="212.0" y="358.0" type="line" smooth="yes"/>
      <point x="219.0" y="358.0"/>
      <point x="224.0" y="356.0"/>
      <point x="224.0" y="349.0" type="curve" smooth="yes"/>
      <point x="224.0" y="300.0"/>
      <point x="224.0" y="280.0"/>
      <point x="235.0" y="248.0" type="curve" smooth="yes"/>
      <point x="270.0" y="147.0"/>
      <point x="383.0" y="105.0"/>
      <point x="524.0" y="105.0" type="curve" smooth="yes"/>
      <point x="669.0" y="105.0"/>
      <point x="762.0" y="169.0"/>
      <point x="762.0" y="282.475426448" type="curve" smooth="yes"/>
      <point x="762.0" y="527.115782603"/>
      <point x="112.0" y="388.82600079"/>
      <point x="112.0" y="780.436523438" type="curve" smooth="yes"/>
      <point x="112.0" y="979.0"/>
      <point x="267.0" y="1085.0"/>
      <point x="494.0" y="1085.0" type="curve" smooth="yes"/>
      <point x="687.0" y="1085.0"/>
      <point x="827.0" y="1014.0"/>
      <point x="877.0" y="885.0" type="curve" smooth="yes"/>
      <point x="889.0" y="855.0"/>
      <point x="897.0" y="814.0"/>
      <point x="897.0" y="742.0" type="curve" smooth="yes"/>
      <point x="897.0" y="735.0"/>
      <point x="894.0" y="733.0"/>
      <point x="887.0" y="733.0" type="curve" smooth="yes"/>
      <point x="748.0" y="733.0" type="line" smooth="yes"/>
      <point x="741.0" y="733.0"/>
      <point x="737.0" y="736.0"/>
      <point x="737.0" y="743.0" type="curve" smooth="yes"/>
      <point x="737.0" y="791.0"/>
      <point x="737.0" y="811.0"/>
      <point x="721.0" y="843.0" type="curve" smooth="yes"/>
      <point x="687.0" y="911.0"/>
      <point x="602.0" y="950.0"/>
      <point x="492.0" y="950.0" type="curve" smooth="yes"/>
      <point x="364.0" y="950.0"/>
      <point x="282.0" y="895.0"/>
      <point x="282.0" y="797.249715776" type="curve" smooth="yes"/>
      <point x="282.0" y="538.719830302"/>
      <point x="932.0" y="694.101021494"/>
      <point x="932.0" y="291.155205383" type="curve" smooth="yes"/>
      <point x="932.0" y="70.0"/>
      <point x="778.0" y="-36.0"/>
      <point x="514.0" y="-36.0" type="curve" smooth="yes"/>
      <point x="281.0" y="-36.0"/>
      <point x="128.0" y="35.0"/>
      <point x="80.0" y="198.0" type="curve" smooth="yes"/>
      <point x="64.0" y="252.0"/>
      <point x="63.0" y="295.0"/>
      <point x="63.0" y="350.0" type="curve" smooth="yes"/>
      <point x="63.0" y="357.0"/>
      <point x="65.0" y="358.0"/>
    </contour>
  </outline>
</glyph>
<glyph name="t" format="2">
  <advance height="1920" width="625"/>
  <unicode hex="0074"/>
  <anchor x="354.0" y="0.0" name="bottom"/>
  <outline>
    <contour>
      <point x="570.0" y="910.0" type="curve" smooth="yes"/>
      <point x="40.0" y="910.0" type="line" smooth="yes"/>
      <point x="33.0" y="910.0"/>
      <point x="30.0" y="913.0"/>
      <point x="30.0" y="920.0" type="curve" smooth="yes"/>
      <point x="30.0" y="1040.0" type="line" smooth="yes"/>
      <point x="30.0" y="1047.0"/>
      <point x="33.0" y="1050.0"/>
      <point x="40.0" y="1050.0" type="curve" smooth="yes"/>
      <point x="570.0" y="1050.0" type="line" smooth="yes"/>
      <point x="577.0" y="1050.0"/>
      <point x="580.0" y="1047.0"/>
      <point x="580.0" y="1040.0" type="curve" smooth="yes"/>
      <point x="580.0" y="920.0" type="line" smooth="yes"/>
      <point x="580.0" y="913.0"/>
      <point x="577.0" y="910.0"/>
    </contour>
    <contour>
      <point x="585.0" y="120.0" type="curve" smooth="yes"/>
      <point x="585.0" y="10.0" type="line" smooth="yes"/>
      <point x="585.0" y="2.96148477967"/>
      <point x="582.055664062" y="-0.396484375"/>
      <point x="575.0" y="-1.30859375" type="curve" smooth="yes"/>
      <point x="287.491210938" y="-38.482421875"/>
      <point x="160.0" y="44.3721379873"/>
      <point x="160.0" y="252.0" type="curve" smooth="yes"/>
      <point x="160.0" y="1290.0" type="line" smooth="yes"/>
      <point x="160.0" y="1297.0"/>
      <point x="163.0" y="1300.0"/>
      <point x="170.0" y="1300.0" type="curve" smooth="yes"/>
      <point x="335.0" y="1300.0" type="line" smooth="yes"/>
      <point x="342.0" y="1300.0"/>
      <point x="345.0" y="1297.0"/>
      <point x="345.0" y="1290.0" type="curve" smooth="yes"/>
      <point x="345.0" y="272.0" type="line" smooth="yes"/>
      <point x="345.0" y="144.507012174"/>
      <point x="426.081920661" y="110.674364653"/>
      <point x="575.999963478" y="128.901314649" type="curve" smooth="yes"/>
      <point x="582.046597246" y="129.636460928"/>
      <point x="585.0" y="126.950972548"/>
    </contour>
  </outline>
</glyph>
<glyph name="u" format="2">
  <advance height="1920" width="1110"/>
  <unicode hex="0075"/>
  <anchor x="554.0" y="0.0" name="bottom"/>
  <anchor x="890.0" y="0.0" name="ogonek"/>
  <anchor x="555.0" y="1050.0" name="top"/>
  <outline>
    <contour>
      <point x="972.0" y="0.0" type="curve" smooth="yes"/>
      <point x="817.0" y="0.0" type="line" smooth="yes"/>
      <point x="810.0" y="0.0"/>
      <point x="807.0" y="3.0"/>
      <point x="807.0" y="10.0" type="curve" smooth="yes"/>
      <point x="807.0" y="193.0" type="line"/>
      <point x="792.0" y="250.0" type="line"/>
      <point x="792.0" y="1040.0" type="line" smooth="yes"/>
      <point x="792.0" y="1047.0"/>
      <point x="795.0" y="1050.0"/>
      <point x="802.0" y="1050.0" type="curve" smooth="yes"/>
      <point x="972.0" y="1050.0" type="line" smooth="yes"/>
      <point x="979.0" y="1050.0"/>
      <point x="982.0" y="1047.0"/>
      <point x="982.0" y="1040.0" type="curve" smooth="yes"/>
      <point x="982.0" y="10.0" type="line" smooth="yes"/>
      <point x="982.0" y="3.0"/>
      <point x="979.0" y="-8.57252759403e-16"/>
    </contour>
    <contour>
      <point x="842.0" y="347.0" type="line"/>
      <point x="842.0" y="127.0"/>
      <point x="675.0" y="-35.0"/>
      <point x="468.0" y="-35.0" type="curve" smooth="yes"/>
      <point x="261.0" y="-35.0"/>
      <point x="122.0" y="87.0231529633"/>
      <point x="122.0" y="287.0" type="curve" smooth="yes"/>
      <point x="122.0" y="1040.0" type="line" smooth="yes"/>
      <point x="122.0" y="1047.0"/>
      <point x="125.0" y="1050.0"/>
      <point x="132.0" y="1050.0" type="curve" smooth="yes"/>
      <point x="302.0" y="1050.0" type="line" smooth="yes"/>
      <point x="309.0" y="1050.0"/>
      <point x="312.0" y="1047.0"/>
      <point x="312.0" y="1040.0" type="curve" smooth="yes"/>
      <point x="312.0" y="287.0" type="line" smooth="yes"/>
      <point x="313.572312153" y="167.032582705"/>
      <point x="381.0" y="95.0"/>
      <point x="518.0" y="95.0" type="curve" smooth="yes"/>
      <point x="685.0" y="95.0"/>
      <point x="792.0" y="217.0"/>
      <point x="792.0" y="427.0" type="curve"/>
    </contour>
  </outline>
</glyph>
<glyph name="v" format="2">
  <advance height="1920" width="1000"/>
  <unicode hex="0076"/>
  <outline>
    <contour>
      <point x="510.0" y="158.0" type="line"/>
      <point x="808.0" y="1040.0" type="line" smooth="yes"/>
      <point x="810.0" y="1047.0"/>
      <point x="815.0" y="1050.0"/>
      <point x="822.0" y="1050.0" type="curve" smooth="yes"/>
      <point x="972.0" y="1050.0" type="line" smooth="yes"/>
      <point x="979.0" y="1050.0"/>
      <point x="981.0" y="1047.0"/>
      <point x="978.0" y="1040.0" type="curve" smooth="yes"/>
      <point x="596.0" y="10.0" type="line" smooth="yes"/>
      <point x="593.0" y="2.0"/>
      <point x="589.0" y="0.0"/>
      <point x="582.0" y="0.0" type="curve" smooth="yes"/>
      <point x="408.0" y="0.0" type="line" smooth="yes"/>
      <point x="401.0" y="0.0"/>
      <point x="397.0" y="3.0"/>
      <point x="394.0" y="10.0" type="curve" smooth="yes"/>
      <point x="22.0" y="1040.0" type="line" smooth="yes"/>
      <point x="20.0" y="1047.0"/>
      <point x="21.0" y="1050.0"/>
      <point x="28.0" y="1050.0" type="curve" smooth="yes"/>
      <point x="198.0" y="1050.0" type="line" smooth="yes"/>
      <point x="205.0" y="1050.0"/>
      <point x="209.0" y="1047.0"/>
      <point x="211.0" y="1040.0" type="curve" smooth="yes"/>
    </contour>
  </outline>
</glyph>
<glyph name="w" format="2">
  <advance height="1920" width="1445"/>
  <unicode hex="0077"/>
  <outline>
    <contour>
      <point x="1040.0" y="208.0" type="line"/>
      <point x="1248.0" y="1040.0" type="line" smooth="yes"/>
      <point x="1249.76470588" y="1047.05882353"/>
      <point x="1253.35462039" y="1050.0"/>
      <point x="1260.0" y="1050.0" type="curve" smooth="yes"/>
      <point x="1400.0" y="1050.0" type="line" smooth="yes"/>
      <point x="1407.34529823" y="1050.0"/>
      <point x="1408.8849439" y="1046.60371504"/>
      <point x="1407.0" y="1040.0" type="curve" smooth="yes"/>
      <point x="1113.0" y="10.0" type="line" smooth="yes"/>
      <point x="1111.07713172" y="3.26342065446"/>
      <point x="1107.02868919" y="-8.60766172139e-16"/>
      <point x="1100.0" y="0.0" type="curve" smooth="yes"/>
      <point x="955.0" y="0.0" type="line" smooth="yes"/>
      <point x="948.034188607" y="0.0"/>
      <point x="944.118244159" y="2.30794287109"/>
      <point x="942.0" y="10.0" type="curve" smooth="yes"/>
      <point x="725.0" y="798.0" type="line"/>
      <point x="513.0" y="10.0" type="line" smooth="yes"/>
      <point x="510.857994137" y="2.038204623"/>
      <point x="507.028689192" y="-8.60766172139e-16"/>
      <point x="500.0" y="0.0" type="curve" smooth="yes"/>
      <point x="345.0" y="0.0" type="line" smooth="yes"/>
      <point x="338.034188607" y="0.0"/>
      <point x="334.262137682" y="2.07482376566"/>
      <point x="332.0" y="10.0" type="curve" smooth="yes"/>
      <point x="38.0" y="1040.0" type="line" smooth="yes"/>
      <point x="35.9264592064" y="1047.26444564"/>
      <point x="38.0" y="1050.0"/>
      <point x="45.0" y="1050.0" type="curve" smooth="yes"/>
      <point x="215.0" y="1050.0" type="line" smooth="yes"/>
      <point x="221.965811393" y="1050.0"/>
      <point x="226.228089514" y="1047.29816596"/>
      <point x="228.0" y="1040.0" type="curve" smooth="yes"/>
      <point x="430.0" y="208.0" type="line"/>
      <point x="657.0" y="1040.0" type="line" smooth="yes"/>
      <point x="658.985383588" y="1047.27682443"/>
      <point x="662.971310808" y="1050.0"/>
      <point x="670.0" y="1050.0" type="curve" smooth="yes"/>
      <point x="805.0" y="1050.0" type="line" smooth="yes"/>
      <point x="811.965811393" y="1050.0"/>
      <point x="816.056959601" y="1047.28202528"/>
      <point x="818.0" y="1040.0" type="curve" smooth="yes"/>
    </contour>
  </outline>
</glyph>
<glyph name="x" format="2">
  <advance height="1920" width="1000"/>
  <unicode hex="0078"/>
  <outline>
    <contour>
      <point x="230.0" y="0.0" type="curve" smooth="yes"/>
      <point x="50.0" y="0.0" type="line" smooth="yes"/>
      <point x="43.0" y="0.0"/>
      <point x="41.929152123" y="2.66612910352"/>
      <point x="47.0" y="10.0" type="curve" smooth="yes"/>
      <point x="410.0" y="535.0" type="line"/>
      <point x="62.0" y="1040.0" type="line" smooth="yes"/>
      <point x="56.6208029692" y="1047.80601868"/>
      <point x="58.0" y="1050.0"/>
      <point x="65.0" y="1050.0" type="curve" smooth="yes"/>
      <point x="265.0" y="1050.0" type="line" smooth="yes"/>
      <point x="272.058194589" y="1050.0"/>
      <point x="276.104469952" y="1047.70201926"/>
      <point x="281.0" y="1040.0" type="curve" smooth="yes"/>
      <point x="513.0" y="675.0" type="line"/>
      <point x="734.0" y="1040.0" type="line" smooth="yes"/>
      <point x="738.710934496" y="1047.78050267"/>
      <point x="742.890667072" y="1050.0"/>
      <point x="750.0" y="1050.0" type="curve" smooth="yes"/>
      <point x="930.0" y="1050.0" type="line" smooth="yes"/>
      <point x="937.0" y="1050.0"/>
      <point x="938.209292204" y="1047.38109624"/>
      <point x="933.0" y="1040.0" type="curve" smooth="yes"/>
      <point x="590.0" y="554.0" type="line"/>
      <point x="948.0" y="10.0" type="line" smooth="yes"/>
      <point x="953.015883046" y="2.37809950483"/>
      <point x="952.0" y="-8.57252759403e-16"/>
      <point x="945.0" y="0.0" type="curve" smooth="yes"/>
      <point x="755.0" y="0.0" type="line" smooth="yes"/>
      <point x="746.941805411" y="0.0"/>
      <point x="743.913805473" y="2.30627270637"/>
      <point x="739.0" y="10.0" type="curve" smooth="yes"/>
      <point x="488.0" y="403.0" type="line"/>
      <point x="246.0" y="10.0" type="line" smooth="yes"/>
      <point x="241.499983569" y="2.69212207706"/>
      <point x="237.109332928" y="-8.70642181484e-16"/>
    </contour>
  </outline>
</glyph>
<glyph name="y" format="2">
  <advance height="1920" width="1000"/>
  <unicode hex="0079"/>
  <anchor x="505.0" y="1050.0" name="top"/>
  <outline>
    <contour>
      <point x="497.0" y="208.0" type="line"/>
      <point x="792.0" y="1040.0" type="line" smooth="yes"/>
      <point x="794.428145561" y="1046.84819358"/>
      <point x="797.971310808" y="1050.0"/>
      <point x="805.0" y="1050.0" type="curve" smooth="yes"/>
      <point x="950.0" y="1050.0" type="line" smooth="yes"/>
      <point x="957.0" y="1050.0"/>
      <point x="958.44598189" y="1046.57786251"/>
      <point x="956.0" y="1040.0" type="curve" smooth="yes"/>
      <point x="528.0" y="-111.0" type="line" smooth="yes"/>
      <point x="423.07252976" y="-392.99257627"/>
      <point x="321.15505359" y="-399.636933921"/>
      <point x="126.0" y="-362.859193422" type="curve" smooth="yes"/>
      <point x="113.887489635" y="-360.576543012"/>
      <point x="111.0" y="-357.04433992"/>
      <point x="111.0" y="-350.0" type="curve" smooth="yes"/>
      <point x="111.0" y="-230.0" type="line" smooth="yes"/>
      <point x="111.0" y="-223.088944339"/>
      <point x="113.702939914" y="-220.919428555"/>
      <point x="122.0" y="-223.418875241" type="curve" smooth="yes"/>
      <point x="270.536747508" y="-268.164806638"/>
      <point x="328.777650783" y="-234.548537599"/>
      <point x="402.0" y="-10.0" type="curve"/>
      <point x="39.0" y="1040.0" type="line" smooth="yes"/>
      <point x="36.7086575131" y="1046.62785017"/>
      <point x="38.0" y="1050.0"/>
      <point x="45.0" y="1050.0" type="curve" smooth="yes"/>
      <point x="215.0" y="1050.0" type="line" smooth="yes"/>
      <point x="222.0" y="1050.0"/>
      <point x="225.950972096" y="1046.33751381"/>
      <point x="228.0" y="1040.0" type="curve" smooth="yes"/>
    </contour>
  </outline>
</glyph>
<glyph name="z" format="2">
  <advance height="1920" width="1000"/>
  <unicode hex="007A"/>
  <anchor x="525.0" y="1050.0" name="top"/>
  <outline>
    <contour>
      <point x="59.0" y="10.0" type="curve" smooth="yes"/>
      <point x="689.0" y="900.0" type="line"/>
      <point x="132.0" y="900.0" type="line" smooth="yes"/>
      <point x="123.480306556" y="900.0"/>
      <point x="122.0" y="901.404655889"/>
      <point x="122.0" y="910.0" type="curve" smooth="yes"/>
      <point x="122.0" y="1040.0" type="line" smooth="yes"/>
      <point x="122.0" y="1048.52072985"/>
      <point x="123.404669731" y="1050.0"/>
      <point x="132.0" y="1050.0" type="curve" smooth="yes"/>
      <point x="972.0" y="1050.0" type="line" smooth="yes"/>
      <point x="979.0" y="1050.0"/>
      <point x="980.549434599" y="1047.85214117"/>
      <point x="975.0" y="1040.0" type="curve" smooth="yes"/>
      <point x="346.0" y="150.0" type="line"/>
      <point x="952.0" y="150.0" type="line" smooth="yes"/>
      <point x="959.0" y="150.0"/>
      <point x="962.0" y="147.0"/>
      <point x="962.0" y="140.0" type="curve" smooth="yes"/>
      <point x="962.0" y="10.0" type="line" smooth="yes"/>
      <point x="962.0" y="3.01527573634"/>
      <point x="959.0" y="-8.57252759403e-16"/>
      <point x="952.0" y="0.0" type="curve" smooth="yes"/>
      <point x="62.0" y="0.0" type="line" smooth="yes"/>
      <point x="55.0" y="0.0"/>
      <point x="53.16627418" y="1.75870479394"/>
    </contour>
  </outline>
</glyph>
<glyph name="braceleft" format="2">
  <advance height="2048" width="575"/>
  <unicode hex="007B"/>
  <outline>
    <contour>
      <point x="155.0" y="1278.0" type="line" smooth="yes"/>
      <point x="155.0" y="1505.0"/>
      <point x="197.0" y="1598.0"/>
      <point x="465.0" y="1600.0" type="curve" smooth="yes"/>
      <point x="472.0" y="1600.0"/>
      <point x="475.0" y="1597.0"/>
      <point x="475.0" y="1590.0" type="curve" smooth="yes"/>
      <point x="475.0" y="1520.0" type="line" smooth="yes"/>
      <point x="475.0" y="1513.0"/>
      <point x="472.0" y="1510.0"/>
      <point x="464.0" y="1510.0" type="curve" smooth="yes"/>
      <point x="365.0" y="1506.0"/>
      <point x="330.0" y="1452.0"/>
      <point x="330.0" y="1278.0" type="curve" smooth="yes"/>
      <point x="330.0" y="956.0" type="line" smooth="yes"/>
      <point x="330.0" y="771.0"/>
      <point x="302.0" y="668.0"/>
      <point x="146.0" y="620.0" type="curve"/>
      <point x="302.0" y="572.0"/>
      <point x="330.0" y="469.0"/>
      <point x="330.0" y="284.0" type="curve" smooth="yes"/>
      <point x="330.0" y="-38.0" type="line" smooth="yes"/>
      <point x="330.0" y="-211.0"/>
      <point x="365.0" y="-264.0"/>
      <point x="462.0" y="-270.0" type="curve" smooth="yes"/>
      <point x="472.0" y="-271.0"/>
      <point x="475.0" y="-273.0"/>
      <point x="475.0" y="-280.0" type="curve" smooth="yes"/>
      <point x="475.0" y="-350.0" type="line" smooth="yes"/>
      <point x="475.0" y="-357.0"/>
      <point x="472.0" y="-360.0"/>
      <point x="463.0" y="-360.0" type="curve" smooth="yes"/>
      <point x="197.0" y="-356.0"/>
      <point x="155.0" y="-265.0"/>
      <point x="155.0" y="-38.0" type="curve" smooth="yes"/>
      <point x="155.0" y="284.0" type="line" smooth="yes"/>
      <point x="155.0" y="457.0"/>
      <point x="119.0" y="521.0"/>
      <point x="22.0" y="552.0" type="curve" smooth="yes"/>
      <point x="13.0" y="555.0"/>
      <point x="10.0" y="559.0"/>
      <point x="10.0" y="566.0" type="curve" smooth="yes"/>
      <point x="10.0" y="674.0" type="line" smooth="yes"/>
      <point x="10.0" y="681.0"/>
      <point x="13.0" y="685.0"/>
      <point x="20.0" y="687.0" type="curve" smooth="yes"/>
      <point x="121.0" y="720.0"/>
      <point x="155.0" y="782.0"/>
      <point x="155.0" y="956.0" type="curve" smooth="yes"/>
    </contour>
  </outline>
</glyph>
<glyph name="braceright" format="2">
  <advance height="2048" width="575"/>
  <unicode hex="007D"/>
  <outline>
    <contour>
      <point x="420.0" y="-38.0" type="line" smooth="yes"/>
      <point x="420.0" y="-265.0"/>
      <point x="378.0" y="-358.0"/>
      <point x="110.0" y="-360.0" type="curve" smooth="yes"/>
      <point x="103.0" y="-360.0"/>
      <point x="100.0" y="-357.0"/>
      <point x="100.0" y="-350.0" type="curve" smooth="yes"/>
      <point x="100.0" y="-280.0" type="line" smooth="yes"/>
      <point x="100.0" y="-273.0"/>
      <point x="103.0" y="-270.0"/>
      <point x="111.0" y="-270.0" type="curve" smooth="yes"/>
      <point x="210.0" y="-266.0"/>
      <point x="245.0" y="-212.0"/>
      <point x="245.0" y="-38.0" type="curve" smooth="yes"/>
      <point x="245.0" y="284.0" type="line" smooth="yes"/>
      <point x="245.0" y="469.0"/>
      <point x="273.0" y="572.0"/>
      <point x="429.0" y="620.0" type="curve"/>
      <point x="273.0" y="668.0"/>
      <point x="245.0" y="771.0"/>
      <point x="245.0" y="956.0" type="curve" smooth="yes"/>
      <point x="245.0" y="1278.0" type="line" smooth="yes"/>
      <point x="245.0" y="1451.0"/>
      <point x="210.0" y="1504.0"/>
      <point x="113.0" y="1510.0" type="curve" smooth="yes"/>
      <point x="103.0" y="1511.0"/>
      <point x="100.0" y="1513.0"/>
      <point x="100.0" y="1520.0" type="curve" smooth="yes"/>
      <point x="100.0" y="1590.0" type="line" smooth="yes"/>
      <point x="100.0" y="1597.0"/>
      <point x="103.0" y="1600.0"/>
      <point x="112.0" y="1600.0" type="curve" smooth="yes"/>
      <point x="378.0" y="1596.0"/>
      <point x="420.0" y="1505.0"/>
      <point x="420.0" y="1278.0" type="curve" smooth="yes"/>
      <point x="420.0" y="956.0" type="line" smooth="yes"/>
      <point x="420.0" y="783.0"/>
      <point x="456.0" y="719.0"/>
      <point x="553.0" y="688.0" type="curve" smooth="yes"/>
      <point x="562.0" y="685.0"/>
      <point x="565.0" y="681.0"/>
      <point x="565.0" y="674.0" type="curve" smooth="yes"/>
      <point x="565.0" y="566.0" type="line" smooth="yes"/>
      <point x="565.0" y="559.0"/>
      <point x="562.0" y="555.0"/>
      <point x="555.0" y="553.0" type="curve" smooth="yes"/>
      <point x="454.0" y="520.0"/>
      <point x="420.0" y="458.0"/>
      <point x="420.0" y="284.0" type="curve" smooth="yes"/>
    </contour>
  </outline>
</glyph>
<glyph name="asciitilde" format="2">
  <advance height="2048" width="1330"/>
  <unicode hex="007E"/>
  <outline>
    <contour>
      <point x="422.0" y="659.0" type="curve" smooth="yes"/>
      <point x="329.912721746" y="659.0"/>
      <point x="263.124208212" y="589.868595041"/>
      <point x="260.084111394" y="447.0" type="curve" smooth="yes"/>
      <point x="259.956415432" y="440.99895994"/>
      <point x="256.91444093" y="438.0"/>
      <point x="250.0" y="438.0" type="curve" smooth="yes"/>
      <point x="110.0" y="438.0" type="line" smooth="yes"/>
      <point x="102.910712222" y="438.0"/>
      <point x="99.9682691489" y="440.998566181"/>
      <point x="100.088976266" y="446.999990836" type="curve" smooth="yes"/>
      <point x="104.280230073" y="655.384504883"/>
      <point x="251.445623234" y="809.0"/>
      <point x="422.0" y="809.0" type="curve" smooth="yes"/>
      <point x="661.0" y="809.0"/>
      <point x="757.0" y="552.0"/>
      <point x="909.0" y="552.0" type="curve" smooth="yes"/>
      <point x="1000.87221347" y="552.0"/>
      <point x="1067.62867997" y="620.809942797"/>
      <point x="1070.89595963" y="763.0" type="curve" smooth="yes"/>
      <point x="1071.05683738" y="770.00130352"/>
      <point x="1074.10603732" y="773.0"/>
      <point x="1081.0" y="773.0" type="curve" smooth="yes"/>
      <point x="1220.0" y="773.0" type="line" smooth="yes"/>
      <point x="1227.10958856" y="773.0"/>
      <point x="1230.04227892" y="770.001779547"/>
      <point x="1229.89084289" y="763.000009156" type="curve" smooth="yes"/>
      <point x="1225.3948746" y="555.125178547"/>
      <point x="1079.28150859" y="402.0"/>
      <point x="909.0" y="402.0" type="curve" smooth="yes"/>
      <point x="670.0" y="402.0"/>
      <point x="574.0" y="659.0"/>
    </contour>
  </outline>
</glyph>
<glyph name="exclamdown" format="2">
  <advance height="1920" width="540"/>
  <unicode hex="00A1"/>
  <outline>
    <contour>
      <point x="175.0" y="1050.0" type="curve" smooth="yes"/>
      <point x="365.0" y="1050.0" type="line" smooth="yes"/>
      <point x="372.0" y="1050.0"/>
      <point x="375.0" y="1047.0"/>
      <point x="375.0" y="1040.0" type="curve" smooth="yes"/>
      <point x="375.0" y="850.0" type="line" smooth="yes"/>
      <point x="375.0" y="843.0"/>
      <point x="372.0" y="840.0"/>
      <point x="365.0" y="840.0" type="curve" smooth="yes"/>
      <point x="175.0" y="840.0" type="line" smooth="yes"/>
      <point x="168.0" y="840.0"/>
      <point x="165.0" y="843.0"/>
      <point x="165.0" y="850.0" type="curve" smooth="yes"/>
      <point x="165.0" y="1040.0" type="line" smooth="yes"/>
      <point x="165.0" y="1047.0"/>
      <point x="168.0" y="1050.0"/>
    </contour>
    <contour>
      <point x="365.0" y="100.0" type="curve" smooth="yes"/>
      <point x="365.0" y="-390.0" type="line" smooth="yes"/>
      <point x="365.0" y="-397.0"/>
      <point x="362.0" y="-400.0"/>
      <point x="355.0" y="-400.0" type="curve" smooth="yes"/>
      <point x="185.0" y="-400.0" type="line" smooth="yes"/>
      <point x="178.0" y="-400.0"/>
      <point x="175.0" y="-397.0"/>
      <point x="175.0" y="-390.0" type="curve" smooth="yes"/>
      <point x="175.0" y="100.0" type="line" smooth="yes"/>
      <point x="175.0" y="107.0"/>
      <point x="175.182617188" y="113.096679688"/>
      <point x="176.0" y="120.0" type="curve" smooth="yes"/>
      <point x="234.0" y="610.0" type="line" smooth="yes"/>
      <point x="234.817382812" y="616.903320312"/>
      <point x="238.0" y="620.0"/>
      <point x="245.0" y="620.0" type="curve" smooth="yes"/>
      <point x="295.0" y="620.0" type="line" smooth="yes"/>
      <point x="302.0" y="620.0"/>
      <point x="305.182617188" y="616.903320312"/>
      <point x="306.0" y="610.0" type="curve" smooth="yes"/>
      <point x="364.0" y="120.0" type="line" smooth="yes"/>
      <point x="364.817382812" y="113.096679688"/>
      <point x="365.0" y="107.0"/>
    </contour>
  </outline>
</glyph>
<glyph name="cent" format="2">
  <advance height="1920" width="1000"/>
  <unicode hex="00A2"/>
  <outline>
    <contour>
      <point x="490.0" y="1240.0" type="curve" smooth="yes"/>
      <point x="550.0" y="1240.0" type="line" smooth="yes"/>
      <point x="557.0" y="1240.0"/>
      <point x="560.0" y="1237.0"/>
      <point x="560.0" y="1230.0" type="curve" smooth="yes"/>
      <point x="560.0" y="-180.0" type="line" smooth="yes"/>
      <point x="560.0" y="-187.0"/>
      <point x="557.0" y="-190.0"/>
      <point x="550.0" y="-190.0" type="curve" smooth="yes"/>
      <point x="490.0" y="-190.0" type="line" smooth="yes"/>
      <point x="483.0" y="-190.0"/>
      <point x="480.0" y="-187.0"/>
      <point x="480.0" y="-180.0" type="curve" smooth="yes"/>
      <point x="480.0" y="1230.0" type="line" smooth="yes"/>
      <point x="480.0" y="1237.0"/>
      <point x="483.0" y="1240.0"/>
    </contour>
    <component base="c"/>
  </outline>
</glyph>
<glyph name="sterling" format="2">
  <advance height="1920" width="1280"/>
  <unicode hex="00A3"/>
  <outline>
    <contour>
      <point x="50.0" y="645.0" type="curve" smooth="yes"/>
      <point x="50.0" y="740.0" type="line" smooth="yes"/>
      <point x="50.0" y="747.0"/>
      <point x="53.0" y="750.0"/>
      <point x="60.0" y="750.0" type="curve" smooth="yes"/>
      <point x="720.0" y="750.0" type="line" smooth="yes"/>
      <point x="727.0" y="750.0"/>
      <point x="730.0" y="747.0"/>
      <point x="730.0" y="740.0" type="curve" smooth="yes"/>
      <point x="730.0" y="645.0" type="line" smooth="yes"/>
      <point x="730.0" y="638.0"/>
      <point x="727.0" y="635.0"/>
      <point x="720.0" y="635.0" type="curve" smooth="yes"/>
      <point x="60.0" y="635.0" type="line" smooth="yes"/>
      <point x="53.0" y="635.0"/>
      <point x="50.0" y="638.0"/>
    </contour>
    <contour>
      <point x="84.0" y="154.0" type="curve" smooth="yes"/>
      <point x="200.068945028" y="270.068945028"/>
      <point x="328.0" y="305.0"/>
      <point x="328.0" y="514.35546875" type="curve" smooth="yes"/>
      <point x="328.0" y="712.5078125"/>
      <point x="140.0" y="794.966796875"/>
      <point x="140.0" y="1043.0" type="curve" smooth="yes"/>
      <point x="140.0" y="1273.0"/>
      <point x="288.0" y="1435.0"/>
      <point x="575.0" y="1435.0" type="curve" smooth="yes"/>
      <point x="869.171875" y="1435.0"/>
      <point x="1016.63476562" y="1266.05566406"/>
      <point x="1029.68945312" y="971.0" type="curve" smooth="yes"/>
      <point x="1030.04394531" y="963.0"/>
      <point x="1027.04394531" y="963.0"/>
      <point x="1020.0" y="963.0" type="curve" smooth="yes"/>
      <point x="870.0" y="963.0" type="line" smooth="yes"/>
      <point x="863.072265625" y="963.0"/>
      <point x="860.072265625" y="963.0"/>
      <point x="859.927734375" y="971.0" type="curve" smooth="yes"/>
      <point x="856.21484375" y="1176.09472656"/>
      <point x="759.612304688" y="1295.0"/>
      <point x="585.0" y="1295.0" type="curve" smooth="yes"/>
      <point x="408.0" y="1295.0"/>
      <point x="320.0" y="1223.0"/>
      <point x="320.0" y="1063.0" type="curve" smooth="yes"/>
      <point x="320.0" y="871.723632812"/>
      <point x="488.0" y="740.0"/>
      <point x="488.0" y="514.35546875" type="curve" smooth="yes"/>
      <point x="488.0" y="332.653320312"/>
      <point x="357.922851562" y="241.385742188"/>
      <point x="238.950195312" y="155.0" type="curve"/>
      <point x="1030.0" y="155.0" type="line" smooth="yes"/>
      <point x="1037.0" y="155.0"/>
      <point x="1040.0" y="152.0"/>
      <point x="1040.0" y="145.0" type="curve" smooth="yes"/>
      <point x="1040.0" y="10.0" type="line" smooth="yes"/>
      <point x="1040.0" y="3.0"/>
      <point x="1037.0" y="0.0"/>
      <point x="1030.0" y="0.0" type="curve" smooth="yes"/>
      <point x="90.0" y="0.0" type="line" smooth="yes"/>
      <point x="83.0" y="0.0"/>
      <point x="80.0" y="3.0"/>
      <point x="80.0" y="10.0" type="curve" smooth="yes"/>
      <point x="80.0" y="145.0" type="line" smooth="yes"/>
      <point x="80.0" y="149.28125"/>
      <point x="80.0" y="150.0"/>
    </contour>
  </outline>
</glyph>
<glyph name="currency" format="2">
  <advance width="1112"/>
  <unicode hex="00A4"/>
  <outline>
    <contour>
      <point x="958.354492188" y="1204.2421875" type="curve" smooth="yes"/>
      <point x="1046.7421875" y="1115.85449219" type="line" smooth="yes"/>
      <point x="1051.69238281" y="1110.90429688"/>
      <point x="1051.69238281" y="1106.66210938"/>
      <point x="1046.7421875" y="1101.71191406" type="curve" smooth="yes"/>
      <point x="884.108398438" y="939.077148438" type="line" smooth="yes"/>
      <point x="879.158203125" y="934.127929688"/>
      <point x="874.916015625" y="934.127929688"/>
      <point x="869.965820312" y="939.077148438" type="curve" smooth="yes"/>
      <point x="781.577148438" y="1027.46582031" type="line" smooth="yes"/>
      <point x="776.627929688" y="1032.41601562"/>
      <point x="776.627929688" y="1036.65820312"/>
      <point x="781.577148438" y="1041.60839844" type="curve" smooth="yes"/>
      <point x="944.211914062" y="1204.2421875" type="line" smooth="yes"/>
      <point x="949.162109375" y="1209.19238281"/>
      <point x="953.404296875" y="1209.19238281"/>
    </contour>
    <contour>
      <point x="230.034179688" y="475.922851562" type="curve" smooth="yes"/>
      <point x="318.422851562" y="387.534179688" type="line" smooth="yes"/>
      <point x="323.372070312" y="382.583984375"/>
      <point x="323.372070312" y="378.341796875"/>
      <point x="318.422851562" y="373.391601562" type="curve" smooth="yes"/>
      <point x="155.788085938" y="210.7578125" type="line" smooth="yes"/>
      <point x="150.837890625" y="205.807617188"/>
      <point x="146.595703125" y="205.807617188"/>
      <point x="141.645507812" y="210.7578125" type="curve" smooth="yes"/>
      <point x="53.2578125" y="299.145507812" type="line" smooth="yes"/>
      <point x="48.3076171875" y="304.095703125"/>
      <point x="48.3076171875" y="308.337890625"/>
      <point x="53.2578125" y="313.288085938" type="curve" smooth="yes"/>
      <point x="215.891601562" y="475.922851562" type="line" smooth="yes"/>
      <point x="220.841796875" y="480.872070312"/>
      <point x="225.083984375" y="480.872070312"/>
    </contour>
    <contour>
      <point x="53.2578125" y="1115.85449219" type="curve" smooth="yes"/>
      <point x="141.645507812" y="1204.2421875" type="line" smooth="yes"/>
      <point x="146.595703125" y="1209.19238281"/>
      <point x="150.837890625" y="1209.19238281"/>
      <point x="155.788085938" y="1204.2421875" type="curve" smooth="yes"/>
      <point x="318.422851562" y="1041.60839844" type="line" smooth="yes"/>
      <point x="323.372070312" y="1036.65820312"/>
      <point x="323.372070312" y="1032.41601562"/>
      <point x="318.422851562" y="1027.46582031" type="curve" smooth="yes"/>
      <point x="230.034179688" y="939.077148438" type="line" smooth="yes"/>
      <point x="225.083984375" y="934.127929688"/>
      <point x="220.841796875" y="934.127929688"/>
      <point x="215.891601562" y="939.077148438" type="curve" smooth="yes"/>
      <point x="53.2578125" y="1101.71191406" type="line" smooth="yes"/>
      <point x="48.3076171875" y="1106.66210938"/>
      <point x="48.3076171875" y="1110.90429688"/>
    </contour>
    <contour>
      <point x="781.577148438" y="387.534179688" type="curve" smooth="yes"/>
      <point x="869.965820312" y="475.922851562" type="line" smooth="yes"/>
      <point x="874.916015625" y="480.872070312"/>
      <point x="879.158203125" y="480.872070312"/>
      <point x="884.108398438" y="475.922851562" type="curve" smooth="yes"/>
      <point x="1046.7421875" y="313.288085938" type="line" smooth="yes"/>
      <point x="1051.69238281" y="308.337890625"/>
      <point x="1051.69238281" y="304.095703125"/>
      <point x="1046.7421875" y="299.145507812" type="curve" smooth="yes"/>
      <point x="958.354492188" y="210.7578125" type="line" smooth="yes"/>
      <point x="953.404296875" y="205.807617188"/>
      <point x="949.162109375" y="205.807617188"/>
      <point x="944.211914062" y="210.7578125" type="curve" smooth="yes"/>
      <point x="781.577148438" y="373.391601562" type="line" smooth="yes"/>
      <point x="776.627929688" y="378.341796875"/>
      <point x="776.627929688" y="382.583984375"/>
    </contour>
    <contour>
      <point x="63.0" y="710.0" type="curve" smooth="yes"/>
      <point x="63.0" y="979.0"/>
      <point x="284.0" y="1200.0"/>
      <point x="553.0" y="1200.0" type="curve" smooth="yes"/>
      <point x="822.0" y="1200.0"/>
      <point x="1043.0" y="979.0"/>
      <point x="1043.0" y="710.0" type="curve" smooth="yes"/>
      <point x="1043.0" y="441.0"/>
      <point x="822.0" y="220.0"/>
      <point x="553.0" y="220.0" type="curve" smooth="yes"/>
      <point x="284.0" y="220.0"/>
      <point x="63.0" y="441.0"/>
    </contour>
    <contour>
      <point x="223.0" y="710.0" type="curve" smooth="yes"/>
      <point x="223.0" y="521.0"/>
      <point x="364.0" y="370.0"/>
      <point x="553.0" y="370.0" type="curve" smooth="yes"/>
      <point x="742.0" y="370.0"/>
      <point x="883.0" y="521.0"/>
      <point x="883.0" y="710.0" type="curve" smooth="yes"/>
      <point x="883.0" y="899.0"/>
      <point x="742.0" y="1050.0"/>
      <point x="553.0" y="1050.0" type="curve" smooth="yes"/>
      <point x="364.0" y="1050.0"/>
      <point x="223.0" y="899.0"/>
    </contour>
  </outline>
</glyph>
<glyph name="section" format="2">
  <advance height="1920" width="1086"/>
  <unicode hex="00A7"/>
  <outline>
    <contour>
      <point x="483.0" y="850.0" type="line"/>
      <point x="338.0" y="850.0"/>
      <point x="245.0" y="736.0"/>
      <point x="245.0" y="618.0" type="curve" smooth="yes"/>
      <point x="245.0" y="511.0"/>
      <point x="308.229492188" y="424.002929688"/>
      <point x="490.0" y="321.0" type="curve" smooth="yes"/>
      <point x="730.0" y="185.0"/>
      <point x="875.0" y="67.0"/>
      <point x="875.0" y="-93.0" type="curve" smooth="yes"/>
      <point x="875.0" y="-275.0"/>
      <point x="740.0" y="-400.0"/>
      <point x="513.0" y="-400.0" type="curve" smooth="yes"/>
      <point x="279.0" y="-400.0"/>
      <point x="174.0" y="-267.0"/>
      <point x="160.0" y="-57.0" type="curve" smooth="yes"/>
      <point x="160.0" y="-51.0"/>
      <point x="163.0" y="-48.0"/>
      <point x="170.0" y="-48.0" type="curve" smooth="yes"/>
      <point x="309.0" y="-48.0" type="line" smooth="yes"/>
      <point x="316.0" y="-48.0"/>
      <point x="319.0" y="-51.0"/>
      <point x="320.0" y="-58.0" type="curve" smooth="yes"/>
      <point x="334.0" y="-188.0"/>
      <point x="372.0" y="-265.0"/>
      <point x="515.0" y="-265.0" type="curve" smooth="yes"/>
      <point x="643.0" y="-265.0"/>
      <point x="705.0" y="-210.0"/>
      <point x="705.0" y="-110.0" type="curve" smooth="yes"/>
      <point x="705.0" y="-32.0"/>
      <point x="605.0" y="71.0"/>
      <point x="440.0" y="162.0" type="curve" smooth="yes"/>
      <point x="156.844726562" y="318.1640625"/>
      <point x="75.0" y="406.0"/>
      <point x="75.0" y="563.0" type="curve" smooth="yes"/>
      <point x="75.0" y="785.0"/>
      <point x="230.0" y="930.0"/>
      <point x="494.0" y="930.0" type="curve"/>
    </contour>
    <contour>
      <point x="603.0" y="185.0" type="line"/>
      <point x="748.0" y="185.0"/>
      <point x="841.0" y="299.0"/>
      <point x="841.0" y="417.0" type="curve" smooth="yes"/>
      <point x="841.0" y="524.0"/>
      <point x="777.770507812" y="610.997070312"/>
      <point x="596.0" y="714.0" type="curve" smooth="yes"/>
      <point x="356.0" y="850.0"/>
      <point x="211.0" y="968.0"/>
      <point x="211.0" y="1128.0" type="curve" smooth="yes"/>
      <point x="211.0" y="1310.0"/>
      <point x="346.0" y="1435.0"/>
      <point x="573.0" y="1435.0" type="curve" smooth="yes"/>
      <point x="807.0" y="1435.0"/>
      <point x="912.0" y="1302.0"/>
      <point x="926.0" y="1092.0" type="curve" smooth="yes"/>
      <point x="926.0" y="1086.0"/>
      <point x="923.0" y="1083.0"/>
      <point x="916.0" y="1083.0" type="curve" smooth="yes"/>
      <point x="777.0" y="1083.0" type="line" smooth="yes"/>
      <point x="770.0" y="1083.0"/>
      <point x="767.0" y="1086.0"/>
      <point x="766.0" y="1093.0" type="curve" smooth="yes"/>
      <point x="752.0" y="1223.0"/>
      <point x="714.0" y="1300.0"/>
      <point x="571.0" y="1300.0" type="curve" smooth="yes"/>
      <point x="443.0" y="1300.0"/>
      <point x="381.0" y="1245.0"/>
      <point x="381.0" y="1145.0" type="curve" smooth="yes"/>
      <point x="381.0" y="1067.0"/>
      <point x="481.0" y="964.0"/>
      <point x="646.0" y="873.0" type="curve" smooth="yes"/>
      <point x="929.155273438" y="716.8359375"/>
      <point x="1011.0" y="629.0"/>
      <point x="1011.0" y="472.0" type="curve" smooth="yes"/>
      <point x="1011.0" y="250.0"/>
      <point x="856.0" y="105.0"/>
      <point x="592.0" y="105.0" type="curve"/>
    </contour>
  </outline>
</glyph>
